<?xml version="1.0" encoding="UTF-8" standalone="no"?>
<!-- Created with Inkscape (http://www.inkscape.org/) -->

<svg
   xmlns:dc="http://purl.org/dc/elements/1.1/"
   xmlns:cc="http://creativecommons.org/ns#"
   xmlns:rdf="http://www.w3.org/1999/02/22-rdf-syntax-ns#"
   xmlns:svg="http://www.w3.org/2000/svg"
   xmlns="http://www.w3.org/2000/svg"
   xmlns:xlink="http://www.w3.org/1999/xlink"
   xmlns:sodipodi="http://sodipodi.sourceforge.net/DTD/sodipodi-0.dtd"
   xmlns:inkscape="http://www.inkscape.org/namespaces/inkscape"
   width="2500"
   height="600"
   viewBox="0 0 661.45832 158.75001"
   version="1.1"
   id="svg8"
   inkscape:export-filename="/home/johan/spips/spipr-dane/plugins/spipr_dane/img/logo-academie.png"
   inkscape:export-xdpi="20.297981"
   inkscape:export-ydpi="20.297981"
   inkscape:version="0.92.1 r15371"
   sodipodi:docname="source_logo-academie.svg">
  <title
     id="title6898">Logo Pod</title>
  <defs
     id="defs2">
    <linearGradient
       inkscape:collect="always"
       id="linearGradient6029">
      <stop
         style="stop-color:#000000;stop-opacity:1;"
         offset="0"
         id="stop6025" />
      <stop
         style="stop-color:#000000;stop-opacity:0;"
         offset="1"
         id="stop6027" />
    </linearGradient>
    <linearGradient
       inkscape:collect="always"
       id="linearGradient5995">
      <stop
         style="stop-color:#e64e92;stop-opacity:1;"
         offset="0"
         id="stop5991" />
      <stop
         style="stop-color:#e64e92;stop-opacity:0;"
         offset="1"
         id="stop5993" />
    </linearGradient>
    <linearGradient
       inkscape:collect="always"
       xlink:href="#linearGradient5995"
       id="linearGradient5997"
       x1="70.977783"
       y1="-0.71082723"
       x2="81.554337"
       y2="-12.470284"
       gradientUnits="userSpaceOnUse"
       gradientTransform="translate(-223.30665,78.138561)" />
    <linearGradient
       inkscape:collect="always"
       xlink:href="#linearGradient6029"
       id="linearGradient6031"
       x1="108.4162"
       y1="244.08344"
       x2="241.1488"
       y2="226.69641"
       gradientUnits="userSpaceOnUse" />
    <clipPath
       clipPathUnits="userSpaceOnUse"
       id="clipPath442">
      <path
         d="M 148.313,212.258 H 283.687 V 363.601 H 148.313 Z"
         id="path440"
         inkscape:connector-curvature="0" />
    </clipPath>
    <clipPath
       clipPathUnits="userSpaceOnUse"
       id="clipPath402">
      <path
         d="M 148.313,212.258 H 283.687 V 363.601 H 148.313 Z"
         id="path400"
         inkscape:connector-curvature="0" />
    </clipPath>
  </defs>
  <sodipodi:namedview
     id="base"
     pagecolor="#ffffff"
     bordercolor="#666666"
     borderopacity="1.0"
     inkscape:pageopacity="0.0"
     inkscape:pageshadow="2"
     inkscape:zoom="0.7"
     inkscape:cx="1592.1429"
     inkscape:cy="-9.784043"
     inkscape:document-units="mm"
     inkscape:current-layer="layer1"
     showgrid="false"
     units="px"
     inkscape:window-width="1883"
     inkscape:window-height="1020"
     inkscape:window-x="37"
     inkscape:window-y="31"
     inkscape:window-maximized="1"
     showguides="true"
     inkscape:guide-bbox="true">
    <sodipodi:guide
       position="268.87314,22.450642"
       orientation="0,1"
       id="guide7414"
       inkscape:locked="false" />
  </sodipodi:namedview>
  <metadata
     id="metadata5">
    <rdf:RDF>
      <cc:Work
         rdf:about="">
        <dc:format>image/svg+xml</dc:format>
        <dc:type
           rdf:resource="http://purl.org/dc/dcmitype/StillImage" />
        <dc:title>Logo Pod</dc:title>
        <dc:creator>
          <cc:Agent>
            <dc:title>Johan Pustoch</dc:title>
          </cc:Agent>
        </dc:creator>
        <dc:rights>
          <cc:Agent>
            <dc:title />
          </cc:Agent>
        </dc:rights>
      </cc:Work>
    </rdf:RDF>
  </metadata>
  <g
     inkscape:label="Calque 1"
     inkscape:groupmode="layer"
     id="layer1"
     transform="translate(0,-138.24998)">
    <g
       transform="matrix(1.632259,0,0,-1.632259,110.57043,730.37634)"
       clip-path="url(#clipPath402)"
       id="g398"
       inkscape:export-filename="/home/pod/django_projects/pod/pod_project/core/theme/AC-CAEN/assets/images/logo_compact.png"
       inkscape:export-xdpi="19.75498"
       inkscape:export-ydpi="19.75498">
      <g
         transform="translate(225.24474,324.9915)"
         id="g404"
         inkscape:export-filename="/home/johan/spips/espagnol/squelettes/favicon.png"
         inkscape:export-xdpi="21.730478"
         inkscape:export-ydpi="21.730478">
        <path
           inkscape:connector-curvature="0"
           id="path406"
           style="fill:#4b77aa;fill-opacity:1;fill-rule:nonzero;stroke:none"
           d="m 0,0 c 0,10.936 8.906,19.838 19.838,19.838 10.939,0 19.844,-8.902 19.844,-19.838 0,-10.936 -8.905,-19.83 -19.844,-19.83 C 8.906,-19.83 0,-10.936 0,0 m -5.355,0 c 0,-13.896 11.293,-25.193 25.193,-25.193 13.9,0 25.203,11.297 25.203,25.193 0,13.889 -11.303,25.195 -25.203,25.195 C 5.938,25.195 -5.355,13.889 -5.355,0" />
      </g>
      <g
         transform="translate(225.24474,324.9915)"
         id="g408"
         inkscape:export-filename="/home/johan/spips/espagnol/squelettes/favicon.png"
         inkscape:export-xdpi="21.730478"
         inkscape:export-ydpi="21.730478"
         style="stroke:#8f9ec7;stroke-opacity:0.45637584">
        <path
           inkscape:connector-curvature="0"
           id="path410"
           style="fill:#df0d46;fill-opacity:1;stroke:#8f9ec7;stroke-width:1;stroke-linecap:butt;stroke-linejoin:miter;stroke-miterlimit:4;stroke-dasharray:none;stroke-opacity:0.45637584"
           d="m 0,0 c 0,10.936 8.906,19.838 19.838,19.838 10.939,0 19.844,-8.902 19.844,-19.838 0,-10.936 -8.905,-19.83 -19.844,-19.83 C 8.906,-19.83 0,-10.936 0,0 Z m -5.355,0 c 0,-13.896 11.293,-25.193 25.193,-25.193 13.9,0 25.203,11.297 25.203,25.193 0,13.889 -11.303,25.195 -25.203,25.195 C 5.938,25.195 -5.355,13.889 -5.355,0 Z"
           inkscape:export-filename="/home/johan/spips/ses/squelettes/favicon.png"
           inkscape:export-xdpi="15"
           inkscape:export-ydpi="15" />
      </g>
      <g
         transform="translate(246.40104,361.6009)"
         id="g412"
         inkscape:export-filename="/home/pod/django_projects/pod/pod_project/core/theme/AC-CAEN/assets/images/logo_compact.png"
         inkscape:export-xdpi="21.730478"
         inkscape:export-ydpi="21.730478">
        <path
           inkscape:connector-curvature="0"
           id="path414"
           style="fill:#4b77aa;fill-opacity:1;fill-rule:nonzero;stroke:none"
           d="M 0,0 H 10.063 L 2.779,-7.67 H -2.93 Z" />
      </g>
      <g
         transform="translate(246.40104,361.6009)"
         id="g416"
         style="fill:#df0d46;fill-opacity:1;stroke:#8f9ec7;stroke-opacity:0.45637584"
         inkscape:export-filename="/home/pod/django_projects/pod/pod_project/core/theme/AC-CAEN/assets/images/logo_compact.png"
         inkscape:export-xdpi="21.730478"
         inkscape:export-ydpi="21.730478">
        <path
           inkscape:connector-curvature="0"
           id="path418"
           style="fill:#df0d46;fill-opacity:1;stroke:#8f9ec7;stroke-width:1;stroke-linecap:butt;stroke-linejoin:miter;stroke-miterlimit:4;stroke-dasharray:none;stroke-opacity:0.45637584"
           d="M 0,0 H 10.063 L 2.779,-7.67 H -2.93 Z" />
      </g>
      <g
         transform="translate(235.92254,338.6419)"
         id="g420"
         inkscape:export-filename="/home/johan/spips/espagnol/squelettes/favicon.png"
         inkscape:export-xdpi="21.730478"
         inkscape:export-ydpi="21.730478">
        <path
           inkscape:connector-curvature="0"
           id="path422"
           style="fill:#4b77aa;fill-opacity:1;fill-rule:nonzero;stroke:none"
           d="M 0,0 H 18.422 V -6.143 L 7.035,-6.148 v -3.961 h 10.639 v -6.153 H 7.035 v -3.959 h 11.379 v -6.146 H 0 Z" />
      </g>
      <g
         transform="translate(235.92254,338.6419)"
         id="g424"
         inkscape:export-filename="/home/pod/django_projects/pod/pod_project/core/theme/AC-CAEN/assets/images/logo_compact.png"
         inkscape:export-xdpi="21.730478"
         inkscape:export-ydpi="21.730478"
         style="stroke:#8f9ec7;stroke-opacity:0.45637584">
        <path
           inkscape:connector-curvature="0"
           id="path426"
           style="fill:#df0d46;fill-opacity:1;stroke:#8f9ec7;stroke-width:1;stroke-linecap:butt;stroke-linejoin:miter;stroke-miterlimit:4;stroke-dasharray:none;stroke-opacity:0.45637584"
           d="M 0,0 H 18.422 V -6.143 L 7.035,-6.148 v -3.961 h 10.639 v -6.153 H 7.035 v -3.959 h 11.379 v -6.146 H 0 Z"
           inkscape:export-filename="/home/johan/spips/ses/squelettes/favicon.png"
           inkscape:export-xdpi="15"
           inkscape:export-ydpi="15" />
      </g>
    </g>
    <text
       y="209.99643"
       x="453.65884"
       transform="scale(1.0825174,0.92377268)"
       style="font-style:normal;font-variant:normal;font-weight:normal;font-stretch:normal;font-size:31.75px;line-height:0.89999998;font-family:'Industria LT Std';-inkscape-font-specification:'Industria LT Std, Normal';font-variant-ligatures:normal;font-variant-caps:normal;font-variant-numeric:normal;font-feature-settings:normal;text-align:end;letter-spacing:0.0029419px;writing-mode:lr-tb;text-anchor:end;fill:#000000;fill-opacity:1;fill-rule:nonzero;stroke:none;stroke-width:1.68280864"
       id="text432"
       inkscape:export-filename="/home/pod/django_projects/pod/pod_project/core/theme/AC-CAEN/assets/images/logo_compact.png"
       inkscape:export-xdpi="19.75498"
       inkscape:export-ydpi="19.75498">
      <tspan
         style="font-style:normal;font-variant:normal;font-weight:normal;font-stretch:normal;font-size:31.75px;font-family:'Industria LT Std';-inkscape-font-specification:'Industria LT Std, Normal';font-variant-ligatures:normal;font-variant-caps:normal;font-variant-numeric:normal;font-feature-settings:normal;text-align:end;letter-spacing:0.02941902px;writing-mode:lr-tb;text-anchor:end;fill:#000000;fill-opacity:1;stroke-width:1.68280864"
         y="209.99643"
         x="453.68826"
         sodipodi:role="line"
         id="tspan5154"
         dx="0.011119008">académie</tspan>
      <tspan
         style="font-style:normal;font-variant:normal;font-weight:normal;font-stretch:normal;font-size:31.75px;font-family:'Industria LT Std';-inkscape-font-specification:'Industria LT Std, Normal';font-variant-ligatures:normal;font-variant-caps:normal;font-variant-numeric:normal;font-feature-settings:normal;text-align:end;letter-spacing:0.02941902px;writing-mode:lr-tb;text-anchor:end;fill:#000000;fill-opacity:1;stroke-width:1.68280864"
         y="238.57143"
         x="453.68826"
         sodipodi:role="line"
         id="tspan5156">Normandie</tspan>
    </text>
    <path
       d="m 368.20861,202.79686 h -72.52434 v -24.51891 h 72.52434 z"
       style="fill:#ffffff;fill-opacity:1;fill-rule:nonzero;stroke:none;stroke-width:1.89437842"
       id="path434"
       inkscape:connector-curvature="0"
       inkscape:export-filename="/home/pod/django_projects/pod/pod_project/core/theme/AC-CAEN/assets/images/logo_compact.png"
       inkscape:export-xdpi="19.75498"
       inkscape:export-ydpi="19.75498" />
    <g
       id="g436"
       transform="matrix(1.8943783,0,0,-1.8943783,-71.699261,623.29771)"
       inkscape:export-filename="/home/pod/django_projects/pod/pod_project/core/theme/AC-CAEN/assets/images/logo_compact.png"
       inkscape:export-xdpi="19.75498"
       inkscape:export-ydpi="19.75498">
      <g
         id="g438"
         clip-path="url(#clipPath442)">
        <g
           id="g444"
           transform="translate(195.0199,215.2439)">
          <path
             d="m 0,0 c -0.075,0 -0.145,-0.012 -0.227,-0.031 0,-0.225 -0.003,-0.631 -0.003,-0.944 0.04,-0.007 0.116,-0.011 0.166,-0.011 0.312,0 0.52,0.193 0.52,0.488 C 0.456,-0.209 0.264,0 0,0 m 0.976,-2.375 c -0.139,0 -0.219,0.018 -0.299,0.07 -0.127,0.086 -0.259,0.311 -0.334,0.44 -0.129,0.226 -0.274,0.465 -0.411,0.668 -0.022,-0.006 -0.041,-0.006 -0.057,-0.006 -0.037,0 -0.068,0.006 -0.105,0.006 V -1.4 c 0,-0.1 0.003,-0.205 0.003,-0.307 0.004,-0.207 0.007,-0.295 0.037,-0.373 0.04,-0.1 0.107,-0.149 0.233,-0.16 v -0.108 l -0.089,0.008 c -0.099,0.002 -0.233,0 -0.413,0 -0.174,0 -0.311,0.002 -0.411,0 l -0.091,-0.008 v 0.108 c 0.096,0.008 0.141,0.029 0.187,0.076 0.042,0.051 0.069,0.119 0.075,0.205 0.012,0.113 0.015,0.182 0.015,0.559 v 0.636 c 0,0.463 -0.015,0.576 -0.041,0.684 -0.027,0.101 -0.106,0.144 -0.236,0.16 v 0.106 c 0.076,-0.008 0.152,-0.004 0.229,-0.004 0.197,0 0.257,0 0.494,0.011 0.205,0.008 0.321,0.012 0.413,0.012 0.259,0 0.414,-0.037 0.543,-0.129 0.144,-0.103 0.24,-0.301 0.24,-0.498 0,-0.312 -0.204,-0.564 -0.555,-0.693 0.145,-0.182 0.258,-0.364 0.391,-0.574 0.123,-0.194 0.242,-0.362 0.338,-0.456 0.054,-0.056 0.086,-0.074 0.161,-0.095 V -2.348 C 1.193,-2.369 1.096,-2.375 0.976,-2.375"
             style="fill:#000000;fill-opacity:1;fill-rule:nonzero;stroke:none"
             id="path446"
             inkscape:connector-curvature="0" />
        </g>
        <g
           id="g448"
           transform="translate(197.9447,212.9471)">
          <path
             d="m 0,0 c -0.028,-0.051 -0.061,-0.059 -0.231,-0.059 -0.107,0 -0.21,0.006 -0.318,0.008 -0.15,0.008 -0.301,0.012 -0.451,0.012 -0.15,0 -0.302,-0.004 -0.453,-0.012 v 0.092 c 0.141,0.01 0.205,0.092 0.218,0.23 0.009,0.096 0.009,0.194 0.009,0.358 v 0.885 c 0,0.168 -0.009,0.242 -0.036,0.308 -0.026,0.082 -0.083,0.119 -0.191,0.131 V 2.041 H 0.016 C 0.016,1.951 0.014,1.855 0.014,1.766 0.014,1.691 0.01,1.619 0.016,1.543 H -0.096 C -0.119,1.785 -0.223,1.85 -0.596,1.85 -0.663,1.85 -0.755,1.848 -0.831,1.844 -0.838,1.721 -0.84,1.682 -0.84,1.498 V 1.137 c 0.047,-0.004 0.085,-0.004 0.141,-0.004 0.326,0 0.427,0.047 0.445,0.219 h 0.113 C -0.147,1.301 -0.147,1.197 -0.147,1.039 c 0,-0.158 0.002,-0.252 0.006,-0.305 H -0.254 C -0.263,0.916 -0.348,0.957 -0.67,0.957 h -0.17 c 0,-0.199 0.002,-0.396 0.002,-0.596 0,-0.131 0.022,-0.175 0.098,-0.195 0.047,-0.012 0.119,-0.014 0.217,-0.014 0.339,0 0.457,0.075 0.529,0.332 L 0.129,0.461 C 0.086,0.24 0.033,0.057 0,0 m -0.699,2.246 -0.147,0.088 0.309,0.457 0.361,-0.064 z"
             style="fill:#000000;fill-opacity:1;fill-rule:nonzero;stroke:none"
             id="path450"
             inkscape:connector-curvature="0" />
        </g>
        <g
           id="g452"
           transform="translate(199.2533,213.8299)">
          <path
             d="m 0,0 c -0.032,0 -0.047,0 -0.088,0.004 l -0.068,0.158 c 0.295,0.02 0.458,0.164 0.458,0.401 0,0.251 -0.173,0.431 -0.411,0.431 -0.039,0 -0.071,-0.004 -0.12,-0.014 0,-0.195 -0.006,-0.388 -0.006,-0.58 v -0.548 c 0,-0.413 0.003,-0.483 0.036,-0.563 0.027,-0.084 0.082,-0.121 0.19,-0.131 v -0.092 l -0.076,0.008 h -0.346 -0.34 l -0.077,-0.008 v 0.092 c 0.143,0.01 0.205,0.092 0.217,0.231 0.01,0.095 0.01,0.15 0.01,0.463 v 0.779 c 0,0.168 -0.01,0.242 -0.034,0.308 -0.029,0.082 -0.086,0.12 -0.193,0.131 v 0.088 c 0.038,-0.002 0.01,-0.002 0.146,-0.002 0.052,0 0.127,0 0.228,0.002 0.161,0.008 0.321,0.016 0.48,0.016 0.447,0 0.713,-0.217 0.713,-0.582 C 0.719,0.25 0.415,0 0,0"
             style="fill:#000000;fill-opacity:1;fill-rule:nonzero;stroke:none"
             id="path454"
             inkscape:connector-curvature="0" />
        </g>
        <g
           id="g456"
           transform="translate(202.1039,214.8318)">
          <path
             d="m 0,0 c -0.034,-0.045 -0.049,-0.107 -0.056,-0.234 -0.006,-0.137 -0.007,-0.239 -0.007,-0.432 0,-0.072 0.001,-0.289 0.001,-0.504 0,-0.219 -0.034,-0.353 -0.125,-0.484 -0.143,-0.211 -0.382,-0.315 -0.697,-0.315 -0.197,0 -0.348,0.033 -0.488,0.131 -0.221,0.139 -0.306,0.324 -0.306,0.658 0,0.338 0.007,0.485 0.007,0.596 0,0.156 0.01,0.324 -0.017,0.48 -0.02,0.114 -0.081,0.161 -0.213,0.172 v 0.088 l 0.074,-0.002 c 0.08,-0.004 0.195,-0.004 0.348,-0.004 0.15,0 0.265,0 0.349,0.004 l 0.071,0.002 V 0.068 c -0.096,-0.011 -0.145,-0.035 -0.177,-0.089 -0.027,-0.047 -0.04,-0.11 -0.043,-0.249 -0.005,-0.193 -0.009,-0.39 -0.009,-0.587 0,-0.539 0.012,-0.645 0.111,-0.756 0.074,-0.088 0.203,-0.149 0.354,-0.149 0.211,0 0.414,0.108 0.476,0.317 0.041,0.134 0.047,0.232 0.047,0.588 v 0.31 c 0,0.356 -0.01,0.465 -0.045,0.518 -0.033,0.058 -0.083,0.088 -0.162,0.097 v 0.088 c 0.125,-0.006 0.17,-0.006 0.326,-0.006 0.162,0 0.204,0 0.328,0.006 V 0.068 C 0.08,0.059 0.036,0.041 0,0"
             style="fill:#000000;fill-opacity:1;fill-rule:nonzero;stroke:none"
             id="path458"
             inkscape:connector-curvature="0" />
        </g>
        <g
           id="g460"
           transform="translate(203.3597,213.951)">
          <path
             d="m 0,0 c -0.053,0 -0.108,-0.002 -0.192,-0.008 -0.003,-0.086 -0.003,-0.099 -0.003,-0.244 v -0.187 c 0,-0.176 0.006,-0.27 0.031,-0.331 0.023,-0.08 0.098,-0.117 0.231,-0.117 0.267,0 0.415,0.147 0.415,0.412 C 0.482,-0.184 0.295,0 0,0 m -0.009,0.875 c -0.057,0 -0.112,-0.006 -0.17,-0.006 -0.003,-0.205 -0.01,-0.555 -0.013,-0.685 0.035,-0.002 0.08,-0.008 0.139,-0.008 0.307,0 0.484,0.131 0.484,0.353 0,0.217 -0.163,0.346 -0.44,0.346 M 0.675,-0.904 C 0.527,-1.02 0.361,-1.057 0.041,-1.057 c -0.169,0 -0.343,0.014 -0.512,0.014 -0.07,0 -0.198,0 -0.286,-0.004 l -0.037,-0.008 v 0.092 c 0.148,0.01 0.205,0.086 0.218,0.231 0.007,0.095 0.013,0.15 0.013,0.462 v 0.59 c 0,0.291 -0.006,0.416 -0.037,0.498 -0.031,0.082 -0.087,0.12 -0.194,0.131 v 0.088 c 0.146,-0.006 0.231,-0.006 0.431,-0.006 0.181,0 0.456,0.01 0.634,0.01 0.292,0 0.554,-0.139 0.554,-0.465 0,-0.24 -0.15,-0.402 -0.448,-0.478 0.332,-0.065 0.508,-0.256 0.508,-0.565 0,-0.191 -0.069,-0.33 -0.21,-0.437"
             style="fill:#000000;fill-opacity:1;fill-rule:nonzero;stroke:none"
             id="path462"
             inkscape:connector-curvature="0" />
        </g>
        <g
           id="g464"
           transform="translate(206.016,212.9412)">
          <path
             d="m 0,0 c -0.027,-0.045 -0.065,-0.053 -0.222,-0.053 -0.077,0 -0.16,0.002 -0.237,0.006 -0.195,0.01 -0.371,0.014 -0.585,0.014 -0.16,0 -0.268,-0.004 -0.366,-0.012 v 0.092 c 0.078,0.006 0.117,0.019 0.154,0.06 0.055,0.065 0.069,0.147 0.069,0.375 0,0.159 0.004,0.288 0.004,0.45 v 0.334 c 0,0.422 -0.004,0.478 -0.034,0.562 -0.028,0.082 -0.088,0.119 -0.193,0.131 v 0.088 l 0.078,-0.002 c 0.083,-0.004 0.2,-0.004 0.357,-0.004 0.154,0 0.274,0 0.354,0.004 l 0.08,0.002 V 1.959 c -0.16,0 -0.23,-0.082 -0.248,-0.234 -0.008,-0.053 -0.01,-0.104 -0.01,-0.459 V 0.74 c 0,-0.433 0.002,-0.488 0.043,-0.531 0.036,-0.037 0.102,-0.051 0.236,-0.051 0.172,0 0.268,0.02 0.344,0.063 0.089,0.047 0.155,0.14 0.187,0.273 L 0.13,0.463 C 0.095,0.279 0.036,0.057 0,0"
             style="fill:#000000;fill-opacity:1;fill-rule:nonzero;stroke:none"
             id="path466"
             inkscape:connector-curvature="0" />
        </g>
        <g
           id="g468"
           transform="translate(207.1087,212.9041)">
          <path
             d="m 0,0 h -0.342 -0.346 l -0.076,-0.008 v 0.092 c 0.149,0.01 0.206,0.086 0.217,0.23 0.011,0.096 0.014,0.151 0.014,0.463 v 0.526 c 0,0.08 -0.003,0.166 -0.003,0.254 0,0.168 -0.008,0.242 -0.032,0.308 -0.029,0.082 -0.088,0.119 -0.196,0.131 v 0.088 l 0.076,-0.002 c 0.083,-0.004 0.195,-0.004 0.346,-0.004 0.147,0 0.264,0 0.342,0.004 L 0.075,2.084 V 1.996 C -0.061,1.986 -0.128,1.904 -0.141,1.762 -0.15,1.67 -0.15,1.582 -0.15,1.303 V 0.777 c 0,-0.412 0.002,-0.482 0.035,-0.562 0.027,-0.084 0.084,-0.121 0.19,-0.131 v -0.092 z"
             style="fill:#000000;fill-opacity:1;fill-rule:nonzero;stroke:none"
             id="path470"
             inkscape:connector-curvature="0" />
        </g>
        <g
           id="g472"
           transform="translate(208.5599,214.8142)">
          <path
             d="m 0,0 c -0.383,0 -0.656,-0.318 -0.656,-0.768 0,-0.546 0.324,-0.976 0.735,-0.976 0.386,0 0.659,0.328 0.659,0.781 C 0.738,-0.426 0.414,0 0,0 m 1.482,-2.48 c -0.244,0 -0.505,0.074 -0.753,0.212 -0.141,0.08 -0.339,0.215 -0.484,0.334 -0.106,-0.017 -0.147,-0.017 -0.247,-0.017 -0.634,0 -1.055,0.41 -1.055,1.035 0,0.668 0.454,1.127 1.12,1.127 0.646,0 1.078,-0.412 1.078,-1.033 0,-0.442 -0.228,-0.832 -0.586,-1.014 0.113,-0.059 0.226,-0.119 0.338,-0.187 0.318,-0.196 0.539,-0.276 0.746,-0.276 0.129,0 0.234,0.029 0.361,0.09 L 2.039,-2.318 C 1.887,-2.424 1.695,-2.48 1.482,-2.48"
             style="fill:#000000;fill-opacity:1;fill-rule:nonzero;stroke:none"
             id="path474"
             inkscape:connector-curvature="0" />
        </g>
        <g
           id="g476"
           transform="translate(211.8744,214.8318)">
          <path
             d="m 0,0 c -0.035,-0.045 -0.052,-0.107 -0.057,-0.234 -0.007,-0.137 -0.009,-0.239 -0.009,-0.432 0,-0.072 0.002,-0.289 0.002,-0.504 0,-0.219 -0.034,-0.353 -0.125,-0.484 -0.145,-0.211 -0.382,-0.315 -0.697,-0.315 -0.198,0 -0.346,0.033 -0.489,0.131 -0.219,0.139 -0.304,0.324 -0.304,0.658 0,0.338 0.006,0.485 0.006,0.596 0,0.156 0.009,0.324 -0.02,0.48 -0.018,0.114 -0.077,0.161 -0.208,0.172 v 0.088 l 0.07,-0.002 c 0.083,-0.004 0.2,-0.004 0.351,-0.004 0.15,0 0.265,0 0.347,0.004 l 0.072,0.002 V 0.068 C -1.16,0.057 -1.205,0.033 -1.236,-0.021 -1.266,-0.068 -1.277,-0.131 -1.279,-0.27 -1.288,-0.463 -1.29,-0.66 -1.29,-0.857 c 0,-0.539 0.013,-0.645 0.108,-0.756 0.078,-0.088 0.204,-0.149 0.357,-0.149 0.21,0 0.413,0.108 0.477,0.317 0.041,0.134 0.047,0.232 0.047,0.588 v 0.31 c 0,0.356 -0.011,0.465 -0.045,0.518 -0.035,0.058 -0.083,0.088 -0.164,0.097 V 0.156 C -0.383,0.15 -0.338,0.15 -0.183,0.15 c 0.16,0 0.204,0 0.329,0.006 V 0.068 C 0.077,0.059 0.035,0.041 0,0"
             style="fill:#000000;fill-opacity:1;fill-rule:nonzero;stroke:none"
             id="path478"
             inkscape:connector-curvature="0" />
        </g>
        <g
           id="g480"
           transform="translate(213.7875,212.9471)">
          <path
             d="m 0,0 c -0.028,-0.051 -0.061,-0.059 -0.234,-0.059 -0.105,0 -0.209,0.006 -0.317,0.008 -0.148,0.008 -0.301,0.012 -0.45,0.012 -0.148,0 -0.303,-0.004 -0.451,-0.012 v 0.092 c 0.139,0.01 0.203,0.092 0.217,0.23 0.009,0.096 0.009,0.194 0.009,0.358 v 0.885 c 0,0.168 -0.009,0.242 -0.036,0.308 -0.028,0.082 -0.086,0.119 -0.19,0.131 V 2.041 H 0.015 C 0.015,1.951 0.014,1.855 0.014,1.766 0.014,1.691 0.01,1.619 0.015,1.543 H -0.098 C -0.119,1.785 -0.224,1.85 -0.597,1.85 -0.665,1.85 -0.757,1.848 -0.832,1.844 -0.837,1.721 -0.842,1.682 -0.842,1.498 V 1.137 c 0.048,-0.004 0.085,-0.004 0.143,-0.004 0.325,0 0.426,0.047 0.446,0.219 h 0.112 C -0.148,1.301 -0.148,1.197 -0.148,1.039 c 0,-0.158 0.003,-0.252 0.007,-0.305 H -0.253 C -0.265,0.916 -0.35,0.957 -0.672,0.957 h -0.17 c 0,-0.199 0.005,-0.396 0.005,-0.596 0,-0.131 0.022,-0.175 0.096,-0.195 0.048,-0.012 0.12,-0.014 0.218,-0.014 0.337,0 0.457,0.075 0.53,0.332 L 0.13,0.461 C 0.084,0.24 0.033,0.057 0,0"
             style="fill:#000000;fill-opacity:1;fill-rule:nonzero;stroke:none"
             id="path482"
             inkscape:connector-curvature="0" />
        </g>
        <g
           id="g484"
           transform="translate(216.6918,214.8182)">
          <path
             d="m 0,0 c -0.005,0.273 -0.164,0.381 -0.594,0.381 -0.088,0 -0.17,-0.006 -0.265,-0.012 -0.009,-0.264 -0.009,-0.445 -0.009,-0.857 0.091,-0.004 0.137,-0.006 0.202,-0.006 0.353,0 0.458,0.058 0.478,0.262 h 0.136 c 0,-0.106 -0.008,-0.215 -0.008,-0.321 0,-0.14 0.008,-0.285 0.008,-0.424 h -0.136 c -0.026,0.229 -0.113,0.272 -0.512,0.272 -0.071,0 -0.095,0 -0.168,-0.004 v -0.426 c 0,-0.08 0,-0.174 0.003,-0.273 0.01,-0.207 0.025,-0.391 0.271,-0.406 v -0.108 l -0.092,0.008 c -0.094,0.002 -0.234,0.002 -0.413,0.002 -0.182,0 -0.32,0 -0.418,-0.002 l -0.092,-0.008 v 0.108 c 0.171,0.015 0.248,0.115 0.263,0.281 0.012,0.113 0.012,0.181 0.012,0.558 v 0.948 c 0,0.201 -0.012,0.293 -0.042,0.373 -0.035,0.099 -0.103,0.144 -0.233,0.16 V 0.611 H 0.14 C 0.13,0.539 0.13,0.42 0.13,0.258 0.13,0.105 0.13,0.084 0.14,0 Z"
             style="fill:#000000;fill-opacity:1;fill-rule:nonzero;stroke:none"
             id="path486"
             inkscape:connector-curvature="0" />
        </g>
        <g
           id="g488"
           transform="translate(217.9837,214.8357)">
          <path
             d="m 0,0 c -0.064,0 -0.119,-0.01 -0.189,-0.025 0,-0.186 -0.002,-0.518 -0.002,-0.778 0.033,-0.008 0.097,-0.01 0.136,-0.01 0.258,0 0.432,0.159 0.432,0.401 C 0.377,-0.174 0.217,0 0,0 m 0.807,-1.963 c -0.117,0 -0.182,0.016 -0.248,0.059 -0.104,0.07 -0.213,0.258 -0.278,0.365 -0.105,0.187 -0.224,0.385 -0.338,0.549 -0.017,-0.002 -0.033,-0.002 -0.047,-0.002 -0.031,0 -0.054,0.002 -0.087,0.002 v -0.164 c 0,-0.088 0.002,-0.172 0.002,-0.258 0.003,-0.166 0.007,-0.238 0.031,-0.305 0.033,-0.084 0.089,-0.121 0.193,-0.131 v -0.091 l -0.071,0.007 h -0.343 -0.34 l -0.074,-0.007 v 0.091 c 0.079,0.006 0.115,0.02 0.152,0.061 0.036,0.041 0.057,0.098 0.066,0.17 0.009,0.096 0.012,0.15 0.012,0.463 v 0.525 c 0,0.379 -0.012,0.475 -0.037,0.563 -0.021,0.084 -0.088,0.119 -0.193,0.13 V 0.152 C -0.73,0.146 -0.667,0.15 -0.605,0.15 c 0.162,0 0.212,0 0.409,0.01 0.167,0.006 0.264,0.008 0.341,0.008 0.212,0 0.341,-0.031 0.449,-0.105 0.119,-0.084 0.197,-0.249 0.197,-0.413 0,-0.255 -0.17,-0.463 -0.459,-0.572 0.119,-0.148 0.214,-0.301 0.324,-0.471 0.102,-0.16 0.2,-0.3 0.28,-0.378 0.043,-0.047 0.07,-0.063 0.131,-0.077 V -1.939 C 0.984,-1.955 0.904,-1.963 0.807,-1.963"
             style="fill:#000000;fill-opacity:1;fill-rule:nonzero;stroke:none"
             id="path490"
             inkscape:connector-curvature="0" />
        </g>
        <g
           id="g492"
           transform="translate(220.0384,214.4353)">
          <path
             d="M 0,0 C -0.081,-0.211 -0.195,-0.486 -0.242,-0.639 H 0.223 Z M 1.017,-1.531 H 0.68 0.342 L 0.27,-1.539 v 0.092 c 0.099,0.006 0.16,0.058 0.16,0.144 0,0.032 -0.01,0.076 -0.042,0.17 -0.036,0.115 -0.062,0.195 -0.099,0.303 h -0.603 l -0.063,-0.184 c -0.048,-0.138 -0.072,-0.244 -0.072,-0.295 0,-0.093 0.041,-0.132 0.142,-0.138 v -0.092 c -0.121,0.008 -0.164,0.008 -0.315,0.008 -0.148,0 -0.191,0 -0.311,-0.008 v 0.092 c 0.048,0.006 0.062,0.009 0.097,0.043 0.061,0.054 0.121,0.162 0.214,0.4 l 0.3,0.758 c 0.08,0.203 0.203,0.535 0.288,0.799 H 0.179 C 0.207,0.455 0.272,0.303 0.317,0.189 l 0.443,-1.13 c 0.074,-0.192 0.129,-0.305 0.17,-0.375 0.042,-0.077 0.087,-0.116 0.162,-0.131 v -0.092 z"
             style="fill:#000000;fill-opacity:1;fill-rule:nonzero;stroke:none"
             id="path494"
             inkscape:connector-curvature="0" />
        </g>
        <g
           id="g496"
           transform="translate(223.2875,214.8084)">
          <path
             d="m 0,0 c -0.033,-0.059 -0.041,-0.111 -0.046,-0.275 -0.01,-0.28 -0.013,-0.719 -0.013,-0.928 v -0.479 c 0,-0.076 0.01,-0.185 0.01,-0.23 h -0.214 c -0.203,0.267 -0.627,0.785 -0.627,0.785 -0.052,0.064 -0.441,0.549 -0.64,0.787 0,-0.066 -0.004,-0.025 -0.004,-0.228 v -0.203 c 0,-0.235 0.004,-0.467 0.013,-0.704 0.006,-0.13 0.018,-0.195 0.049,-0.255 0.034,-0.065 0.08,-0.09 0.17,-0.09 v -0.092 c -0.109,0.008 -0.222,0.008 -0.332,0.008 -0.113,0 -0.223,0 -0.336,-0.008 v 0.092 c 0.208,0.006 0.213,0.175 0.219,0.34 0.004,0.13 0.008,0.242 0.008,0.441 v 0.66 c 0,0.264 -0.014,0.326 -0.061,0.395 -0.033,0.048 -0.072,0.066 -0.166,0.076 V 0.18 c 0.105,-0.006 0.143,-0.006 0.274,-0.006 0.129,0 0.166,0 0.269,0.006 0.038,-0.069 0.098,-0.131 0.315,-0.395 0.306,-0.371 0.584,-0.689 0.842,-1.014 v 0.684 c 0,0.311 -0.004,0.393 -0.022,0.471 -0.021,0.101 -0.081,0.15 -0.195,0.166 V 0.18 c 0.129,-0.006 0.172,-0.006 0.332,-0.006 0.159,0 0.202,0 0.331,0.006 V 0.092 C 0.092,0.09 0.045,0.076 0,0"
             style="fill:#000000;fill-opacity:1;fill-rule:nonzero;stroke:none"
             id="path498"
             inkscape:connector-curvature="0" />
        </g>
        <g
           id="g500"
           transform="translate(225.4759,212.9724)">
          <path
             d="m 0,0 c -0.203,-0.082 -0.383,-0.109 -0.629,-0.109 l -0.029,-0.129 c 0.015,0.006 0.049,0 0.058,0 0.121,0 0.2,-0.084 0.2,-0.188 0,-0.17 -0.135,-0.289 -0.348,-0.289 -0.063,0 -0.12,0.012 -0.189,0.043 l 0.045,0.121 c 0.041,-0.013 0.078,-0.027 0.113,-0.027 0.088,0 0.146,0.045 0.146,0.125 0,0.062 -0.031,0.101 -0.076,0.101 -0.027,0 -0.047,-0.009 -0.07,-0.027 l -0.07,0.02 0.064,0.255 c -0.277,0.022 -0.478,0.114 -0.648,0.292 -0.194,0.199 -0.297,0.466 -0.297,0.783 0,0.675 0.436,1.082 1.154,1.082 0.217,0 0.426,-0.03 0.607,-0.09 C 0.025,1.893 0.025,1.818 0.025,1.752 0.025,1.695 0.029,1.584 0.031,1.51 H -0.09 c -0.051,0.224 -0.228,0.344 -0.515,0.344 -0.442,0 -0.711,-0.295 -0.711,-0.784 0,-0.564 0.317,-0.976 0.752,-0.976 0.265,0 0.443,0.133 0.515,0.386 L 0.07,0.451 C 0.043,0.346 0.014,0.168 0,0"
             style="fill:#000000;fill-opacity:1;fill-rule:nonzero;stroke:none"
             id="path502"
             inkscape:connector-curvature="0" />
        </g>
        <g
           id="g504"
           transform="translate(226.638,214.4353)">
          <path
             d="M 0,0 C -0.082,-0.211 -0.195,-0.486 -0.242,-0.639 H 0.223 Z M 1.016,-1.531 H 0.68 0.342 L 0.27,-1.539 v 0.092 c 0.099,0.006 0.16,0.058 0.16,0.144 0,0.032 -0.01,0.076 -0.041,0.17 -0.037,0.115 -0.063,0.195 -0.102,0.303 h -0.601 l -0.063,-0.184 c -0.047,-0.138 -0.072,-0.244 -0.072,-0.295 0,-0.093 0.041,-0.132 0.142,-0.138 v -0.092 c -0.121,0.008 -0.166,0.008 -0.314,0.008 -0.147,0 -0.192,0 -0.311,-0.008 v 0.092 c 0.047,0.006 0.063,0.009 0.098,0.043 0.059,0.054 0.119,0.162 0.213,0.4 l 0.297,0.758 c 0.082,0.203 0.205,0.535 0.287,0.799 H 0.18 C 0.205,0.455 0.273,0.303 0.316,0.189 l 0.444,-1.13 c 0.074,-0.192 0.127,-0.305 0.168,-0.375 0.045,-0.077 0.088,-0.116 0.164,-0.131 v -0.092 z"
             style="fill:#000000;fill-opacity:1;fill-rule:nonzero;stroke:none"
             id="path506"
             inkscape:connector-curvature="0" />
        </g>
        <g
           id="g508"
           transform="translate(228.6791,212.9041)">
          <path
             d="m 0,0 h -0.342 -0.346 l -0.074,-0.008 v 0.092 c 0.149,0.01 0.203,0.086 0.217,0.23 0.01,0.096 0.012,0.151 0.012,0.463 v 0.526 c 0,0.08 -0.002,0.166 -0.002,0.254 0,0.168 -0.008,0.242 -0.031,0.308 -0.03,0.082 -0.088,0.119 -0.196,0.131 v 0.088 l 0.074,-0.002 c 0.083,-0.004 0.196,-0.004 0.346,-0.004 0.149,0 0.266,0 0.342,0.004 L 0.076,2.084 V 1.996 C -0.059,1.986 -0.127,1.904 -0.139,1.762 -0.15,1.67 -0.15,1.582 -0.15,1.303 V 0.777 c 0,-0.412 0.004,-0.482 0.035,-0.562 0.029,-0.084 0.084,-0.121 0.191,-0.131 v -0.092 z"
             style="fill:#000000;fill-opacity:1;fill-rule:nonzero;stroke:none"
             id="path510"
             inkscape:connector-curvature="0" />
        </g>
        <g
           id="g512"
           transform="translate(229.6556,212.8631)">
          <path
             d="m 0,0 c -0.182,0 -0.314,0.021 -0.527,0.104 -0.01,0.121 -0.034,0.302 -0.057,0.451 l 0.119,0.019 c 0.074,-0.252 0.242,-0.386 0.483,-0.386 0.224,0 0.375,0.117 0.375,0.294 0,0.139 -0.098,0.237 -0.239,0.325 l -0.33,0.211 c -0.226,0.144 -0.357,0.293 -0.357,0.57 0,0.35 0.267,0.574 0.679,0.574 0.202,0 0.37,-0.037 0.514,-0.109 C 0.658,1.975 0.658,1.951 0.658,1.852 c 0,-0.112 0,-0.143 0.002,-0.233 H 0.543 C 0.498,1.846 0.357,1.973 0.141,1.973 -0.055,1.973 -0.195,1.85 -0.195,1.678 -0.195,1.525 -0.09,1.43 0.074,1.322 L 0.342,1.148 C 0.596,0.982 0.74,0.822 0.74,0.572 0.74,0.23 0.438,0 0,0"
             style="fill:#000000;fill-opacity:1;fill-rule:nonzero;stroke:none"
             id="path514"
             inkscape:connector-curvature="0" />
        </g>
        <g
           id="g516"
           transform="translate(232.1752,212.9471)">
          <path
             d="m 0,0 c -0.027,-0.051 -0.059,-0.059 -0.229,-0.059 -0.107,0 -0.212,0.006 -0.318,0.008 -0.152,0.008 -0.301,0.012 -0.451,0.012 -0.152,0 -0.303,-0.004 -0.451,-0.012 v 0.092 c 0.138,0.01 0.201,0.092 0.215,0.23 0.009,0.096 0.009,0.194 0.009,0.358 v 0.885 c 0,0.168 -0.009,0.242 -0.033,0.308 -0.029,0.082 -0.084,0.119 -0.191,0.131 V 2.041 H 0.018 C 0.018,1.951 0.016,1.855 0.016,1.766 0.016,1.691 0.01,1.619 0.018,1.543 H -0.096 C -0.115,1.785 -0.221,1.85 -0.594,1.85 -0.662,1.85 -0.754,1.848 -0.828,1.844 -0.836,1.721 -0.838,1.682 -0.838,1.498 V 1.137 c 0.047,-0.004 0.084,-0.004 0.139,-0.004 0.328,0 0.428,0.047 0.447,0.219 h 0.111 C -0.145,1.301 -0.145,1.197 -0.145,1.039 c 0,-0.158 0.002,-0.252 0.004,-0.305 H -0.252 C -0.26,0.916 -0.348,0.957 -0.67,0.957 h -0.168 c 0,-0.199 0.002,-0.396 0.002,-0.596 0,-0.131 0.022,-0.175 0.098,-0.195 0.047,-0.012 0.119,-0.014 0.215,-0.014 0.339,0 0.459,0.075 0.533,0.332 L 0.131,0.461 C 0.086,0.24 0.035,0.057 0,0"
             style="fill:#000000;fill-opacity:1;fill-rule:nonzero;stroke:none"
             id="path518"
             inkscape:connector-curvature="0" />
        </g>
        <g
           id="g520"
           transform="translate(195.1351,218.2693)">
          <path
             d="m 0,0 c -0.027,-0.037 -0.073,-0.049 -0.184,-0.049 -0.149,0 -0.296,0.008 -0.446,0.012 -0.127,0.002 -0.225,0.006 -0.294,0.006 -0.09,0 -0.313,-0.004 -0.379,-0.006 l -0.042,-0.004 0.013,0.066 c 0.092,0.008 0.146,0.036 0.188,0.094 0.05,0.061 0.081,0.147 0.123,0.319 0.041,0.167 0.058,0.267 0.123,0.582 l 0.048,0.242 c 0.048,0.244 0.068,0.388 0.068,0.467 0,0.134 -0.049,0.189 -0.181,0.203 L -0.951,2 c 0.019,-0.002 0.034,-0.002 0.042,-0.002 0.115,0 0.223,-0.004 0.338,-0.004 0.176,0 0.292,0.004 0.344,0.004 0.01,0 0.028,0 0.049,0.002 L -0.19,1.932 C -0.285,1.926 -0.336,1.902 -0.383,1.842 -0.459,1.742 -0.502,1.611 -0.614,1.02 L -0.654,0.816 C -0.703,0.564 -0.722,0.479 -0.736,0.365 -0.742,0.33 -0.746,0.291 -0.746,0.271 c 0,-0.119 0.06,-0.156 0.257,-0.156 0.343,0 0.472,0.071 0.587,0.323 L 0.181,0.406 C 0.106,0.205 0.036,0.049 0,0"
             style="fill:#000000;fill-opacity:1;fill-rule:nonzero;stroke:none"
             id="path522"
             inkscape:connector-curvature="0" />
        </g>
        <g
           id="g524"
           transform="translate(195.7093,218.1951)">
          <path
             d="m 0,0 c -0.062,0 -0.102,0.033 -0.102,0.09 0,0.027 0.009,0.076 0.026,0.142 0.039,0.163 0.094,0.383 0.124,0.498 0.044,0.161 0.06,0.27 0.06,0.313 0,0.039 -0.016,0.059 -0.05,0.059 -0.028,0 -0.055,-0.01 -0.12,-0.03 L -0.083,1.066 -0.093,1.152 C 0.076,1.217 0.241,1.258 0.323,1.258 0.369,1.258 0.389,1.24 0.389,1.203 0.389,1.168 0.372,1.07 0.318,0.857 L 0.271,0.676 C 0.195,0.379 0.176,0.275 0.176,0.227 c 0,-0.045 0.025,-0.073 0.071,-0.073 0.027,0 0.082,0.012 0.169,0.041 L 0.421,0.111 C 0.26,0.045 0.084,0 0,0 m 0.333,1.563 c -0.095,0 -0.157,0.06 -0.157,0.148 0,0.109 0.08,0.185 0.19,0.185 0.092,0 0.149,-0.054 0.149,-0.142 0,-0.111 -0.077,-0.191 -0.182,-0.191"
             style="fill:#000000;fill-opacity:1;fill-rule:nonzero;stroke:none"
             id="path526"
             inkscape:connector-curvature="0" />
        </g>
        <g
           id="g528"
           transform="translate(197.389,219.3201)">
          <path
             d="m 0,0 c -0.056,0 -0.124,-0.021 -0.208,-0.068 -0.088,-0.045 -0.154,-0.094 -0.188,-0.141 -0.041,-0.053 -0.072,-0.148 -0.119,-0.35 -0.045,-0.189 -0.067,-0.308 -0.067,-0.353 0,-0.057 0.067,-0.09 0.188,-0.09 0.127,0 0.235,0.059 0.313,0.172 0.123,0.174 0.215,0.451 0.215,0.65 C 0.134,-0.064 0.087,0 0,0 m 0.001,-0.98 c -0.117,-0.106 -0.259,-0.147 -0.475,-0.147 -0.239,0 -0.381,0.039 -0.381,0.102 0,0.023 0.001,0.054 0.033,0.183 l 0.157,0.692 c 0.053,0.222 0.093,0.4 0.148,0.654 0.03,0.146 0.043,0.225 0.043,0.266 0,0.037 -0.019,0.056 -0.052,0.056 -0.021,0 -0.09,-0.013 -0.135,-0.029 l -0.004,0.088 0.037,0.013 c 0.166,0.053 0.303,0.084 0.367,0.084 0.041,0 0.065,-0.017 0.065,-0.05 0,-0.034 -0.016,-0.11 -0.069,-0.336 L -0.356,0.189 c -0.03,-0.13 -0.04,-0.179 -0.049,-0.222 0.193,0.111 0.361,0.166 0.513,0.166 0.188,0 0.28,-0.096 0.28,-0.289 0,-0.283 -0.163,-0.631 -0.387,-0.824"
             style="fill:#000000;fill-opacity:1;fill-rule:nonzero;stroke:none"
             id="path530"
             inkscape:connector-curvature="0" />
        </g>
        <g
           id="g532"
           transform="translate(198.7572,219.3299)">
          <path
             d="m 0,0 c -0.146,0 -0.303,-0.203 -0.379,-0.498 h 0.031 c 0.283,0 0.498,0.148 0.498,0.346 C 0.15,-0.068 0.083,0 0,0 m -0.315,-0.611 c -0.022,0 -0.049,0 -0.089,0.002 -0.008,-0.055 -0.012,-0.1 -0.012,-0.147 0,-0.156 0.055,-0.238 0.162,-0.238 0.097,0 0.221,0.053 0.4,0.166 L 0.18,-0.932 c -0.227,-0.14 -0.399,-0.205 -0.553,-0.205 -0.19,0 -0.294,0.114 -0.294,0.317 0,0.506 0.343,0.943 0.735,0.943 0.195,0 0.308,-0.09 0.308,-0.242 0,-0.281 -0.3,-0.492 -0.691,-0.492"
             style="fill:#000000;fill-opacity:1;fill-rule:nonzero;stroke:none"
             id="path534"
             inkscape:connector-curvature="0" />
        </g>
        <g
           id="g536"
           transform="translate(200.3587,219.0584)">
          <path
             d="m 0,0 -0.1,0.008 c 0.004,0.037 0.007,0.08 0.007,0.119 0,0.055 -0.05,0.096 -0.126,0.096 -0.045,0 -0.09,-0.03 -0.131,-0.075 -0.116,-0.13 -0.162,-0.337 -0.228,-0.677 l -0.057,-0.297 c -0.119,-0.006 -0.149,-0.01 -0.265,-0.024 0.028,0.116 0.049,0.207 0.074,0.311 l 0.068,0.285 c 0.045,0.191 0.066,0.311 0.066,0.375 0,0.076 -0.018,0.109 -0.054,0.109 -0.018,0 -0.047,-0.005 -0.078,-0.013 l -0.075,-0.026 -0.01,0.092 c 0.151,0.061 0.322,0.112 0.397,0.112 0.032,0 0.05,-0.014 0.057,-0.045 0.008,-0.036 0.014,-0.079 0.017,-0.131 0.137,0.113 0.259,0.177 0.345,0.177 0.058,0 0.133,-0.031 0.202,-0.082 C 0.059,0.203 0.022,0.102 0,0"
             style="fill:#000000;fill-opacity:1;fill-rule:nonzero;stroke:none"
             id="path538"
             inkscape:connector-curvature="0" />
        </g>
        <g
           id="g540"
           transform="translate(201.3939,219.2654)">
          <path
             d="m 0,0 -0.255,0.006 -0.126,-0.627 c -0.035,-0.162 -0.039,-0.207 -0.039,-0.231 0,-0.044 0.022,-0.068 0.062,-0.068 0.021,0 0.067,0.012 0.139,0.033 l 0.031,0.01 0.01,-0.088 c -0.159,-0.066 -0.324,-0.107 -0.412,-0.107 -0.064,0 -0.105,0.029 -0.105,0.088 0,0.052 0.013,0.127 0.038,0.222 0.026,0.108 0.049,0.198 0.073,0.315 l 0.096,0.453 -0.164,-0.004 0.021,0.1 c 0.209,0.035 0.278,0.201 0.337,0.377 L -0.147,0.51 -0.223,0.15 0.029,0.152 Z"
             style="fill:#000000;fill-opacity:1;fill-rule:nonzero;stroke:none"
             id="path542"
             inkscape:connector-curvature="0" />
        </g>
        <g
           id="g544"
           transform="translate(202.307,219.3299)">
          <path
             d="m 0,0 c -0.147,0 -0.303,-0.203 -0.379,-0.498 h 0.029 c 0.284,0 0.498,0.148 0.498,0.346 C 0.148,-0.068 0.081,0 0,0 m -0.317,-0.611 c -0.018,0 -0.048,0 -0.086,0.002 -0.01,-0.055 -0.014,-0.1 -0.014,-0.147 0,-0.156 0.057,-0.238 0.164,-0.238 0.098,0 0.219,0.053 0.399,0.166 l 0.035,-0.104 c -0.225,-0.14 -0.397,-0.205 -0.555,-0.205 -0.189,0 -0.291,0.114 -0.291,0.317 0,0.506 0.34,0.943 0.735,0.943 0.195,0 0.305,-0.09 0.305,-0.242 0,-0.281 -0.3,-0.492 -0.692,-0.492 m 0.34,0.922 -0.097,0.08 0.372,0.423 0.275,-0.066 z"
             style="fill:#000000;fill-opacity:1;fill-rule:nonzero;stroke:none"
             id="path546"
             inkscape:connector-curvature="0" />
        </g>
        <g
           id="g548"
           transform="translate(208.1595,219.824)">
          <path
             d="m 0,0 h -0.088 c 0.004,0.033 0.006,0.045 0.006,0.066 0,0.168 -0.109,0.227 -0.414,0.227 -0.103,0 -0.199,0 -0.301,-0.01 -0.062,-0.252 -0.105,-0.474 -0.158,-0.748 h 0.113 c 0.196,0 0.278,0.004 0.348,0.016 0.113,0.021 0.18,0.09 0.215,0.211 h 0.082 c -0.043,-0.18 -0.096,-0.438 -0.117,-0.594 h -0.082 c 0.003,0.023 0.005,0.041 0.005,0.053 0,0.133 -0.082,0.174 -0.332,0.174 -0.15,0 -0.205,-0.002 -0.259,-0.006 -0.016,-0.077 0,-0.008 -0.071,-0.36 C -1.086,-1.143 -1.1,-1.25 -1.1,-1.305 c 0,-0.105 0.057,-0.134 0.26,-0.134 0.387,0 0.504,0.062 0.623,0.324 l 0.076,-0.031 c -0.067,-0.2 -0.138,-0.364 -0.182,-0.415 -0.031,-0.035 -0.07,-0.043 -0.198,-0.043 -0.108,0 -0.218,0.002 -0.325,0.006 -0.138,0.002 -0.283,0.006 -0.425,0.006 -0.144,0 -0.283,-0.004 -0.427,-0.004 l 0.013,0.067 c 0.09,0.008 0.144,0.035 0.187,0.093 0.051,0.061 0.082,0.147 0.125,0.319 0.039,0.17 0.051,0.24 0.121,0.582 l 0.049,0.242 c 0.049,0.238 0.068,0.389 0.068,0.467 0,0.135 -0.051,0.189 -0.181,0.203 l 0.013,0.068 H 0.086 C 0.053,0.309 0.021,0.143 0,0 m -0.58,0.65 -0.097,0.079 0.372,0.423 0.277,-0.068 z"
             style="fill:#000000;fill-opacity:1;fill-rule:nonzero;stroke:none"
             id="path550"
             inkscape:connector-curvature="0" />
        </g>
        <g
           id="g552"
           transform="translate(209.1322,218.0974)">
          <path
             d="m 0,0 c -0.104,0.039 -0.229,0.084 -0.358,0.119 -0.21,-0.051 -0.357,-0.207 -0.357,-0.385 0,-0.164 0.142,-0.275 0.36,-0.275 0.266,0 0.511,0.182 0.511,0.377 C 0.156,-0.092 0.11,-0.043 0,0 m -0.046,1.238 c -0.165,0 -0.3,-0.175 -0.3,-0.383 0,-0.142 0.084,-0.24 0.203,-0.24 0.161,0 0.291,0.168 0.291,0.375 0,0.153 -0.076,0.248 -0.194,0.248 M 0.538,1.17 0.33,1.174 C 0.365,1.109 0.378,1.061 0.378,0.99 c 0,-0.281 -0.235,-0.498 -0.54,-0.498 -0.06,0 -0.1,0.006 -0.165,0.026 -0.075,-0.047 -0.101,-0.069 -0.101,-0.096 0,-0.033 0.033,-0.049 0.168,-0.092 l 0.242,-0.076 c 0.247,-0.076 0.367,-0.149 0.367,-0.326 0,-0.324 -0.323,-0.578 -0.732,-0.578 -0.335,0 -0.541,0.158 -0.541,0.418 0,0.238 0.154,0.351 0.404,0.416 -0.154,0.054 -0.187,0.08 -0.187,0.132 0,0.067 0.089,0.149 0.273,0.25 -0.095,0.067 -0.139,0.155 -0.139,0.278 0,0.291 0.231,0.511 0.536,0.511 0.08,0 0.137,-0.009 0.205,-0.035 h 0.404 z"
             style="fill:#000000;fill-opacity:1;fill-rule:nonzero;stroke:none"
             id="path554"
             inkscape:connector-curvature="0" />
        </g>
        <g
           id="g556"
           transform="translate(210.6752,219.324)">
          <path
             d="m 0,0 c -0.119,0 -0.242,-0.092 -0.346,-0.264 -0.117,-0.185 -0.199,-0.433 -0.199,-0.595 0,-0.096 0.045,-0.147 0.123,-0.147 0.113,0 0.311,0.1 0.389,0.178 0.043,0.043 0.064,0.103 0.096,0.219 0.048,0.187 0.094,0.361 0.123,0.562 C 0.117,-0.016 0.054,0 0,0 m 0.143,-1.131 c -0.055,0 -0.075,0.033 -0.102,0.184 -0.226,-0.129 -0.391,-0.188 -0.553,-0.188 -0.182,0 -0.291,0.096 -0.291,0.264 0,0.162 0.08,0.391 0.203,0.58 0.164,0.256 0.37,0.42 0.682,0.42 0.137,0 0.262,-0.025 0.395,-0.061 L 0.459,0.02 C 0.35,-0.332 0.271,-0.719 0.271,-0.85 c 0,-0.084 0.018,-0.129 0.055,-0.129 0.024,0 0.088,0.018 0.163,0.045 L 0.501,-1.027 C 0.344,-1.086 0.193,-1.131 0.143,-1.131"
             style="fill:#000000;fill-opacity:1;fill-rule:nonzero;stroke:none"
             id="path558"
             inkscape:connector-curvature="0" />
        </g>
        <g
           id="g560"
           transform="translate(212.1703,219.992)">
          <path
             d="m 0,0 c -0.099,-0.408 -0.2,-0.861 -0.298,-1.291 -0.031,-0.141 -0.047,-0.232 -0.047,-0.279 0,-0.045 0.023,-0.069 0.067,-0.069 0.03,0 0.086,0.014 0.17,0.037 l 0.004,-0.084 c -0.156,-0.062 -0.344,-0.113 -0.426,-0.113 -0.058,0 -0.094,0.033 -0.094,0.092 0,0.043 0.012,0.098 0.057,0.289 0.093,0.404 0.199,0.834 0.281,1.221 0.036,0.177 0.055,0.265 0.055,0.295 0,0.037 -0.019,0.054 -0.051,0.054 -0.031,0 -0.086,-0.011 -0.135,-0.031 l -0.007,0.092 c 0.155,0.057 0.325,0.098 0.413,0.098 0.042,0 0.065,-0.018 0.065,-0.051 C 0.054,0.229 0.04,0.158 0,0"
             style="fill:#000000;fill-opacity:1;fill-rule:nonzero;stroke:none"
             id="path562"
             inkscape:connector-curvature="0" />
        </g>
        <g
           id="g564"
           transform="translate(212.597,218.1951)">
          <path
             d="m 0,0 c -0.063,0 -0.103,0.033 -0.103,0.09 0,0.027 0.01,0.076 0.025,0.142 0.041,0.163 0.094,0.383 0.126,0.498 0.042,0.161 0.059,0.27 0.059,0.313 0,0.039 -0.017,0.059 -0.051,0.059 -0.027,0 -0.055,-0.01 -0.119,-0.03 L -0.084,1.066 -0.093,1.152 C 0.073,1.217 0.238,1.258 0.322,1.258 0.368,1.258 0.386,1.24 0.386,1.203 0.386,1.168 0.371,1.07 0.315,0.857 L 0.271,0.676 C 0.193,0.379 0.175,0.275 0.175,0.227 c 0,-0.045 0.024,-0.073 0.07,-0.073 0.027,0 0.083,0.012 0.169,0.041 L 0.42,0.111 C 0.258,0.045 0.082,0 0,0 m 0.332,1.563 c -0.096,0 -0.157,0.06 -0.157,0.148 0,0.109 0.081,0.185 0.19,0.185 0.092,0 0.15,-0.054 0.15,-0.142 0,-0.111 -0.078,-0.191 -0.183,-0.191"
             style="fill:#000000;fill-opacity:1;fill-rule:nonzero;stroke:none"
             id="path566"
             inkscape:connector-curvature="0" />
        </g>
        <g
           id="g568"
           transform="translate(214.1312,219.2654)">
          <path
             d="m 0,0 -0.254,0.006 -0.129,-0.627 c -0.032,-0.162 -0.035,-0.207 -0.035,-0.231 0,-0.044 0.02,-0.068 0.061,-0.068 0.021,0 0.066,0.012 0.14,0.033 l 0.029,0.01 0.01,-0.088 c -0.158,-0.066 -0.323,-0.107 -0.412,-0.107 -0.064,0 -0.103,0.029 -0.103,0.088 0,0.052 0.01,0.127 0.035,0.222 0.028,0.108 0.05,0.198 0.072,0.315 l 0.097,0.453 -0.162,-0.004 0.021,0.1 c 0.208,0.035 0.278,0.201 0.337,0.377 L -0.147,0.51 -0.225,0.15 0.031,0.152 Z"
             style="fill:#000000;fill-opacity:1;fill-rule:nonzero;stroke:none"
             id="path570"
             inkscape:connector-curvature="0" />
        </g>
        <g
           id="g572"
           transform="translate(215.0443,219.3299)">
          <path
             d="m 0,0 c -0.148,0 -0.303,-0.203 -0.378,-0.498 h 0.031 c 0.282,0 0.496,0.148 0.496,0.346 C 0.149,-0.068 0.083,0 0,0 m -0.315,-0.611 c -0.022,0 -0.049,0 -0.089,0.002 -0.009,-0.055 -0.011,-0.1 -0.011,-0.147 0,-0.156 0.054,-0.238 0.162,-0.238 0.097,0 0.22,0.053 0.399,0.166 l 0.035,-0.104 c -0.227,-0.14 -0.398,-0.205 -0.553,-0.205 -0.191,0 -0.293,0.114 -0.293,0.317 0,0.506 0.342,0.943 0.734,0.943 0.193,0 0.308,-0.09 0.308,-0.242 0,-0.281 -0.301,-0.492 -0.692,-0.492 M 0.024,0.311 -0.072,0.391 0.3,0.814 0.575,0.748 Z"
             style="fill:#000000;fill-opacity:1;fill-rule:nonzero;stroke:none"
             id="path574"
             inkscape:connector-curvature="0" />
        </g>
        <g
           id="g576"
           transform="translate(220.8568,219.826)">
          <path
             d="m 0,0 h -0.089 c 0.003,0.031 0.007,0.055 0.007,0.07 0,0.061 -0.022,0.11 -0.059,0.147 -0.058,0.054 -0.166,0.076 -0.397,0.076 -0.064,0 -0.15,-0.002 -0.226,-0.006 -0.054,-0.25 -0.103,-0.494 -0.158,-0.754 0.057,0 0.115,-0.002 0.172,-0.002 0.342,0 0.406,0.03 0.472,0.229 h 0.083 c -0.049,-0.199 -0.088,-0.393 -0.117,-0.596 h -0.086 c 0.003,0.022 0.007,0.039 0.007,0.051 0,0.053 -0.021,0.101 -0.058,0.129 -0.052,0.041 -0.114,0.049 -0.297,0.049 -0.098,0 -0.125,-0.002 -0.204,-0.006 l -0.04,-0.203 c -0.058,-0.295 -0.079,-0.432 -0.079,-0.518 0,-0.125 0.053,-0.184 0.179,-0.197 l -0.01,-0.067 -0.05,0.004 c -0.025,0 -0.159,0.002 -0.275,0.002 -0.122,0 -0.347,0 -0.389,-0.002 l -0.052,-0.004 0.012,0.067 c 0.092,0.008 0.148,0.035 0.189,0.093 0.051,0.061 0.083,0.147 0.123,0.319 0.043,0.174 0.059,0.265 0.123,0.582 l 0.049,0.242 c 0.048,0.242 0.066,0.389 0.066,0.467 0,0.135 -0.048,0.189 -0.179,0.203 l 0.011,0.068 H 0.086 C 0.055,0.307 0.023,0.146 0,0"
             style="fill:#000000;fill-opacity:1;fill-rule:nonzero;stroke:none"
             id="path578"
             inkscape:connector-curvature="0" />
        </g>
        <g
           id="g580"
           transform="translate(221.8978,219.0584)">
          <path
             d="m 0,0 -0.102,0.008 c 0.006,0.037 0.01,0.08 0.01,0.119 0,0.055 -0.049,0.096 -0.125,0.096 -0.046,0 -0.094,-0.03 -0.131,-0.075 -0.117,-0.13 -0.164,-0.337 -0.23,-0.677 l -0.059,-0.297 c -0.115,-0.006 -0.146,-0.01 -0.263,-0.024 0.03,0.116 0.05,0.207 0.074,0.311 l 0.068,0.285 c 0.045,0.191 0.067,0.311 0.067,0.375 0,0.076 -0.018,0.109 -0.053,0.109 -0.02,0 -0.047,-0.005 -0.078,-0.013 L -0.898,0.191 -0.907,0.283 c 0.149,0.061 0.319,0.112 0.395,0.112 0.032,0 0.051,-0.014 0.057,-0.045 0.008,-0.036 0.016,-0.079 0.019,-0.131 0.137,0.113 0.258,0.177 0.344,0.177 0.059,0 0.131,-0.031 0.201,-0.082 C 0.063,0.203 0.023,0.102 0,0"
             style="fill:#000000;fill-opacity:1;fill-rule:nonzero;stroke:none"
             id="path582"
             inkscape:connector-curvature="0" />
        </g>
        <g
           id="g584"
           transform="translate(222.9613,219.324)">
          <path
             d="m 0,0 c -0.122,0 -0.244,-0.092 -0.349,-0.264 -0.115,-0.185 -0.197,-0.433 -0.197,-0.595 0,-0.096 0.045,-0.147 0.123,-0.147 0.111,0 0.313,0.1 0.387,0.178 0.042,0.043 0.066,0.103 0.099,0.219 0.048,0.187 0.094,0.361 0.121,0.562 C 0.116,-0.016 0.053,0 0,0 m 0.142,-1.131 c -0.055,0 -0.074,0.033 -0.1,0.184 -0.227,-0.129 -0.394,-0.188 -0.554,-0.188 -0.184,0 -0.293,0.096 -0.293,0.264 0,0.162 0.081,0.391 0.205,0.58 0.162,0.256 0.369,0.42 0.68,0.42 0.138,0 0.262,-0.025 0.394,-0.061 L 0.459,0.02 C 0.348,-0.332 0.271,-0.719 0.271,-0.85 c 0,-0.084 0.016,-0.129 0.054,-0.129 0.023,0 0.087,0.018 0.165,0.045 L 0.499,-1.027 C 0.342,-1.086 0.194,-1.131 0.142,-1.131"
             style="fill:#000000;fill-opacity:1;fill-rule:nonzero;stroke:none"
             id="path586"
             inkscape:connector-curvature="0" />
        </g>
        <g
           id="g588"
           transform="translate(224.5589,219.2654)">
          <path
             d="M 0,0 -0.252,0.006 -0.38,-0.621 c -0.035,-0.162 -0.037,-0.207 -0.037,-0.231 0,-0.044 0.021,-0.068 0.06,-0.068 0.022,0 0.068,0.012 0.14,0.033 l 0.031,0.01 0.009,-0.088 c -0.158,-0.066 -0.323,-0.107 -0.412,-0.107 -0.065,0 -0.104,0.029 -0.104,0.088 0,0.052 0.012,0.127 0.037,0.222 0.027,0.108 0.049,0.198 0.072,0.315 l 0.096,0.453 -0.162,-0.004 0.021,0.1 c 0.209,0.035 0.279,0.201 0.336,0.377 L -0.145,0.51 -0.223,0.15 0.032,0.152 Z"
             style="fill:#000000;fill-opacity:1;fill-rule:nonzero;stroke:none"
             id="path590"
             inkscape:connector-curvature="0" />
        </g>
        <g
           id="g592"
           transform="translate(225.472,219.3299)">
          <path
             d="m 0,0 c -0.146,0 -0.301,-0.203 -0.379,-0.498 h 0.031 c 0.284,0 0.498,0.148 0.498,0.346 C 0.15,-0.068 0.084,0 0,0 m -0.314,-0.611 c -0.022,0 -0.049,0 -0.088,0.002 -0.01,-0.055 -0.014,-0.1 -0.014,-0.147 0,-0.156 0.057,-0.238 0.164,-0.238 0.096,0 0.219,0.053 0.4,0.166 l 0.034,-0.104 c -0.229,-0.14 -0.399,-0.205 -0.555,-0.205 -0.19,0 -0.293,0.114 -0.293,0.317 0,0.506 0.342,0.943 0.736,0.943 0.194,0 0.307,-0.09 0.307,-0.242 0,-0.281 -0.301,-0.492 -0.691,-0.492"
             style="fill:#000000;fill-opacity:1;fill-rule:nonzero;stroke:none"
             id="path594"
             inkscape:connector-curvature="0" />
        </g>
        <g
           id="g596"
           transform="translate(227.0736,219.0584)">
          <path
             d="m 0,0 -0.102,0.008 c 0.006,0.037 0.01,0.08 0.01,0.119 0,0.055 -0.049,0.096 -0.125,0.096 -0.047,0 -0.092,-0.03 -0.133,-0.075 -0.115,-0.13 -0.162,-0.337 -0.226,-0.677 l -0.061,-0.297 c -0.115,-0.006 -0.146,-0.01 -0.265,-0.024 0.031,0.116 0.052,0.207 0.076,0.311 l 0.068,0.285 c 0.045,0.191 0.067,0.311 0.067,0.375 0,0.076 -0.018,0.109 -0.055,0.109 -0.018,0 -0.045,-0.005 -0.076,-0.013 l -0.076,-0.026 -0.01,0.092 c 0.15,0.061 0.32,0.112 0.396,0.112 0.033,0 0.051,-0.014 0.057,-0.045 0.01,-0.036 0.016,-0.079 0.017,-0.131 0.139,0.113 0.26,0.177 0.346,0.177 0.059,0 0.131,-0.031 0.201,-0.082 C 0.063,0.203 0.023,0.102 0,0"
             style="fill:#000000;fill-opacity:1;fill-rule:nonzero;stroke:none"
             id="path598"
             inkscape:connector-curvature="0" />
        </g>
        <g
           id="g600"
           transform="translate(228.2923,218.1932)">
          <path
             d="m 0,0 c -0.063,0 -0.098,0.035 -0.098,0.092 0,0.035 0.014,0.103 0.049,0.256 l 0.029,0.129 c 0.092,0.382 0.116,0.509 0.116,0.562 0,0.045 -0.024,0.07 -0.065,0.07 -0.052,0 -0.136,-0.031 -0.23,-0.086 C -0.297,0.967 -0.371,0.904 -0.406,0.848 -0.436,0.803 -0.455,0.725 -0.492,0.563 -0.541,0.34 -0.572,0.186 -0.596,0.041 -0.715,0.033 -0.746,0.029 -0.865,0.016 c 0.062,0.228 0.107,0.418 0.152,0.629 0.047,0.207 0.065,0.304 0.065,0.359 0,0.07 -0.022,0.105 -0.067,0.105 -0.027,0 -0.076,-0.013 -0.15,-0.037 l -0.006,0.086 c 0.146,0.057 0.305,0.102 0.379,0.102 0.066,0 0.088,-0.041 0.088,-0.186 V 1.051 c 0.232,0.131 0.47,0.209 0.636,0.209 0.1,0 0.139,-0.026 0.139,-0.086 C 0.371,1.109 0.354,1.008 0.289,0.76 0.254,0.619 0.219,0.471 0.207,0.402 0.189,0.314 0.18,0.26 0.18,0.225 0.18,0.18 0.205,0.156 0.248,0.156 c 0.027,0 0.084,0.012 0.158,0.039 L 0.414,0.107 C 0.254,0.047 0.07,0 0,0"
             style="fill:#000000;fill-opacity:1;fill-rule:nonzero;stroke:none"
             id="path602"
             inkscape:connector-curvature="0" />
        </g>
        <g
           id="g604"
           transform="translate(229.2455,218.1951)">
          <path
             d="m 0,0 c -0.061,0 -0.1,0.033 -0.1,0.09 0,0.027 0.008,0.076 0.024,0.142 0.039,0.163 0.094,0.383 0.125,0.498 0.041,0.161 0.062,0.27 0.062,0.313 0,0.039 -0.021,0.059 -0.054,0.059 -0.026,0 -0.055,-0.01 -0.118,-0.03 L -0.084,1.066 -0.092,1.152 C 0.076,1.217 0.242,1.258 0.324,1.258 0.369,1.258 0.389,1.24 0.389,1.203 0.389,1.168 0.373,1.07 0.316,0.857 L 0.271,0.676 C 0.195,0.379 0.176,0.275 0.176,0.227 c 0,-0.045 0.025,-0.073 0.072,-0.073 0.027,0 0.082,0.012 0.168,0.041 L 0.422,0.111 C 0.26,0.045 0.084,0 0,0 m 0.332,1.563 c -0.094,0 -0.156,0.06 -0.156,0.148 0,0.109 0.08,0.185 0.189,0.185 0.092,0 0.151,-0.054 0.151,-0.142 0,-0.111 -0.077,-0.191 -0.184,-0.191"
             style="fill:#000000;fill-opacity:1;fill-rule:nonzero;stroke:none"
             id="path606"
             inkscape:connector-curvature="0" />
        </g>
        <g
           id="g608"
           transform="translate(230.7806,219.2654)">
          <path
             d="m 0,0 -0.254,0.006 -0.127,-0.627 c -0.033,-0.162 -0.037,-0.207 -0.037,-0.231 0,-0.044 0.022,-0.068 0.061,-0.068 0.021,0 0.066,0.012 0.142,0.033 l 0.029,0.01 0.01,-0.088 c -0.16,-0.066 -0.324,-0.107 -0.412,-0.107 -0.064,0 -0.105,0.029 -0.105,0.088 0,0.052 0.011,0.127 0.037,0.222 0.027,0.108 0.049,0.198 0.074,0.315 l 0.094,0.453 -0.164,-0.004 0.023,0.1 c 0.207,0.035 0.277,0.201 0.336,0.377 L -0.146,0.51 -0.223,0.15 0.033,0.152 Z"
             style="fill:#000000;fill-opacity:1;fill-rule:nonzero;stroke:none"
             id="path610"
             inkscape:connector-curvature="0" />
        </g>
        <g
           id="g612"
           transform="translate(231.6908,219.3299)">
          <path
             d="m 0,0 c -0.145,0 -0.301,-0.203 -0.377,-0.498 h 0.033 c 0.281,0 0.496,0.148 0.496,0.346 C 0.152,-0.068 0.084,0 0,0 m -0.313,-0.611 c -0.019,0 -0.046,0 -0.087,0.002 -0.008,-0.055 -0.012,-0.1 -0.012,-0.147 0,-0.156 0.053,-0.238 0.16,-0.238 0.098,0 0.221,0.053 0.4,0.166 l 0.034,-0.104 c -0.223,-0.14 -0.397,-0.205 -0.551,-0.205 -0.19,0 -0.295,0.114 -0.295,0.317 0,0.506 0.344,0.943 0.738,0.943 0.192,0 0.303,-0.09 0.303,-0.242 0,-0.281 -0.297,-0.492 -0.69,-0.492 m 0.342,0.922 -0.097,0.08 0.373,0.423 0.273,-0.066 z"
             style="fill:#000000;fill-opacity:1;fill-rule:nonzero;stroke:none"
             id="path614"
             inkscape:connector-curvature="0" />
        </g>
        <g
           id="g616"
           transform="translate(217.3939,218.7615)">
          <path
             d="M 0,0 C 0.206,0 0.371,0.166 0.371,0.371 0.371,0.576 0.206,0.742 0,0.742 -0.203,0.742 -0.371,0.576 -0.371,0.371 -0.371,0.166 -0.203,0 0,0"
             style="fill:#000000;fill-opacity:1;fill-rule:nonzero;stroke:none"
             id="path618"
             inkscape:connector-curvature="0" />
        </g>
        <g
           id="g620"
           transform="translate(204.6664,218.7615)">
          <path
             d="M 0,0 C 0.203,0 0.368,0.166 0.368,0.371 0.368,0.576 0.203,0.742 0,0.742 -0.206,0.742 -0.371,0.576 -0.371,0.371 -0.371,0.166 -0.206,0 0,0"
             style="fill:#000000;fill-opacity:1;fill-rule:nonzero;stroke:none"
             id="path622"
             inkscape:connector-curvature="0" />
        </g>
        <path
           d="m 193.989,216.746 h 38.101 v 0.199 h -38.101 z"
           style="fill:#000000;fill-opacity:1;fill-rule:nonzero;stroke:none"
           id="path624"
           inkscape:connector-curvature="0" />
        <g
           id="g626"
           transform="translate(204.6351,227.701)">
          <path
             d="m 0,0 c -0.027,0 -0.057,0 -0.086,0.027 0.029,0.03 0.029,0.061 0.029,0.09 -0.291,-0.322 -0.701,-0.467 -0.932,-0.846 -0.174,-0.291 -0.292,-0.669 -0.669,-0.757 -0.119,-0.03 0.027,0.088 -0.031,0.058 -0.902,-0.554 -1.542,-1.224 -2.242,-2.011 0,0 -0.029,0.029 -0.029,0.06 0.378,0.496 0.67,0.959 0.931,1.484 0.381,0.206 0.694,0.502 0.991,0.817 0.496,0.523 1.018,0.99 1.633,1.283 C -0.174,0.293 0.118,0.264 0.351,0.176 0.264,0.057 0.118,0.088 0,0 m -1.777,-1.721 c 0.03,0.117 0.119,0.235 0.235,0.264 0.028,0 0.028,-0.029 0.028,-0.059 -0.028,-0.058 -0.059,-0.064 -0.088,-0.117 -0.029,-0.056 -0.056,-0.088 -0.114,-0.115 -0.031,0 -0.061,0 -0.061,0.027 m 1.372,0.555 c 0.027,0 0.086,0 0.086,-0.029 0,-0.145 -0.086,-0.262 -0.234,-0.291 0.234,-0.059 0.467,-0.059 0.699,-0.176 -0.028,-0.059 -0.087,-0.027 -0.115,-0.027 0.145,-0.088 0.32,-0.032 0.465,-0.147 -0.088,-0.088 -0.174,0 -0.262,0 0.904,-0.262 1.864,-0.467 2.62,-1.047 -0.638,-0.322 -1.308,-0.469 -2.008,-0.613 -0.088,0 -0.145,0 -0.233,0.027 0,-0.027 0,-0.084 -0.029,-0.084 -0.116,0 -0.204,0 -0.292,-0.058 -0.116,-0.061 -0.292,-0.09 -0.378,0 -0.029,0.027 0.086,0 0.117,0.058 h -0.235 c -0.027,0 -0.027,0.028 -0.027,0.057 -0.147,-0.029 -0.322,-0.088 -0.466,-0.115 -0.205,-0.061 -0.38,-0.205 -0.613,-0.264 -0.321,-0.117 -0.584,-0.379 -0.931,-0.496 -0.03,0 -0.03,0.027 -0.03,0.057 0.03,0.089 0.144,0.117 0.205,0.205 0,0.027 0,0.058 -0.031,0.058 0.234,0.321 0.555,0.498 0.846,0.76 v 0.086 c 0.088,0.117 0.231,0.174 0.29,0.322 0.029,0.086 0.147,0.203 0.291,0.26 -0.027,0.029 -0.088,0.029 -0.088,0.088 -0.115,0 -0.231,-0.059 -0.347,0.027 0.056,0.059 0.124,0.084 0.192,0.104 -0.029,0.004 -0.055,0.015 -0.076,0.043 -0.031,0.058 0.056,0.123 0.144,0.146 0.118,0.029 0.263,0.029 0.351,0.117 -0.203,0.028 -0.438,-0.058 -0.642,0.057 0.147,0.379 0.378,0.701 0.731,0.875 m 0.93,-2.916 c -0.057,0 -0.174,-0.027 -0.145,0.031 0.028,0.147 0.233,0.147 0.35,0.205 0.058,0.03 0.147,0.086 0.204,0.061 0.055,-0.09 0.144,-0.061 0.204,-0.119 C 0.963,-4.082 0.73,-3.992 0.525,-4.082 M -10.707,7.215 -10.689,-5.74 h 8.768 c 0,0 0.816,0.408 1.251,0.611 0.147,0.059 0.322,-0.029 0.466,0 0.089,0 0.177,0 0.263,-0.06 -0.32,-0.172 -0.904,-0.551 -0.904,-0.551 h 1.458 c 0,0 0.465,0.232 0.699,0.349 -0.204,-0.058 -0.378,-0.146 -0.554,-0.261 -0.028,0 -0.115,-0.03 -0.115,0.027 0.028,0.061 0.115,0.088 0.173,0.146 0.03,0 0.061,0 0.061,-0.029 0.931,0.729 2.212,0.555 3.289,0.934 0.088,0.056 0.175,0.117 0.263,0.172 0.146,0.058 0.261,0.205 0.437,0.293 0.233,0.171 0.408,0.379 0.494,0.67 0,0.029 -0.027,0.06 -0.027,0.06 C 4.952,-3.785 4.517,-4.109 4.05,-4.344 3.438,-4.662 2.77,-4.605 2.129,-4.693 c 0.026,0.06 0.087,0.06 0.144,0.06 0,0.088 0.058,0.115 0.117,0.176 h 0.086 c 0.029,0 0.029,0.055 0.06,0.055 0.057,0 0.145,0.031 0.115,0.031 -0.087,0.117 -0.261,-0.086 -0.408,0 0.059,0.057 0.03,0.146 0.088,0.174 h 0.115 c 0,0.06 0.059,0.115 0.059,0.115 0.439,0.266 0.846,0.471 1.254,0.703 -0.088,0 -0.146,-0.09 -0.233,-0.031 0.056,0 0,0.088 0.056,0.088 0.323,0.088 0.584,0.261 0.905,0.379 -0.117,0 -0.205,-0.088 -0.321,0 0.059,0.029 0.088,0.088 0.175,0.088 v 0.087 c 0,0.028 0.029,0.028 0.058,0.028 -0.029,0 -0.058,0.031 -0.058,0.031 0.029,0.057 0.118,0.029 0.176,0.086 -0.03,0 -0.088,0 -0.088,0.029 0.088,0.115 0.234,0.147 0.379,0.174 -0.03,0.059 -0.118,0 -0.118,0.059 0,0.029 0.03,0.029 0.059,0.029 H 4.69 c -0.058,0.029 -0.027,0.088 -0.027,0.117 0.174,0.205 0.174,0.467 0.261,0.699 -0.028,0 -0.058,0 -0.058,0.03 C 4.575,-1.807 4.108,-1.924 3.671,-2.041 H 3.526 C 3.38,-2.098 3.177,-2.098 3.03,-2.01 c -0.117,0.057 -0.176,0.145 -0.291,0.233 -0.234,0.144 -0.466,0.261 -0.728,0.349 -0.728,0.233 -1.486,0.35 -2.242,0.321 0.319,0.175 0.672,0.189 1.019,0.289 0.495,0.148 0.959,0.322 1.485,0.293 -0.087,0.029 -0.204,0 -0.293,0 C 1.573,-0.496 1.165,-0.613 0.73,-0.699 0.438,-0.758 0.176,-0.875 -0.115,-0.932 -0.29,-0.992 -0.378,-1.166 -0.582,-1.137 v 0.086 c 0.292,0.352 0.641,0.701 1.107,0.731 0.525,0.086 1.021,0 1.544,-0.059 0.377,-0.029 0.728,-0.117 1.108,-0.203 0.144,0 0.174,-0.236 0.29,-0.264 0.177,-0.058 0.35,0 0.524,-0.117 0,0.059 -0.029,0.117 0,0.176 0.117,0.117 0.263,-0.031 0.379,0.029 0.234,0.145 -0.204,0.408 -0.32,0.612 0,0.029 0.029,0.058 0.029,0.058 C 4.313,-0.293 4.487,-0.525 4.778,-0.67 4.924,-0.729 5.274,-0.818 5.215,-0.643 5.07,-0.32 4.778,-0.059 4.546,0.234 v 0.118 c -0.059,0 -0.059,0.027 -0.087,0.056 V 0.525 C 4.341,0.584 4.37,0.701 4.313,0.787 4.225,0.934 4.282,1.137 4.225,1.313 4.166,1.486 4.138,1.633 4.108,1.807 4.021,2.303 3.905,2.74 3.847,3.207 3.788,3.76 4.166,4.197 4.429,4.693 c 0.203,0.352 0.437,0.698 0.816,0.932 0.088,0.352 0.32,0.641 0.553,0.932 0.263,0.322 1.02,0.64 1.02,0.64 z"
             style="fill:#004494;fill-opacity:1;fill-rule:nonzero;stroke:none"
             id="path628"
             inkscape:connector-curvature="0" />
        </g>
        <g
           id="g630"
           transform="translate(208.5404,222.281)">
          <path
             d="m 0,0 c 0.18,0.041 0.349,0.145 0.523,0.205 v -0.06 c 0.438,0.175 0.758,0.554 1.194,0.701 0.031,0 0.088,-0.059 0.146,-0.032 0.264,0.235 0.553,0.497 0.932,0.438 0,-0.029 0,-0.057 0.029,-0.057 0.03,0 0.059,0 0.059,0.028 C 2.767,1.137 2.65,1.049 2.534,0.963 2.506,0.932 2.534,0.902 2.562,0.902 2.708,0.963 2.795,1.076 2.941,1.137 2.913,1.105 2.913,1.049 2.883,1.018 2.33,0.613 1.523,-0.311 1.523,-0.311 h -3.961 c 0,0 1.125,0.223 1.709,0.282 0.232,0 0.467,-0.03 0.729,0.029"
             style="fill:#004494;fill-opacity:1;fill-rule:nonzero;stroke:none"
             id="path632"
             inkscape:connector-curvature="0" />
        </g>
        <g
           id="g634"
           transform="translate(220.0169,223.7635)">
          <path
             d="M 0,0 C 0.07,0.215 0.146,0.441 0.028,0.646 -0.146,0.906 0.203,0.994 0.32,1.17 0.408,1.314 0.262,1.402 0.232,1.547 0.203,1.605 0.086,1.576 0.028,1.664 0.232,1.752 0.553,1.928 0.408,2.189 0.32,2.334 0.174,2.568 0.35,2.713 0.553,2.83 0.874,2.801 0.961,3.006 1.104,3.355 0.786,3.645 0.611,3.938 0.525,4.113 0.408,4.23 0.291,4.404 0.174,4.609 0.028,4.783 -0.029,5.018 -0.117,5.25 0,5.455 0,5.688 c 0.028,0.437 -0.088,0.873 -0.203,1.31 -0.088,0.203 -0.117,0.438 -0.205,0.641 -0.03,0.115 -0.059,0.234 -0.145,0.349 -0.03,0.061 -0.03,0.147 0,0.205 0.115,0.088 0.233,0.176 0.35,0.293 0.086,0.145 0.027,0.35 -0.117,0.436 C -0.525,9.008 -0.496,8.717 -0.641,8.66 h -0.088 c -0.029,0.088 0.029,0.117 0.088,0.176 0,0.029 0,0.086 -0.03,0.086 -0.114,0 -0.232,0.029 -0.263,0.086 -0.289,0.41 -0.697,0.613 -1.134,0.789 0.115,-0.031 0.232,-0.059 0.349,-0.059 0.203,-0.029 0.436,-0.029 0.612,0.059 0.146,0.058 0.173,0.291 0.234,0.437 0.058,0.114 -0.03,0.291 -0.088,0.377 -0.146,0.233 -0.72,0.524 -0.72,0.524 l 13.894,0.017 V -1.793 H -4.126 c 0,0 0.457,1.098 0.98,1.477 0.115,0.056 0.261,0.086 0.408,0.117 0.495,0 0.99,-0.147 1.484,-0.207 0.059,0 0.119,-0.028 0.176,-0.059 0.175,-0.029 0.378,-0.029 0.553,0.031 C -0.32,-0.377 -0.088,-0.26 0,0"
             style="fill:#e2001a;fill-opacity:1;fill-rule:nonzero;stroke:none"
             id="path636"
             inkscape:connector-curvature="0" />
        </g>
        <g
           id="g638"
           transform="translate(218.9095,229.5076)">
          <path
             d="m 0,0 c -0.173,0.043 -0.32,0 -0.496,0 -0.233,-0.057 -0.436,-0.086 -0.64,-0.174 0.175,0.117 0.351,0.233 0.554,0.291 0.144,0.029 0.29,0.115 0.436,0.115 0.175,0.032 0.35,0.09 0.496,0.032 C 0.494,0.205 0.729,0.205 0.758,0.117 0.816,-0.057 0.67,-0.232 0.494,-0.348 0.467,-0.406 0.582,-0.436 0.582,-0.494 0.555,-0.553 0.467,-0.582 0.407,-0.582 0.35,-0.611 0.292,-0.699 0.234,-0.758 c 0.058,0 0,-0.086 0.058,-0.086 C 0.174,-0.99 0.35,-1.281 0.174,-1.34 c -0.201,-0.058 -0.436,-0.058 -0.67,0 0.118,0.029 0.263,-0.029 0.35,0.088 v 0.117 c 0,0.03 -0.03,0.03 -0.057,0.03 -0.03,-0.03 -0.059,-0.03 -0.059,-0.03 0,0.059 -0.058,0.115 -0.089,0.115 -0.172,-0.027 -0.32,0.059 -0.434,0.176 0.086,0.03 0.174,0.059 0.262,0.03 0.085,0 0.057,0.144 0.145,0.203 h 0.086 c 0.177,0.234 0.526,0.291 0.584,0.525 C 0.292,-0.027 0.117,-0.027 0,0"
             style="fill:#9c9e9f;fill-opacity:1;fill-rule:nonzero;stroke:none"
             id="path640"
             inkscape:connector-curvature="0" />
        </g>
      </g>
    </g>
    <text
       xml:space="preserve"
       style="font-style:normal;font-variant:normal;font-weight:bold;font-stretch:normal;font-size:12.69999981px;line-height:1.25;font-family:'DejaVu Sans';-inkscape-font-specification:'DejaVu Sans, Bold';font-variant-ligatures:normal;font-variant-caps:normal;font-variant-numeric:normal;font-feature-settings:normal;text-align:start;letter-spacing:0px;word-spacing:0px;writing-mode:lr-tb;text-anchor:start;fill:#00000f;fill-opacity:0.94117647;stroke:none;stroke-width:0.26458332"
       x="294.44095"
       y="246.88022"
       id="text4625"
       inkscape:export-xdpi="19.75498"
       inkscape:export-ydpi="19.75498"><tspan
         sodipodi:role="line"
         x="294.44095"
         y="246.88022"
         style="font-style:normal;font-variant:normal;font-weight:bold;font-stretch:normal;font-size:12.69999981px;font-family:'DejaVu Sans';-inkscape-font-specification:'DejaVu Sans, Bold';font-variant-ligatures:normal;font-variant-caps:normal;font-variant-numeric:normal;font-feature-settings:normal;text-align:start;writing-mode:lr-tb;text-anchor:start;fill:#00000f;fill-opacity:0.94117647;stroke-width:0.26458332"
         id="tspan4631">Région académique</tspan></text>
  </g>
  <g
     inkscape:groupmode="layer"
     id="layer2"
     inkscape:label="Calque 2"
     transform="translate(0,52.916667)" />
</svg>
