<?xml version="1.0" encoding="utf-8"?>
<!-- Generator: Adobe Illustrator 24.1.1, SVG Export Plug-In . SVG Version: 6.00 Build 0)  -->
<svg version="1.1" id="schelp" xmlns="http://www.w3.org/2000/svg" xmlns:xlink="http://www.w3.org/1999/xlink" x="0px" y="0px"
	 viewBox="0 0 665.9 665.9" style="enable-background:new 0 0 665.9 665.9;" xml:space="preserve">
<style type="text/css">
	.st0{fill:#ED7824;}
	.st1{fill:#00A995;}
	.st2{fill:#00A99D;}
	.st3{fill:#FFFFFF;}
	.st4{fill:#D4EFFC;}
</style>
<path class="st0" d="M572.2,432.8l-276.7-72.1v-67.3l-69-17.3l0.5,98L99,474.4v-245l279.3,70.8v68l64.3,15.9l0.4-94l129.2-104.3
	V432.8z M442.9,567.9v-84.8l-64.7-16.4V583l-235.8-59.4l123.1-99.8l269.9,68.9L442.9,567.9z M226.3,96.8v80.8l69.2,17.4V73.7
	l236.1,60.2l3.2,1l-129,102.4l-271.3-68.5L226.3,96.8z M249.6,0L27.9,172.8v396l385.5,97.1L638,486.3V93.8L249.6,0z"/>
<circle class="st1" cx="153.3" cy="514.1" r="150"/>
<path class="st2" d="M153.8,364.1v300c82.6-0.3,149.4-67.3,149.4-150C303.3,431.4,236.4,364.4,153.8,364.1L153.8,364.1z"/>
<path class="st3" d="M94.2,473.6c0-7.6,2.5-15.4,7.4-23.2c4.9-7.8,12.1-14.3,21.5-19.5c9.4-5.1,20.4-7.7,32.9-7.7
	c11.7,0,22,2.2,30.9,6.5c8.9,4.3,15.8,10.2,20.7,17.6c4.9,7.4,7.3,15.4,7.3,24.1c0,6.8-1.4,12.8-4.2,18c-2.8,5.1-6.1,9.6-9.9,13.3
	c-3.8,3.7-10.7,10-20.6,18.9c-2.7,2.5-4.9,4.7-6.6,6.6c-1.6,1.9-2.9,3.6-3.7,5.2c-0.8,1.6-1.4,3.1-1.9,4.7c-0.4,1.6-1.1,4.3-2,8.3
	c-1.5,8.4-6.3,12.5-14.4,12.5c-4.2,0-7.7-1.4-10.6-4.1c-2.9-2.7-4.3-6.8-4.3-12.2c0-6.8,1-12.6,3.1-17.6c2.1-4.9,4.9-9.3,8.3-13
	c3.5-3.7,8.1-8.2,14-13.3c5.1-4.5,8.9-7.9,11.2-10.2c2.3-2.3,4.2-4.8,5.8-7.7c1.6-2.8,2.4-5.9,2.4-9.2c0-6.4-2.4-11.9-7.2-16.3
	c-4.8-4.4-11-6.6-18.5-6.6c-8.8,0-15.4,2.2-19.5,6.7c-4.2,4.5-7.7,11-10.6,19.7c-2.7,9.1-7.9,13.6-15.6,13.6
	c-4.5,0-8.3-1.6-11.4-4.8C95.7,480.7,94.2,477.3,94.2,473.6L94.2,473.6z M153.1,605.8c-4.9,0-9.2-1.6-12.8-4.8
	c-3.7-3.2-5.5-7.6-5.5-13.3c0-5.1,1.8-9.3,5.3-12.8c3.5-3.5,7.9-5.2,13-5.2c5.1,0,9.3,1.7,12.8,5.2c3.5,3.5,5.2,7.7,5.2,12.8
	c0,5.6-1.8,10.1-5.4,13.3C162,604.2,157.8,605.8,153.1,605.8z"/>
<g>
	<path class="st4" d="M186.8,429.6c-8.9-4.3-19.2-6.5-30.9-6.5c-0.7,0-1.4,0-2.1,0v25.5c0.7,0,1.4-0.1,2.1-0.1
		c7.6,0,13.7,2.2,18.5,6.6c4.8,4.4,7.2,9.9,7.2,16.3c0,3.3-0.8,6.4-2.4,9.2c-1.6,2.8-3.5,5.4-5.8,7.7c-2.3,2.3-6,5.7-11.2,10.2
		c-3.2,2.8-6,5.4-8.5,7.8v52.3c6.8-0.7,10.9-4.8,12.3-12.4c0.9-3.9,1.5-6.7,2-8.3c0.4-1.6,1.1-3.1,1.9-4.7c0.8-1.6,2-3.3,3.7-5.2
		c1.6-1.9,3.8-4.1,6.6-6.6c9.9-8.8,16.7-15.1,20.6-18.9c3.8-3.7,7.1-8.2,9.9-13.3c2.8-5.1,4.2-11.1,4.2-18c0-8.7-2.4-16.7-7.3-24.1
		C202.7,439.8,195.8,433.9,186.8,429.6L186.8,429.6z"/>
	<path class="st4" d="M171,587.7c0-5.1-1.7-9.3-5.2-12.8c-3.3-3.3-7.3-5-12-5.2v36c4.4-0.2,8.4-1.8,11.8-4.8
		C169.2,597.8,171,593.4,171,587.7z"/>
</g>
</svg>
