<svg id="RealET" data-name="RealET" xmlns="http://www.w3.org/2000/svg" viewBox="0 0 665.93 665.93"><defs><style>.RealET{fill:#ed7824;}</style></defs><path class="RealET" d="M572.17,432.8,295.48,360.66V293.4l-69-17.31.48,98L99,474.4v-245l279.28,70.77v68l64.27,15.88.38-94L572.17,185.77ZM442.92,567.9V483.14L378.27,466.7V583L142.42,523.57,265.5,423.76l269.94,68.9ZM226.25,96.84v80.8L295.48,195V73.7l236.06,60.16,3.23,1-129,102.4L134.5,168.78l91.75-71.94ZM249.58,0,27.94,172.8v396l385.5,97.1L638,486.25V93.85L249.58,0Z"/></svg>