<?xml version="1.0" encoding="UTF-8" standalone="no"?>
<!-- Created with Inkscape (http://www.inkscape.org/) -->

<svg
   xmlns:dc="http://purl.org/dc/elements/1.1/"
   xmlns:cc="http://creativecommons.org/ns#"
   xmlns:rdf="http://www.w3.org/1999/02/22-rdf-syntax-ns#"
   xmlns:svg="http://www.w3.org/2000/svg"
   xmlns="http://www.w3.org/2000/svg"
   xmlns:sodipodi="http://sodipodi.sourceforge.net/DTD/sodipodi-0.dtd"
   xmlns:inkscape="http://www.inkscape.org/namespaces/inkscape"
   width="31.999998"
   height="32"
   viewBox="0 0 31.999998 32"
   version="1.1"
   id="SVGRoot"
   inkscape:version="0.92.3 (2405546, 2018-03-11)"
   sodipodi:docname="arobase.svg">
  <sodipodi:namedview
     id="base"
     pagecolor="#ffffff"
     bordercolor="#666666"
     borderopacity="1.0"
     inkscape:pageopacity="0.0"
     inkscape:pageshadow="2"
     inkscape:zoom="8"
     inkscape:cx="21.999999"
     inkscape:cy="5.7500002"
     inkscape:document-units="px"
     inkscape:current-layer="layer1"
     showgrid="false"
     inkscape:window-width="1549"
     inkscape:window-height="845"
     inkscape:window-x="51"
     inkscape:window-y="27"
     inkscape:window-maximized="1"
     inkscape:grid-bbox="true" />
  <defs
     id="defs4158" />
  <metadata
     id="metadata4161">
    <rdf:RDF>
      <cc:Work
         rdf:about="">
        <dc:format>image/svg+xml</dc:format>
        <dc:type
           rdf:resource="http://purl.org/dc/dcmitype/StillImage" />
        <dc:title></dc:title>
      </cc:Work>
    </rdf:RDF>
  </metadata>
  <g
     id="layer1"
     inkscape:groupmode="layer"
     inkscape:label="Calque 1"
     transform="translate(5.9999995,10.250001)">
    <g
       id="layer1-3"
       transform="matrix(0.40237265,0,0,0.40362824,-6.0684571,-98.139067)">
      <g
         id="flowRoot936"
         aria-label="@"
         transform="matrix(2.8043,0,0,2.561,-87.245,88.259)"
         style="fill:#336699">
        <path
           id="path947"
           d="m 47.871,72.163 q -1.4258,2.4219 -5.0977,2.4219 -1.0156,0.01953 -1.9141,-0.48828 -2.5391,-1.3672 -2.5391,-5.2344 0,-4.668 2.4219,-7.8125 2.4219,-3.1445 6.6602,-3.1445 2.3242,0 4.2969,0.58594 l -1.4062,10.098 q -0.05859,0.41016 -0.05859,0.97656 0,1.4648 1.3477,1.4648 3.2617,0.01953 4.6094,-5.0195 0.48828,-1.8164 0.48828,-3.7305 0,-3.9648 -2.3047,-6.2109 -2.2852,-2.2656 -6.4258,-2.2656 -6.1133,0 -9.9414,3.9648 -3.8086,3.9648 -3.8086,10.078 0,4.5703 2.8711,7.5586 2.8906,2.9883 7.5,2.9883 2.5977,0 5.0195,-1.1328 l 0.95703,2.7734 q -3.125,1.4844 -6.2109,1.4844 -5.918,0 -9.5508,-3.8672 -3.6133,-3.8477 -3.6133,-9.6289 0,-7.5781 4.7656,-12.5 4.8047,-4.9609 12.461,-4.9609 5.1758,0 8.1445,3.2617 2.9883,3.2617 2.9883,8.5938 0,4.3359 -2.0312,7.6172 -1.9922,3.2812 -5.4297,4.1406 -0.66406,0.15625 -1.3281,0.15625 -2.2852,0 -2.8711,-2.168 z m -6.2305,-4.375 q 0,3.3984 2.6953,3.3984 1.1719,0 1.9727,-0.58594 0.82031,-0.58594 0.97656,-1.7969 l 0.99609,-7.3047 q -0.64453,-0.19531 -1.6992,-0.19531 -1.0352,0 -2.0312,0.56641 -0.99609,0.54688 -1.6406,1.4453 -1.2695,1.7969 -1.2695,4.4727 z"
           inkscape:connector-curvature="0"
           style="fill:#336699" />
      </g>
    </g>
  </g>
</svg>
