<?xml version="1.0" encoding="UTF-8" standalone="no"?>
<!-- Created with Inkscape (http://www.inkscape.org/) -->

<svg
   xmlns:dc="http://purl.org/dc/elements/1.1/"
   xmlns:cc="http://creativecommons.org/ns#"
   xmlns:rdf="http://www.w3.org/1999/02/22-rdf-syntax-ns#"
   xmlns:svg="http://www.w3.org/2000/svg"
   xmlns="http://www.w3.org/2000/svg"
   xmlns:sodipodi="http://sodipodi.sourceforge.net/DTD/sodipodi-0.dtd"
   xmlns:inkscape="http://www.inkscape.org/namespaces/inkscape"
   width="32"
   height="32"
   viewBox="0 0 32 32"
   version="1.1"
   id="SVGRoot"
   inkscape:version="0.92.3 (2405546, 2018-03-11)"
   sodipodi:docname="contact-sup2.svg">
  <sodipodi:namedview
     id="base"
     pagecolor="#ffffff"
     bordercolor="#666666"
     borderopacity="1.0"
     inkscape:pageopacity="0.0"
     inkscape:pageshadow="2"
     inkscape:zoom="8"
     inkscape:cx="13.875"
     inkscape:cy="16.25"
     inkscape:document-units="px"
     inkscape:current-layer="layer1"
     showgrid="false"
     inkscape:window-width="1549"
     inkscape:window-height="845"
     inkscape:window-x="51"
     inkscape:window-y="27"
     inkscape:window-maximized="1"
     inkscape:grid-bbox="true" />
  <defs
     id="defs2350" />
  <metadata
     id="metadata2353">
    <rdf:RDF>
      <cc:Work
         rdf:about="">
        <dc:format>image/svg+xml</dc:format>
        <dc:type
           rdf:resource="http://purl.org/dc/dcmitype/StillImage" />
        <dc:title></dc:title>
      </cc:Work>
    </rdf:RDF>
  </metadata>
  <g
     id="layer1"
     inkscape:groupmode="layer"
     inkscape:label="Calque 1"
     transform="translate(-2.1249998,-0.25)">
    <g
       transform="matrix(0.76190477,0,0,0.76190477,2.1249998,0.25)"
       id="g3066"
       style="fill:#336699">
      <path
         style="fill:#336699"
         inkscape:connector-curvature="0"
         d="M 37.059,16 H 26 V 4.941 C 26,2.224 23.718,0 21,0 18.282,0 16,2.224 16,4.941 V 16 H 4.941 C 2.224,16 0,18.282 0,21 c 0,2.718 2.224,5 4.941,5 H 16 v 11.059 c 0,2.717 2.282,4.941 5,4.941 2.718,0 5,-2.224 5,-4.941 V 26 H 37.059 C 39.776,26 42,23.718 42,21 42,18.282 39.776,16 37.059,16 Z"
         data-original="#555555"
         class="active-path"
         data-old_color=" rgb(85, 85, 85)"
         id="path3064" />
    </g>
  </g>
</svg>
