<?xml version="1.0" encoding="UTF-8" standalone="no"?>
<!-- Created with Inkscape (http://www.inkscape.org/) -->

<svg
   xmlns:dc="http://purl.org/dc/elements/1.1/"
   xmlns:cc="http://creativecommons.org/ns#"
   xmlns:rdf="http://www.w3.org/1999/02/22-rdf-syntax-ns#"
   xmlns:svg="http://www.w3.org/2000/svg"
   xmlns="http://www.w3.org/2000/svg"
   xmlns:sodipodi="http://sodipodi.sourceforge.net/DTD/sodipodi-0.dtd"
   xmlns:inkscape="http://www.inkscape.org/namespaces/inkscape"
   width="21.102365"
   height="31.999998"
   viewBox="0 0 21.102365 31.999998"
   version="1.1"
   id="SVGRoot"
   inkscape:version="0.92.3 (2405546, 2018-03-11)"
   sodipodi:docname="contact-motif.svg">
  <sodipodi:namedview
     id="base"
     pagecolor="#ffffff"
     bordercolor="#666666"
     borderopacity="1.0"
     inkscape:pageopacity="0.0"
     inkscape:pageshadow="2"
     inkscape:zoom="8"
     inkscape:cx="4.6761828"
     inkscape:cy="21.75"
     inkscape:document-units="px"
     inkscape:current-layer="layer1"
     showgrid="false"
     inkscape:window-width="1549"
     inkscape:window-height="845"
     inkscape:window-x="51"
     inkscape:window-y="27"
     inkscape:window-maximized="1"
     inkscape:grid-bbox="true" />
  <defs
     id="defs3609" />
  <metadata
     id="metadata3612">
    <rdf:RDF>
      <cc:Work
         rdf:about="">
        <dc:format>image/svg+xml</dc:format>
        <dc:type
           rdf:resource="http://purl.org/dc/dcmitype/StillImage" />
        <dc:title></dc:title>
      </cc:Work>
    </rdf:RDF>
  </metadata>
  <g
     id="layer1"
     inkscape:groupmode="layer"
     inkscape:label="Calque 1"
     transform="translate(-11.323817,-10.750001)">
    <g
       transform="matrix(1.0204732,0,0,1.0204732,5.8744905,10.750001)"
       id="g36"
       style="fill:#336699">
      <g
         id="g34"
         style="fill:#336699">
        <path
           style="fill:#336699"
           inkscape:connector-curvature="0"
           d="m 15.255,0 c 5.424,0 10.764,2.498 10.764,8.473 0,5.51 -6.314,7.629 -7.67,9.62 -1.018,1.481 -0.678,3.562 -3.475,3.562 -1.822,0 -2.712,-1.482 -2.712,-2.838 0,-5.046 7.414,-6.188 7.414,-10.343 0,-2.287 -1.522,-3.643 -4.066,-3.643 -5.424,0 -3.306,5.592 -7.414,5.592 C 6.613,10.423 5.34,9.533 5.34,7.839 5.339,3.683 10.084,0 15.255,0 Z m -0.211,24.406 c 1.904,0 3.475,1.566 3.475,3.476 0,1.91 -1.568,3.476 -3.475,3.476 -1.907,0 -3.476,-1.564 -3.476,-3.476 0,-1.909 1.569,-3.476 3.476,-3.476 z"
           data-original="#555555"
           class="active-path"
           data-old_color=" rgb(85, 85, 85)"
           id="path32" />
      </g>
    </g>
  </g>
</svg>
