<?xml version="1.0" encoding="UTF-8" standalone="no"?>
<svg
   xmlns:dc="http://purl.org/dc/elements/1.1/"
   xmlns:cc="http://creativecommons.org/ns#"
   xmlns:rdf="http://www.w3.org/1999/02/22-rdf-syntax-ns#"
   xmlns:svg="http://www.w3.org/2000/svg"
   xmlns="http://www.w3.org/2000/svg"
   xmlns:sodipodi="http://sodipodi.sourceforge.net/DTD/sodipodi-0.dtd"
   xmlns:inkscape="http://www.inkscape.org/namespaces/inkscape"
   width="24pt"
   height="23.4pt"
   version="1.0"
   viewBox="0 0 24 23.4"
   id="svg9"
   sodipodi:docname="accessconfig2.svg"
   inkscape:version="0.92.3 (2405546, 2018-03-11)">
  <defs
     id="defs13" />
  <sodipodi:namedview
     pagecolor="#ffffff"
     bordercolor="#666666"
     borderopacity="1"
     objecttolerance="10"
     gridtolerance="10"
     guidetolerance="10"
     inkscape:pageopacity="0"
     inkscape:pageshadow="2"
     inkscape:window-width="1091"
     inkscape:window-height="682"
     id="namedview11"
     showgrid="false"
     inkscape:zoom="1"
     inkscape:cx="145"
     inkscape:cy="-11.3"
     inkscape:window-x="51"
     inkscape:window-y="27"
     inkscape:window-maximized="0"
     inkscape:current-layer="svg9" />
  <script
     id="__gaOptOutExtension" />
  <metadata
     id="metadata3">Created by potrace 1.11, written by Peter Selinger 2001-2013
  <rdf:RDF>
  <cc:Work
     rdf:about="">
    <dc:format>image/svg+xml</dc:format>
    <dc:type
       rdf:resource="http://purl.org/dc/dcmitype/StillImage" />
    <dc:title />
  </cc:Work>
</rdf:RDF>
</metadata>
  <g
     transform="matrix(0.01,0,0,-0.01,-1,24.7)"
     id="g7">
    <path
       d="M 1150,2460 C 957,2440 752,2350 590,2230 l -36,-30 -54,40 c -101,60 -229,110 -343,110 l -57,10 v -140 h 70 c 77,-10 175,-40 239,-80 22,-20 41,-30 41,-30 0,0 -16,-20 -36,-50 -98,-100 -194,-280 -238,-430 -22,-80 -27,-100 -42,-190 -3,-20 -5,-90 -5,-150 -1,-444 254,-851 658,-1049 108,-53 233,-90 343,-108 80,-11 280,-9 360,4 170,27 360,106 490,203 l 70,48 50,-33 c 90,-65 230,-110 350,-119 l 50,-5 v 136 l -60,6 c -80,7 -200,45 -250,82 l -40,25 60,74 c 140,172 220,355 250,566 10,70 20,270 10,320 -10,10 -10,40 -10,60 -30,140 -100,310 -190,450 -160,250 -440,430 -740,500 -130,30 -270,10 -380,10 z m 360,-150 c 330,-60 620,-300 750,-620 60,-130 80,-250 80,-410 -10,-180 -40,-299 -110,-445 -50,-95 -160,-255 -180,-255 -10,0 -70,79 -100,139 -40,95 -50,158 -50,351 -10,90 -10,190 -10,210 -30,110 -70,200 -130,290 -140,190 -360,310 -580,310 h -80 v -410 l 60,-10 h 70 v 280 c 20,10 130,-20 200,-60 170,-80 290,-250 330,-430 v -210 c 10,-96 10,-184 10,-195 10,-11 10,-31 10,-45 20,-77 100,-236 150,-296 l 20,-22 -80,-54 C 1610,261 1320,213 1030,290 652,393 375,686 279,1090 c -9,30 -13,120 -13,210 1,140 4,170 27,260 15,50 49,140 77,200 52,100 164,250 183,250 21,-10 85,-110 111,-180 30,-80 35,-130 41,-340 3,-130 9,-180 25,-240 78,-275 300,-474 590,-530 l 60,-10 -10,-75 c 0,-81 0,-77 60,-77 20,0 40,1 50,1 l 30,1 v 570 h -70 c -60,0 -70,0 -70,-20 V 848 l -40,6 c -170,30 -347,166 -425,326 -54,100 -66,170 -70,370 -3,160 -7,200 -30,280 -29,100 -57,150 -115,230 l -39,50 57,40 c 149,100 312,160 472,180 100,10 220,10 330,-20 z"
       id="path5"
       inkscape:connector-curvature="0" />
  </g>
</svg>
