<?xml version="1.0" encoding="UTF-8" standalone="no"?>
<!-- Created with Inkscape (http://www.inkscape.org/) -->

<svg
   xmlns:dc="http://purl.org/dc/elements/1.1/"
   xmlns:cc="http://creativecommons.org/ns#"
   xmlns:rdf="http://www.w3.org/1999/02/22-rdf-syntax-ns#"
   xmlns:svg="http://www.w3.org/2000/svg"
   xmlns="http://www.w3.org/2000/svg"
   xmlns:sodipodi="http://sodipodi.sourceforge.net/DTD/sodipodi-0.dtd"
   xmlns:inkscape="http://www.inkscape.org/namespaces/inkscape"
   width="31.999672"
   height="31.999973"
   viewBox="0 0 31.999672 31.999973"
   version="1.1"
   id="SVGRoot"
   inkscape:version="0.92.3 (2405546, 2018-03-11)"
   sodipodi:docname="rss.svg">
  <sodipodi:namedview
     id="base"
     pagecolor="#ffffff"
     bordercolor="#666666"
     borderopacity="1.0"
     inkscape:pageopacity="0.0"
     inkscape:pageshadow="2"
     inkscape:zoom="8"
     inkscape:cx="16.374836"
     inkscape:cy="14.374987"
     inkscape:document-units="px"
     inkscape:current-layer="layer1"
     showgrid="false"
     inkscape:window-width="1549"
     inkscape:window-height="845"
     inkscape:window-x="51"
     inkscape:window-y="27"
     inkscape:window-maximized="1"
     inkscape:grid-bbox="true" />
  <defs
     id="defs6610" />
  <metadata
     id="metadata6613">
    <rdf:RDF>
      <cc:Work
         rdf:about="">
        <dc:format>image/svg+xml</dc:format>
        <dc:type
           rdf:resource="http://purl.org/dc/dcmitype/StillImage" />
        <dc:title></dc:title>
      </cc:Work>
    </rdf:RDF>
  </metadata>
  <g
     id="layer1"
     inkscape:groupmode="layer"
     inkscape:label="Calque 1"
     transform="translate(0.374836,1.624986)">
    <path
       inkscape:connector-curvature="0"
       d="M 29.864558,0.135253 C 28.69143,-1.038177 27.278001,-1.624986 25.625364,-1.624986 H 5.625126 c -1.652636,0 -3.066066,0.586809 -4.239722,1.760239 -1.17343,1.173656 -1.76024,2.587011 -1.76024,4.239685 v 19.999899 c 0,1.652522 0.58681,3.066028 1.76024,4.239684 1.173656,1.173657 2.587086,1.760466 4.239722,1.760466 h 20.000012 c 1.652636,0 3.066066,-0.586809 4.239193,-1.760466 1.173657,-1.173656 1.760504,-2.587086 1.760504,-4.239684 V 4.374938 C 31.62476,2.722264 31.037912,1.308683 29.864558,0.135253 Z M 9.510594,24.260392 c -0.521159,0.520441 -1.14943,0.781078 -1.885644,0.781078 -0.735874,0 -1.364447,-0.260788 -1.885304,-0.781078 -0.520819,-0.520932 -0.781379,-1.149694 -0.781379,-1.885833 0,-0.735685 0.260409,-1.364447 0.781379,-1.885379 0.520932,-0.520932 1.14943,-0.781077 1.885304,-0.781077 0.736214,0 1.364712,0.260031 1.885644,0.781077 0.520629,0.520932 0.781228,1.149694 0.781228,1.885379 0,0.736139 -0.26041,1.364977 -0.781228,1.885833 z m 7.905826,0.57241 c -0.138709,0.138709 -0.298583,0.207874 -0.479433,0.207874 h -2.666343 c -0.180662,0 -0.333355,-0.05858 -0.45823,-0.176882 -0.125103,-0.117921 -0.194646,-0.267213 -0.208252,-0.44795 C 13.451469,22.277237 12.611167,20.443788 11.08333,18.915574 9.555533,17.388342 7.722386,16.547851 5.583249,16.394969 5.402588,16.379849 5.253296,16.311819 5.135526,16.187095 5.017227,16.062371 4.958267,15.9093 4.958267,15.728638 v -2.666569 c 0,-0.180662 0.06954,-0.340536 0.208252,-0.479169 0.138708,-0.138709 0.305385,-0.201449 0.500107,-0.187465 3.222236,0.180662 5.972106,1.409991 8.249876,3.687685 2.277921,2.278186 3.50725,5.02749 3.687571,8.250104 0.01512,0.194646 -0.04875,0.360945 -0.187842,0.499653 z m 7.999937,0 c -0.138709,0.138709 -0.298205,0.208252 -0.478904,0.208252 h -2.666759 c -0.180662,0 -0.333355,-0.06236 -0.458192,-0.187465 -0.124725,-0.124724 -0.194268,-0.277795 -0.208252,-0.458494 -0.09751,-2.83321 -0.871711,-5.45828 -2.32286,-7.874986 C 17.830014,14.103366 15.895992,12.169458 13.479211,10.718346 11.062467,9.266856 8.4377,8.49262 5.604188,8.395524 5.423526,8.380404 5.270834,8.311994 5.145958,8.187271 5.021234,8.062169 4.958493,7.909476 4.958493,7.728815 V 5.062131 c 0,-0.180661 0.06954,-0.340157 0.208252,-0.479206 0.125103,-0.138709 0.284599,-0.201071 0.479169,-0.187087 2.138683,0.06917 4.204837,0.457966 6.19782,1.166589 1.992982,0.708095 3.798538,1.676826 5.416969,2.906004 1.618167,1.228989 3.041802,2.652775 4.270564,4.270866 1.228913,1.618129 2.198022,3.423836 2.906494,5.416554 0.707944,1.993172 1.097235,4.059401 1.166363,6.197934 0.02646,0.194645 -0.03402,0.354141 -0.187843,0.478979 z"
       id="path910"
       style="fill:#ec7942;fill-opacity:1;stroke-width:0.0729699" />
  </g>
</svg>
