<?xml version="1.0" encoding="UTF-8" standalone="no"?>
<svg
   xmlns:dc="http://purl.org/dc/elements/1.1/"
   xmlns:cc="http://creativecommons.org/ns#"
   xmlns:rdf="http://www.w3.org/1999/02/22-rdf-syntax-ns#"
   xmlns:svg="http://www.w3.org/2000/svg"
   xmlns="http://www.w3.org/2000/svg"
   id="SVGRoot"
   version="1.1"
   viewBox="0 0 24.339205 32.000004"
   height="32.000004"
   width="24.339205">
  <defs
     id="defs19515" />
  <metadata
     id="metadata19518">
    <rdf:RDF>
      <cc:Work
         rdf:about="">
        <dc:format>image/svg+xml</dc:format>
        <dc:type
           rdf:resource="http://purl.org/dc/dcmitype/StillImage" />
        <dc:title></dc:title>
      </cc:Work>
    </rdf:RDF>
  </metadata>
  <g
     transform="translate(-3.330398,-0.1249985)"
     id="layer1">
    <g
       style="fill:#336699"
       id="g3"
       transform="matrix(0.09142858,0,0,0.09142858,-0.5000155,0.1249985)">
      <g
         style="fill:#336699"
         id="g5">
        <path
           id="path7"
           data-old_color="#222222"
           class="active-path"
           data-original="#000000"
           d="m 175,171.173 c 38.914,0 70.463,-38.318 70.463,-85.586 C 245.463,38.318 235.105,0 175,0 c -60.105,0 -70.465,38.318 -70.465,85.587 0,47.268 31.549,85.586 70.465,85.586 z"
           style="fill:#336699" />
        <path
           id="path9"
           data-old_color="#222222"
           class="active-path"
           data-original="#000000"
           d="m 41.909,301.853 c -0.012,-2.882 -0.024,-0.812 0,0 z"
           style="fill:#336699" />
        <path
           id="path11"
           data-old_color="#222222"
           class="active-path"
           data-original="#000000"
           d="m 308.085,304.104 c 0.038,-0.789 0.013,-5.474 0,0 z"
           style="fill:#336699" />
        <path
           id="path13"
           data-old_color="#222222"
           class="active-path"
           data-original="#000000"
           d="M 307.935,298.397 C 306.63,216.055 295.876,192.592 213.583,177.74 c 0,0 -11.584,14.761 -38.584,14.761 -27,0 -38.586,-14.761 -38.586,-14.761 -81.395,14.69 -92.803,37.805 -94.303,117.982 -0.123,6.547 -0.18,6.891 -0.202,6.131 0.005,1.424 0.011,4.058 0.011,8.651 0,0 19.592,39.496 133.08,39.496 113.486,0 133.08,-39.496 133.08,-39.496 0,-2.951 0.002,-5.003 0.005,-6.399 -0.022,0.47 -0.066,-0.441 -0.149,-5.708 z"
           style="fill:#336699" />
      </g>
    </g>
  </g>
</svg>
