<?xml version="1.0" encoding="UTF-8" standalone="no"?>
<!-- Created with Inkscape (http://www.inkscape.org/) -->

<svg
   xmlns:dc="http://purl.org/dc/elements/1.1/"
   xmlns:cc="http://creativecommons.org/ns#"
   xmlns:rdf="http://www.w3.org/1999/02/22-rdf-syntax-ns#"
   xmlns:svg="http://www.w3.org/2000/svg"
   xmlns="http://www.w3.org/2000/svg"
   xmlns:sodipodi="http://sodipodi.sourceforge.net/DTD/sodipodi-0.dtd"
   xmlns:inkscape="http://www.inkscape.org/namespaces/inkscape"
   width="32.710869"
   height="31.999981"
   viewBox="0 0 32.710869 31.999981"
   version="1.1"
   id="SVGRoot"
   inkscape:version="0.92.3 (2405546, 2018-03-11)"
   sodipodi:docname="forum_iconeEtoile.svg">
  <sodipodi:namedview
     id="base"
     pagecolor="#ffffff"
     bordercolor="#666666"
     borderopacity="1.0"
     inkscape:pageopacity="0.0"
     inkscape:pageshadow="2"
     inkscape:zoom="8"
     inkscape:cx="16.230433"
     inkscape:cy="16.62499"
     inkscape:document-units="px"
     inkscape:current-layer="layer1"
     showgrid="false"
     inkscape:window-width="1680"
     inkscape:window-height="1050"
     inkscape:window-x="1600"
     inkscape:window-y="0"
     inkscape:window-maximized="1"
     inkscape:grid-bbox="true" />
  <defs
     id="defs18017" />
  <metadata
     id="metadata18020">
    <rdf:RDF>
      <cc:Work
         rdf:about="">
        <dc:format>image/svg+xml</dc:format>
        <dc:type
           rdf:resource="http://purl.org/dc/dcmitype/StillImage" />
        <dc:title></dc:title>
      </cc:Work>
    </rdf:RDF>
  </metadata>
  <g
     id="layer1"
     inkscape:groupmode="layer"
     inkscape:label="Calque 1"
     transform="translate(0.23043272,-0.62500935)">
    <g
       transform="matrix(3.7795274,0,0,3.7795274,-452.08913,-240.11175)"
       id="g17977">
      <path
         transform="matrix(-0.27715325,-1.123073,1.1230736,-0.27715309,104.7884,135.78252)"
         inkscape:transform-center-y="0.044180486"
         inkscape:transform-center-x="-0.60909561"
         d="m 55.506642,33.475501 c -0.13143,0.09249 -2.139056,-1.370721 -2.299748,-1.373149 -0.160692,-0.0024 -2.211617,1.399446 -2.340192,1.303029 -0.128575,-0.09642 0.642628,-2.45794 0.595281,-2.611517 -0.04735,-0.153578 -2.014379,-1.67092 -1.962413,-1.822997 0.05197,-0.152076 2.536223,-0.148369 2.667653,-0.240856 0.131429,-0.09249 0.966661,-2.432132 1.127353,-2.429704 0.160692,0.0024 0.924843,2.366243 1.053418,2.46266 0.128576,0.09642 2.61181,0.16778 2.659157,0.321357 0.04735,0.153578 -1.964638,1.610788 -2.016604,1.762865 -0.05197,0.152076 0.647525,2.535825 0.516095,2.628312 z"
         inkscape:randomized="0"
         inkscape:rounded="0.06"
         inkscape:flatsided="false"
         sodipodi:arg2="1.5859075"
         sodipodi:arg1="0.95758898"
         sodipodi:r2="1.8552872"
         sodipodi:r1="3.9474196"
         sodipodi:cy="30.247276"
         sodipodi:cx="53.234928"
         sodipodi:sides="5"
         id="path5139-2-8"
         style="opacity:1;fill:#336699;fill-opacity:1;stroke:none;stroke-width:0.95921415;stroke-linecap:round;stroke-linejoin:round;stroke-miterlimit:4;stroke-dasharray:none;stroke-opacity:1;paint-order:markers stroke fill"
         sodipodi:type="star" />
      <path
         transform="matrix(-0.25852161,-1.0475744,1.047575,-0.25852146,106.07227,131.1073)"
         inkscape:transform-center-y="-5.1037288"
         inkscape:transform-center-x="2.4252749"
         d="m 55.506642,33.475501 c -0.08762,0.06166 -2.19262,-1.37153 -2.299748,-1.373149 -0.107128,-0.0016 -2.254475,1.367307 -2.340192,1.303029 -0.08572,-0.06428 0.626846,-2.509132 0.595281,-2.611517 -0.03156,-0.102385 -1.997057,-1.721612 -1.962413,-1.822997 0.03464,-0.101384 2.580033,-0.179198 2.667653,-0.240856 0.08762,-0.06166 1.020225,-2.431323 1.127353,-2.429704 0.107128,0.0016 0.967702,2.398382 1.053418,2.46266 0.08572,0.06428 2.627592,0.218972 2.659157,0.321357 0.03157,0.102385 -1.98196,1.66148 -2.016604,1.762865 -0.03464,0.101384 0.603715,2.566654 0.516095,2.628312 z"
         inkscape:randomized="0"
         inkscape:rounded="0.04"
         inkscape:flatsided="false"
         sodipodi:arg2="1.5859075"
         sodipodi:arg1="0.95758898"
         sodipodi:r2="1.8552872"
         sodipodi:r1="3.9474196"
         sodipodi:cy="30.247276"
         sodipodi:cx="53.234928"
         sodipodi:sides="5"
         id="path5139-2"
         style="opacity:1;fill:#ec7942;fill-opacity:1;stroke:none;stroke-width:0.95921415;stroke-linecap:round;stroke-linejoin:round;stroke-miterlimit:4;stroke-dasharray:none;stroke-opacity:1;paint-order:markers stroke fill"
         sodipodi:type="star" />
    </g>
  </g>
</svg>
