<?xml version="1.0" encoding="UTF-8" standalone="no"?>
<!-- Created with Inkscape (http://www.inkscape.org/) -->

<svg
   xmlns:dc="http://purl.org/dc/elements/1.1/"
   xmlns:cc="http://creativecommons.org/ns#"
   xmlns:rdf="http://www.w3.org/1999/02/22-rdf-syntax-ns#"
   xmlns:svg="http://www.w3.org/2000/svg"
   xmlns="http://www.w3.org/2000/svg"
   xmlns:sodipodi="http://sodipodi.sourceforge.net/DTD/sodipodi-0.dtd"
   xmlns:inkscape="http://www.inkscape.org/namespaces/inkscape"
   width="32.000259"
   height="32.000004"
   viewBox="0 0 32.000259 32.000004"
   version="1.1"
   id="SVGRoot"
   inkscape:version="0.92.3 (2405546, 2018-03-11)"
   sodipodi:docname="loupe.svg">
  <sodipodi:namedview
     id="base"
     pagecolor="#ffffff"
     bordercolor="#666666"
     borderopacity="1.0"
     inkscape:pageopacity="0.0"
     inkscape:pageshadow="2"
     inkscape:zoom="8"
     inkscape:cx="21.50013"
     inkscape:cy="17.000002"
     inkscape:document-units="px"
     inkscape:current-layer="layer1"
     showgrid="false"
     inkscape:window-width="1549"
     inkscape:window-height="845"
     inkscape:window-x="51"
     inkscape:window-y="27"
     inkscape:window-maximized="1"
     inkscape:grid-bbox="true" />
  <defs
     id="defs5386" />
  <metadata
     id="metadata5389">
    <rdf:RDF>
      <cc:Work
         rdf:about="">
        <dc:format>image/svg+xml</dc:format>
        <dc:type
           rdf:resource="http://purl.org/dc/dcmitype/StillImage" />
        <dc:title></dc:title>
      </cc:Work>
    </rdf:RDF>
  </metadata>
  <g
     id="layer1"
     inkscape:groupmode="layer"
     inkscape:label="Calque 1"
     transform="translate(5.50013,-0.99999832)">
    <g
       transform="matrix(0.12784149,0,0,0.12784149,-5.500897,1.000254)"
       id="Search">
      <path
         style="clip-rule:evenodd;fill:#336699;fill-rule:evenodd"
         inkscape:connector-curvature="0"
         id="path2-9"
         d="m 244.19,214.6 -54.379,-54.378 c -0.289,-0.289 -0.628,-0.491 -0.93,-0.76 10.7,-16.231 16.945,-35.66 16.945,-56.554 0,-56.835 -46.07,-102.91 -102.91,-102.91 -56.835,0 -102.91,46.075 -102.91,102.91 0,56.835 46.074,102.91 102.91,102.91 20.895,0 40.323,-6.245 56.554,-16.945 0.269,0.301 0.47,0.64 0.759,0.929 l 54.38,54.38 c 8.169,8.168 21.413,8.168 29.583,0 8.168,-8.169 8.168,-21.413 0,-29.582 z M 102.91,168.15 c -37.134,0 -65.236,-28.102 -65.236,-65.235 0,-37.134 28.103,-65.236 65.236,-65.236 37.132,0 65.235,28.103 65.235,65.236 0,37.133 -28.103,65.235 -65.235,65.235 z" />
      <path
         style="fill:none;stroke:#336699;stroke-width:20;stroke-linecap:round;stroke-linejoin:round"
         inkscape:connector-curvature="0"
         id="path1402"
         d="M 60.119,106.82 C 60.119002,81 81.89,60.068 108.746,60.068" />
    </g>
  </g>
</svg>
