<?xml version="1.0" encoding="UTF-8" standalone="no"?>
<svg
   xmlns:dc="http://purl.org/dc/elements/1.1/"
   xmlns:cc="http://creativecommons.org/ns#"
   xmlns:rdf="http://www.w3.org/1999/02/22-rdf-syntax-ns#"
   xmlns:svg="http://www.w3.org/2000/svg"
   xmlns="http://www.w3.org/2000/svg"
   xmlns:sodipodi="http://sodipodi.sourceforge.net/DTD/sodipodi-0.dtd"
   xmlns:inkscape="http://www.inkscape.org/namespaces/inkscape"
   version="1.1"
   id="Calque_1"
   x="0px"
   y="0px"
   viewBox="0 0 41.928173 32"
   enable-background="new 0 0 200 152.5"
   xml:space="preserve"
   sodipodi:docname="spip.svg"
   width="41.928173"
   height="32"
   inkscape:version="0.92.3 (2405546, 2018-03-11)"><metadata
   id="metadata1186"><rdf:RDF><cc:Work
       rdf:about=""><dc:format>image/svg+xml</dc:format><dc:type
         rdf:resource="http://purl.org/dc/dcmitype/StillImage" /></cc:Work></rdf:RDF></metadata><defs
   id="defs1184" /><sodipodi:namedview
   pagecolor="#ffffff"
   bordercolor="#666666"
   borderopacity="1"
   objecttolerance="10"
   gridtolerance="10"
   guidetolerance="10"
   inkscape:pageopacity="0"
   inkscape:pageshadow="2"
   inkscape:window-width="1549"
   inkscape:window-height="845"
   id="namedview1182"
   showgrid="false"
   showguides="true"
   inkscape:guide-bbox="true"
   inkscape:zoom="8.1026074"
   inkscape:cx="15.522469"
   inkscape:cy="11.717195"
   inkscape:window-x="51"
   inkscape:window-y="27"
   inkscape:window-maximized="1"
   inkscape:current-layer="Calque_1"><sodipodi:guide
     position="212.87503,-4.2256597"
     orientation="0,1"
     id="guide1188"
     inkscape:locked="false" /></sodipodi:namedview>




<g
   id="g1195"
   transform="matrix(0.20968104,0,0,0.20968104,-0.00583581,0.04285389)"
   style="fill:#336699"><path
     id="path1171"
     d="m 85.9,108 v 0 C 79.7,83.2 53.9,85.8 49.8,69.1 c -2.9,-11.8 5,-20.8 16.8,-23.8 7,-1.7 14,0.1 19.2,4.3 0.8,0.6 1.6,1.4 2.6,2.4 l 0.1,0.1 v 0 c 0.2,0.2 0.3,0.4 0.5,0.6 0.1,0.1 0.2,0.3 0.3,0.4 0.1,0.2 0.2,0.3 0.3,0.5 l 0.1,0.1 c 1.1,1.4 1.7,2.4 2.6,2.2 0.8,-0.2 1.2,-2 1.4,-3.3 0.7,-5.5 0.4,-11.2 -1,-17 C 86.5,10.4 61,-5.1 35.7,1.2 10.6,7.6 -4.8,33.1 1.4,58.3 c 8.3,33.9 40.2,39.6 57.5,48.2 3.7,1.8 6.6,5.1 7.6,9.3 1.9,7.5 -2.7,15.1 -10.3,17 H 56 c -0.3,0.1 -0.5,0.1 -0.7,0.2 -1.5,0.4 -1.9,0.2 -1.9,0.8 0,0.4 1,0.9 1.6,1.2 4.3,1.6 9,2 13.8,0.9 12.5,-3 20.1,-15.5 17.1,-27.9 z"
     inkscape:connector-curvature="0"
     style="fill:#336699" /><path
     id="path1173"
     d="m 154,97.8 c 0,0 -1.4,0 -1.7,0 -2.5,0 -4.2,0.7 -5.4,1.4 -0.1,0.1 -0.2,0.2 -0.3,0.2 -2,1.3 -2.8,3.6 -2.8,3.6 v 0 l -10,32 c -0.3,1.2 0.5,2.2 1.8,2.2 h 6.6 c 1.2,0 2.5,-1 2.7,-2.2 l 10.9,-35 c 0.2,-1.3 -0.6,-2.2 -1.8,-2.2"
     inkscape:connector-curvature="0"
     style="fill:#336699" /><path
     id="path1175"
     d="m 148,94 h 7.3 c 2.1,-0.2 3.2,-2.5 3.1,-3.6 0,-1.1 -1.1,-2 -3.4,-2 -2.3,0.1 -7,1.4 -7.2,5.2 0,0.2 0.1,0.3 0.2,0.4"
     inkscape:connector-curvature="0"
     style="fill:#336699" /><path
     id="path1177"
     d="m 199.4,116.6 c 3.9,-19.2 -12.6,-19.2 -18.7,-18.3 -0.5,0.1 -1,0.2 -1.6,0.3 -5,0.8 -5.7,1 -6.8,0.6 -0.3,-0.1 -0.5,-0.2 -0.8,-0.4 -0.2,-0.2 -0.4,-0.3 -0.7,-0.5 v 0 c -1.6,-0.9 -3.5,-0.7 -3.5,-0.7 h -0.3 0.1 c -1.2,0 -2.5,1 -2.7,2.2 l -15.5,49.8 c 0,0 -1,2.8 2,2.8 h 0.9 v 0 c 0,0 7.9,0.7 11.9,-10.7 l 9.6,-31.7 c -1.6,-0.5 -2.6,-1 -3.5,-1.6 -2,-1.4 -2.1,-2.8 -0.6,-2.3 1.4,0.5 3.1,0.9 9.2,0.8 9.2,-0.2 10.4,10.9 5.4,18.5 -2.9,4.4 -5.7,5.5 -8.7,6.7 -0.8,0.3 -1.6,0.6 -2.5,0.8 v 0 c 0,0 -2.6,0.5 -2.6,1.4 0,0.7 0.9,1.2 2,1.5 1.4,0.2 3,0.4 4.7,0.4 7.6,0 20.7,-5.6 22.8,-19.4 0,-0.6 -0.2,0.5 -0.1,-0.2"
     inkscape:connector-curvature="0"
     style="fill:#336699" /><path
     id="path1179"
     d="M 132.6,116.6 C 136.5,97.4 120,97.4 113.9,98.3 c -0.5,0.1 -1,0.2 -1.6,0.3 -5,0.8 -5.7,1 -6.8,0.6 -0.3,-0.1 -0.5,-0.2 -0.8,-0.4 -0.2,-0.2 -0.4,-0.3 -0.7,-0.5 v 0 c -1.6,-0.9 -3.5,-0.7 -3.5,-0.7 h -0.3 0.1 c -1.2,0 -2.5,1 -2.7,2.2 l -15.5,49.8 c 0,0 -1,2.8 2,2.8 H 85 v 0 c 0,0 7.9,0.7 11.9,-10.7 l 10.6,-34.8 c 1.1,0 2.4,0 4,0 9.2,-0.2 10.4,10.9 5.4,18.5 -2.9,4.4 -5.7,5.5 -8.7,6.7 -0.8,0.3 -1.6,0.6 -2.5,0.8 v 0 c 0,0 -2.6,0.5 -2.6,1.4 0,0.7 0.9,1.2 2,1.5 1.4,0.2 3,0.4 4.7,0.4 7.6,0 20.7,-5.6 22.8,-19.4 0.1,-0.6 -0.1,0.5 0,-0.2"
     inkscape:connector-curvature="0"
     style="fill:#336699" /></g>
</svg>