<?xml version="1.0" encoding="UTF-8"?>
<svg width="240pt" height="234pt" xmlns:cc="http://creativecommons.org/ns#" xmlns:dc="http://purl.org/dc/elements/1.1/" xmlns:rdf="http://www.w3.org/1999/02/22-rdf-syntax-ns#" version="1.0" viewBox="0 0 240 234" xmlns="http://www.w3.org/2000/svg">
 <script id="__gaOptOutExtension"/>
 <metadata>Created by potrace 1.11, written by Peter Selinger 2001-2013
  <rdf:RDF>
   <cc:Work rdf:about="">
    <dc:format>image/svg+xml</dc:format>
    <dc:type rdf:resource="http://purl.org/dc/dcmitype/StillImage"/>
    <dc:title/>
   </cc:Work>
  </rdf:RDF>
 </metadata>
 <g transform="matrix(.1 0 0 -.1 -10 247)">
  <path d="m1150 2460c-193-20-398-110-560-230l-36-30-54 40c-101 60-229 110-343 110l-57 10v-140h70c77-10 175-40 239-80 22-20 41-30 41-30s-16-20-36-50c-98-100-194-280-238-430-22-80-27-100-42-190-3-20-5-90-5-150-1-444 254-851 658-1049 108-53 233-90 343-108 80-11 280-9 360 4 170 27 360 106 490 203l70 48 50-33c90-65 230-110 350-119l50-5v136l-60 6c-80 7-200 45-250 82l-40 25 60 74c140 172 220 355 250 566 10 70 20 270 10 320-10 10-10 40-10 60-30 140-100 310-190 450-160 250-440 430-740 500-130 30-270 10-380 10zm360-150c330-60 620-300 750-620 60-130 80-250 80-410-10-180-40-299-110-445-50-95-160-255-180-255-10 0-70 79-100 139-40 95-50 158-50 351-10 90-10 190-10 210-30 110-70 200-130 290-140 190-360 310-580 310h-80v-410l60-10h70v280c20 10 130-20 200-60 170-80 290-250 330-430v-210c10-96 10-184 10-195 10-11 10-31 10-45 20-77 100-236 150-296l20-22-80-54c-260-167-550-215-840-138-378 103-655 396-751 800-9 30-13 120-13 210 1 140 4 170 27 260 15 50 49 140 77 200 52 100 164 250 183 250 21-10 85-110 111-180 30-80 35-130 41-340 3-130 9-180 25-240 78-275 300-474 590-530l60-10-10-75c0-81 0-77 60-77 20 0 40 1 50 1l30 1v570h-70c-60 0-70 0-70-20v-262l-40 6c-170 30-347 166-425 326-54 100-66 170-70 370-3 160-7 200-30 280-29 100-57 150-115 230l-39 50 57 40c149 100 312 160 472 180 100 10 220 10 330-20z" fill="#fff" fill-opacity=".941"/>
 </g>
</svg>
