<?xml version="1.0" encoding="UTF-8" standalone="no"?>
<!-- Generator: Adobe Illustrator 16.0.0, SVG Export Plug-In . SVG Version: 6.00 Build 0)  -->

<svg
   xmlns:dc="http://purl.org/dc/elements/1.1/"
   xmlns:cc="http://creativecommons.org/ns#"
   xmlns:rdf="http://www.w3.org/1999/02/22-rdf-syntax-ns#"
   xmlns:svg="http://www.w3.org/2000/svg"
   xmlns="http://www.w3.org/2000/svg"
   xmlns:sodipodi="http://sodipodi.sourceforge.net/DTD/sodipodi-0.dtd"
   xmlns:inkscape="http://www.inkscape.org/namespaces/inkscape"
   version="1.1"
   id="Capa_1"
   x="0px"
   y="0px"
   width="23.007513"
   height="32.000015"
   viewBox="0 0 23.007513 32.000016"
   xml:space="preserve"
   sodipodi:docname="aide.svg"
   inkscape:version="0.92.3 (2405546, 2018-03-11)"><metadata
   id="metadata66"><rdf:RDF><cc:Work
       rdf:about=""><dc:format>image/svg+xml</dc:format><dc:type
         rdf:resource="http://purl.org/dc/dcmitype/StillImage" /><dc:title></dc:title></cc:Work></rdf:RDF></metadata><defs
   id="defs64">
	

			
			
			
			
			
			
			
			
			
			
			
			
		</defs><sodipodi:namedview
   pagecolor="#ffffff"
   bordercolor="#666666"
   borderopacity="1"
   objecttolerance="10"
   gridtolerance="10"
   guidetolerance="10"
   inkscape:pageopacity="0"
   inkscape:pageshadow="2"
   inkscape:window-width="1549"
   inkscape:window-height="845"
   id="namedview62"
   showgrid="false"
   inkscape:zoom="16.32"
   inkscape:cx="0.44668899"
   inkscape:cy="7.2415826"
   inkscape:window-x="51"
   inkscape:window-y="27"
   inkscape:window-maximized="1"
   inkscape:current-layer="Layer_1_31_" />
<g
   id="Layer_1_31_"
   transform="translate(-4.0501396,-15.000959)">
		
	<g
   id="g952"><path
     style="stroke-width:0.8046273;fill:#336699"
     inkscape:connector-curvature="0"
     id="path2"
     d="m 15.553091,15.000959 c -6.3428768,0.0016 -11.5029514,4.991908 -11.5029514,11.123168 0,3.979686 1.614887,6.3469 2.8041261,8.091332 0.7314062,1.073373 1.1457893,1.712247 1.1457893,2.355144 0,1.442697 0.7732471,2.802517 2.14755,3.82198 0.0346,0.855318 0.160925,2.944131 0.160925,2.944131 0,8.18e-4 0,0.0016 0,0.0024 0.02253,0.593011 0.334726,1.808802 2.378479,2.487908 0.240583,0.354036 0.556802,0.668645 0.939805,0.924517 0.239778,0.16173 0.523007,0.249434 0.812673,0.249434 h 2.227209 c 0.289666,0 0.57209,-0.08529 0.812673,-0.249434 0.383808,-0.256677 0.700831,-0.570481 0.939805,-0.924517 2.06226,-0.686347 2.362386,-1.915818 2.379283,-2.491931 0,0 0.125522,-2.085594 0.160121,-2.941717 1.374303,-1.020268 2.148355,-2.379284 2.148355,-3.82198 0,-0.642897 0.413578,-1.282576 1.152226,-2.363995 1.180389,-1.729921 2.798494,-4.099548 2.798494,-8.084062 -8.05e-4,-6.13287 -5.161684,-11.122364 -11.504562,-11.122364 z m 6.295404,17.576279 c -0.849686,1.245563 -1.651095,2.421928 -1.651095,3.993365 0,0.69037 -0.62439,1.246368 -1.089465,1.567414 h -7.108882 c -0.465075,-0.320241 -1.089466,-0.877044 -1.089466,-1.567414 0,-1.571437 -0.802213,-2.747802 -1.6615554,-4.007848 -1.072568,-1.573047 -2.2891643,-3.356906 -2.2891643,-6.437824 0,-4.527637 3.8557737,-8.21283 8.5950287,-8.21444 4.74006,0 8.595029,3.684389 8.595029,8.212832 0,3.087354 -1.219011,4.868799 -2.30043,6.453915 z" /><path
     sodipodi:nodetypes="csc"
     inkscape:connector-curvature="0"
     id="path899"
     d="m 15.250818,20.039281 c 0,0 2.775644,0.282313 4.376347,1.658405 2.291755,1.970176 2.073006,4.652747 2.073006,4.652747"
     style="fill:none;stroke:#336699;stroke-width:1.5;stroke-linecap:round;stroke-linejoin:miter;stroke-opacity:1;stroke-miterlimit:4;stroke-dasharray:none" /></g></g>
<g
   id="g31"
   transform="translate(-4.0501396,-15.000959)">
</g>
<g
   id="g33"
   transform="translate(-4.0501396,-15.000959)">
</g>
<g
   id="g35"
   transform="translate(-4.0501396,-15.000959)">
</g>
<g
   id="g37"
   transform="translate(-4.0501396,-15.000959)">
</g>
<g
   id="g39"
   transform="translate(-4.0501396,-15.000959)">
</g>
<g
   id="g41"
   transform="translate(-4.0501396,-15.000959)">
</g>
<g
   id="g43"
   transform="translate(-4.0501396,-15.000959)">
</g>
<g
   id="g45"
   transform="translate(-4.0501396,-15.000959)">
</g>
<g
   id="g47"
   transform="translate(-4.0501396,-15.000959)">
</g>
<g
   id="g49"
   transform="translate(-4.0501396,-15.000959)">
</g>
<g
   id="g51"
   transform="translate(-4.0501396,-15.000959)">
</g>
<g
   id="g53"
   transform="translate(-4.0501396,-15.000959)">
</g>
<g
   id="g55"
   transform="translate(-4.0501396,-15.000959)">
</g>
<g
   id="g57"
   transform="translate(-4.0501396,-15.000959)">
</g>
<g
   id="g59"
   transform="translate(-4.0501396,-15.000959)">
</g>
</svg>