<?xml version="1.0" encoding="UTF-8" standalone="no"?>
<!-- Created with Inkscape (http://www.inkscape.org/) -->
<svg id="svg8" xmlns:rdf="http://www.w3.org/1999/02/22-rdf-syntax-ns#" xmlns="http://www.w3.org/2000/svg" height="300" width="300" version="1.1" xmlns:cc="http://creativecommons.org/ns#" xmlns:dc="http://purl.org/dc/elements/1.1/" viewBox="0 0 79.374998 79.375002">
 <metadata id="metadata5">
  <rdf:RDF>
   <cc:Work rdf:about="">
    <dc:format>image/svg+xml</dc:format>
    <dc:type rdf:resource="http://purl.org/dc/dcmitype/StillImage"/>
    <dc:title/>
   </cc:Work>
  </rdf:RDF>
 </metadata>
 <g id="layer1" transform="translate(0 -217.62)">
  <g id="flowRoot936" aria-label="@" transform="matrix(2.8043 0 0 2.561 -87.245 88.259)" fill="#369">
   <path id="path947" fill="#369" d="m47.871 72.163q-1.4258 2.4219-5.0977 2.4219-1.0156 0.01953-1.9141-0.48828-2.5391-1.3672-2.5391-5.2344 0-4.668 2.4219-7.8125t6.6602-3.1445q2.3242 0 4.2969 0.58594l-1.4062 10.098q-0.05859 0.41016-0.05859 0.97656 0 1.4648 1.3477 1.4648 3.2617 0.01953 4.6094-5.0195 0.48828-1.8164 0.48828-3.7305 0-3.9648-2.3047-6.2109-2.2852-2.2656-6.4258-2.2656-6.1133 0-9.9414 3.9648-3.8086 3.9648-3.8086 10.078 0 4.5703 2.8711 7.5586 2.8906 2.9883 7.5 2.9883 2.5977 0 5.0195-1.1328l0.95703 2.7734q-3.125 1.4844-6.2109 1.4844-5.918 0-9.5508-3.8672-3.6133-3.8477-3.6133-9.6289 0-7.5781 4.7656-12.5 4.8047-4.9609 12.461-4.9609 5.1758 0 8.1445 3.2617 2.9883 3.2617 2.9883 8.5938 0 4.3359-2.0312 7.6172-1.9922 3.2812-5.4297 4.1406-0.66406 0.15625-1.3281 0.15625-2.2852 0-2.8711-2.168zm-6.2305-4.375q0 3.3984 2.6953 3.3984 1.1719 0 1.9727-0.58594 0.82031-0.58594 0.97656-1.7969l0.99609-7.3047q-0.64453-0.19531-1.6992-0.19531-1.0352 0-2.0312 0.56641-0.99609 0.54688-1.6406 1.4453-1.2695 1.7969-1.2695 4.4727z"/>
  </g>
 </g>
</svg>
