<?xml version="1.0" encoding="UTF-8" standalone="no"?>
<!-- Created with Inkscape (http://www.inkscape.org/) -->
<svg id="svg8" xmlns:rdf="http://www.w3.org/1999/02/22-rdf-syntax-ns#" xmlns="http://www.w3.org/2000/svg" height="102.4mm" width="128.61mm" version="1.1" xmlns:cc="http://creativecommons.org/ns#" xmlns:dc="http://purl.org/dc/elements/1.1/" viewBox="0 0 128.60783 102.3988">
 <metadata id="metadata5">
  <rdf:RDF>
   <cc:Work rdf:about="">
    <dc:format>image/svg+xml</dc:format>
    <dc:type rdf:resource="http://purl.org/dc/dcmitype/StillImage"/>
    <dc:title/>
   </cc:Work>
  </rdf:RDF>
 </metadata>
 <g id="layer1" transform="translate(-14.412 -22.417)">
  <g id="g10" fill="#369" transform="matrix(2.5335 0 0 2.4665 20.154 20.031)">
   <g id="g859">
    <path id="path2" d="m46.461 5.3356-4.751-3.3159c-0.491-0.3429-1.077-0.453-1.627-0.3535-0.551 0.0998-1.066 0.4084-1.411 0.9029l-2.6891 3.8228 8.31 5.7964 2.6893-3.8219c0.694-0.9894 0.461-2.3479-0.521-3.0308z" stroke-width=".94291" fill="#369"/>
    <polygon id="polygon4" transform="matrix(.92858 -.16818 .15940 .92858 .78577 7.8157)" points="43.021 14.431 35.381 6.804 14.336 27.81 21.976 35.437" fill="#369"/>
    <polygon id="polygon6" transform="matrix(.92858 -.16818 .15940 .92858 .78577 7.8157)" points="12.687 29.441 11.056 38.694 20.327 37.067" fill="#369"/>
    <path id="path870" d="m1.7607 19.95h19.787" stroke="#369" stroke-linecap="round" stroke-width="3.9218" fill="none"/>
    <path id="path870-5" d="m1.7607 12.711h19.787" stroke="#369" stroke-linecap="round" stroke-width="3.9218" fill="none"/>
    <path id="path870-5-3" d="m1.7607 5.2022h19.787" stroke="#369" stroke-linecap="round" stroke-width="3.9218" fill="none"/>
    <path id="path870-5-5" d="m0.76173 39.894h14.068" stroke="#369" stroke-linecap="round" stroke-width="3.3068" fill="none"/>
   </g>
  </g>
 </g>
</svg>
