<?xml version="1.0" encoding="UTF-8" standalone="no"?>
<!-- Created with Inkscape (http://www.inkscape.org/) -->

<svg
   xmlns:dc="http://purl.org/dc/elements/1.1/"
   xmlns:cc="http://creativecommons.org/ns#"
   xmlns:rdf="http://www.w3.org/1999/02/22-rdf-syntax-ns#"
   xmlns:svg="http://www.w3.org/2000/svg"
   xmlns="http://www.w3.org/2000/svg"
   xmlns:sodipodi="http://sodipodi.sourceforge.net/DTD/sodipodi-0.dtd"
   xmlns:inkscape="http://www.inkscape.org/namespaces/inkscape"
   width="128.60783mm"
   height="102.3988mm"
   viewBox="0 0 128.60783 102.3988"
   version="1.1"
   id="svg8"
   inkscape:version="0.92.3 (2405546, 2018-03-11)"
   sodipodi:docname="connexion.svg">
  <defs
     id="defs2" />
  <sodipodi:namedview
     id="base"
     pagecolor="#ffffff"
     bordercolor="#666666"
     borderopacity="1.0"
     inkscape:pageopacity="0.0"
     inkscape:pageshadow="2"
     inkscape:zoom="0.54"
     inkscape:cx="438.65455"
     inkscape:cy="131.44607"
     inkscape:document-units="mm"
     inkscape:current-layer="layer1"
     showgrid="false"
     inkscape:window-width="1549"
     inkscape:window-height="845"
     inkscape:window-x="51"
     inkscape:window-y="27"
     inkscape:window-maximized="1" />
  <metadata
     id="metadata5">
    <rdf:RDF>
      <cc:Work
         rdf:about="">
        <dc:format>image/svg+xml</dc:format>
        <dc:type
           rdf:resource="http://purl.org/dc/dcmitype/StillImage" />
        <dc:title />
      </cc:Work>
    </rdf:RDF>
  </metadata>
  <g
     inkscape:label="Calque 1"
     inkscape:groupmode="layer"
     id="layer1"
     transform="translate(-14.411788,-22.416672)">
    <ellipse
       style="fill:none;fill-opacity:1;stroke:#000000;stroke-width:20;stroke-linejoin:round;stroke-miterlimit:4;stroke-dasharray:none;stroke-opacity:1"
       id="path815"
       cx="88.79641"
       cy="73.616074"
       rx="44.223213"
       ry="41.199402" />
    <rect
       style="fill:#ffffff;fill-opacity:1;stroke:none;stroke-width:1;stroke-linecap:butt;stroke-linejoin:round;stroke-miterlimit:4;stroke-dasharray:none;stroke-opacity:1;paint-order:markers stroke fill"
       id="rect819"
       width="46.547066"
       height="44.587193"
       x="61.872826"
       y="-2.3511081"
       ry="1.2739185"
       transform="rotate(45)" />
    <g
       id="g4616"
       transform="matrix(-0.14209107,0,0,0.13629154,114.08441,40.291338)">
      <g
         id="g4614">
        <path
           d="m 464.344,207.418 0.768,0.168 H 135.888 L 239.384,103.862 c 5.068,-5.064 7.848,-11.924 7.848,-19.124 0,-7.2 -2.78,-14.012 -7.848,-19.088 L 223.28,49.538 c -5.064,-5.064 -11.812,-7.864 -19.008,-7.864 -7.2,0 -13.952,2.78 -19.016,7.844 L 7.844,226.914 C 2.76,231.998 -0.02,238.77 0,245.974 c -0.02,7.244 2.76,14.02 7.844,19.096 l 177.412,177.412 c 5.064,5.06 11.812,7.844 19.016,7.844 7.196,0 13.944,-2.788 19.008,-7.844 l 16.104,-16.112 c 5.068,-5.056 7.848,-11.808 7.848,-19.008 0,-7.196 -2.78,-13.592 -7.848,-18.652 L 134.72,284.406 h 329.992 c 14.828,0 27.288,-12.78 27.288,-27.6 v -22.788 c 0,-14.82 -12.828,-26.6 -27.656,-26.6 z"
           id="path4612"
           inkscape:connector-curvature="0" />
      </g>
    </g>
  </g>
</svg>
