<?xml version="1.0" encoding="UTF-8" standalone="no"?>
<svg
   xmlns:dc="http://purl.org/dc/elements/1.1/"
   xmlns:cc="http://creativecommons.org/ns#"
   xmlns:rdf="http://www.w3.org/1999/02/22-rdf-syntax-ns#"
   xmlns:svg="http://www.w3.org/2000/svg"
   xmlns="http://www.w3.org/2000/svg"
   xmlns:sodipodi="http://sodipodi.sourceforge.net/DTD/sodipodi-0.dtd"
   xmlns:inkscape="http://www.inkscape.org/namespaces/inkscape"
   version="1.1"
   id="Capa_1"
   x="0px"
   y="0px"
   viewBox="0 0 350 350"
   style="enable-background:new 0 0 350 350;"
   xml:space="preserve"
   width="512px"
   height="512px"
   class=""
   inkscape:version="0.91 r13725"
   sodipodi:docname="contact-prenom.svg"><metadata
     id="metadata19"><rdf:RDF><cc:Work
         rdf:about=""><dc:format>image/svg+xml</dc:format><dc:type
           rdf:resource="http://purl.org/dc/dcmitype/StillImage" /><dc:title></dc:title></cc:Work></rdf:RDF></metadata><defs
     id="defs17" /><sodipodi:namedview
     pagecolor="#ffffff"
     bordercolor="#666666"
     borderopacity="1"
     objecttolerance="10"
     gridtolerance="10"
     guidetolerance="10"
     inkscape:pageopacity="0"
     inkscape:pageshadow="2"
     inkscape:window-width="1863"
     inkscape:window-height="1056"
     id="namedview15"
     showgrid="false"
     inkscape:zoom="0.65186406"
     inkscape:cx="549.20776"
     inkscape:cy="256"
     inkscape:window-x="57"
     inkscape:window-y="24"
     inkscape:window-maximized="1"
     inkscape:current-layer="Capa_1" /><g
     id="g3"><g
       id="g5"><path
         d="M175,171.173c38.914,0,70.463-38.318,70.463-85.586C245.463,38.318,235.105,0,175,0s-70.465,38.318-70.465,85.587   C104.535,132.855,136.084,171.173,175,171.173z"
         data-original="#000000"
         class="active-path"
         data-old_color="#222222"
         fill="#555555"
         id="path7" /><path
         d="M41.909,301.853C41.897,298.971,41.885,301.041,41.909,301.853L41.909,301.853z"
         data-original="#000000"
         class="active-path"
         data-old_color="#222222"
         fill="#555555"
         id="path9" /><path
         d="M308.085,304.104C308.123,303.315,308.098,298.63,308.085,304.104L308.085,304.104z"
         data-original="#000000"
         class="active-path"
         data-old_color="#222222"
         fill="#555555"
         id="path11" /><path
         d="M307.935,298.397c-1.305-82.342-12.059-105.805-94.352-120.657c0,0-11.584,14.761-38.584,14.761   s-38.586-14.761-38.586-14.761c-81.395,14.69-92.803,37.805-94.303,117.982c-0.123,6.547-0.18,6.891-0.202,6.131   c0.005,1.424,0.011,4.058,0.011,8.651c0,0,19.592,39.496,133.08,39.496c113.486,0,133.08-39.496,133.08-39.496   c0-2.951,0.002-5.003,0.005-6.399C308.062,304.575,308.018,303.664,307.935,298.397z"
         data-original="#000000"
         class="active-path"
         data-old_color="#222222"
         fill="#555555"
         id="path13" /></g></g><rect
     style="fill:#ffffff"
     id="rect3351"
     width="20.973518"
     height="82.845337"
     x="221.27048"
     y="224.15897"
     ry="10.486759"
     rx="10.486759" /><rect
     style="fill:#ffffff"
     id="rect3351-1"
     width="20.973518"
     height="82.845337"
     x="-278.16116"
     y="189.73407"
     ry="10.486759"
     rx="10.486759"
     transform="matrix(-0.00224563,-0.99999748,0.99999748,-0.00224563,0,0)" /></svg>