<?xml version="1.0" encoding="UTF-8" standalone="no"?>
<!-- Created with Inkscape (http://www.inkscape.org/) -->
<svg id="svg8" xmlns:rdf="http://www.w3.org/1999/02/22-rdf-syntax-ns#" xmlns="http://www.w3.org/2000/svg" height="99.878mm" width="92.005mm" version="1.1" xmlns:cc="http://creativecommons.org/ns#" xmlns:dc="http://purl.org/dc/elements/1.1/" viewBox="0 0 92.005002 99.87817">
 <metadata id="metadata5">
  <rdf:RDF>
   <cc:Work rdf:about="">
    <dc:format>image/svg+xml</dc:format>
    <dc:type rdf:resource="http://purl.org/dc/dcmitype/StillImage"/>
    <dc:title/>
   </cc:Work>
  </rdf:RDF>
 </metadata>
 <g id="layer1" transform="translate(-42.405 -25.291)">
  <path id="path815" d="m-72.416 6.5346a40.51 40.507 0 0 1 -40.504 40.507 40.51 40.507 0 0 1 -40.52 -40.491 40.51 40.507 0 0 1 40.49 -40.524" transform="rotate(225)" stroke="#369" stroke-linecap="square" stroke-width="18.98" fill="none"/>
  <g id="g4616" fill="#369" transform="matrix(.10516 0 0 .11451 49.266 46.639)">
   <g id="g4614" fill="#369">
    <path id="path4612" fill="#369" d="m464.34 207.42 0.768 0.168h-329.22l103.49-103.73c5.068-5.064 7.848-11.924 7.848-19.124s-2.78-14.012-7.848-19.088l-16.1-16.11c-5.064-5.064-11.812-7.864-19.008-7.864-7.2 0-13.952 2.78-19.016 7.844l-177.42 177.39c-5.08 5.09-7.86 11.86-7.84 19.06-0.02 7.244 2.76 14.02 7.844 19.096l177.41 177.41c5.064 5.06 11.812 7.844 19.016 7.844 7.196 0 13.944-2.788 19.008-7.844l16.104-16.112c5.068-5.056 7.848-11.808 7.848-19.008 0-7.196-2.78-13.592-7.848-18.652l-104.65-104.3h329.99c14.828 0 27.288-12.78 27.288-27.6v-22.788c0-14.82-12.828-26.6-27.656-26.6z"/>
   </g>
  </g>
 </g>
</svg>
