<?xml version="1.0" encoding="UTF-8" standalone="no"?>
<!-- Created with Inkscape (http://www.inkscape.org/) -->

<svg
   xmlns:dc="http://purl.org/dc/elements/1.1/"
   xmlns:cc="http://creativecommons.org/ns#"
   xmlns:rdf="http://www.w3.org/1999/02/22-rdf-syntax-ns#"
   xmlns:svg="http://www.w3.org/2000/svg"
   xmlns="http://www.w3.org/2000/svg"
   xmlns:sodipodi="http://sodipodi.sourceforge.net/DTD/sodipodi-0.dtd"
   xmlns:inkscape="http://www.inkscape.org/namespaces/inkscape"
   width="58.163258"
   height="32.000004"
   viewBox="0 0 58.163258 32.000004"
   version="1.1"
   id="SVGRoot"
   inkscape:version="0.92.3 (2405546, 2018-03-11)"
   sodipodi:docname="forum.svg">
  <sodipodi:namedview
     id="base"
     pagecolor="#ffffff"
     bordercolor="#666666"
     borderopacity="1.0"
     inkscape:pageopacity="0.0"
     inkscape:pageshadow="2"
     inkscape:zoom="8"
     inkscape:cx="47.45663"
     inkscape:cy="16.500001"
     inkscape:document-units="px"
     inkscape:current-layer="layer1"
     showgrid="false"
     inkscape:window-width="1549"
     inkscape:window-height="845"
     inkscape:window-x="51"
     inkscape:window-y="27"
     inkscape:window-maximized="1"
     inkscape:grid-bbox="true" />
  <defs
     id="defs3537" />
  <metadata
     id="metadata3540">
    <rdf:RDF>
      <cc:Work
         rdf:about="">
        <dc:format>image/svg+xml</dc:format>
        <dc:type
           rdf:resource="http://purl.org/dc/dcmitype/StillImage" />
        <dc:title></dc:title>
      </cc:Work>
    </rdf:RDF>
  </metadata>
  <g
     id="layer1"
     inkscape:groupmode="layer"
     inkscape:label="Calque 1"
     transform="translate(31.45663,-0.4999989)">
    <g
       transform="matrix(0.06692269,0,0,0.06692269,-31.444675,0.46444187)"
       id="g7726">
      <g
         style="fill:#ffffff;stroke:#336699;stroke-width:37.79499817;stroke-linecap:round"
         id="g1010">
        <path
           inkscape:connector-curvature="0"
           d="m 683.43,338.61 c -2.8832,-14.342 -9.6039,61.985 42.294,60.759 51.07,-1.2071 102.08,-15.625 102.08,-15.625 0,0 -46.875,77.083 -138.54,69.792 -91.66,-7.3 -117.41,-101.6 -117.41,-101.6 -112.22,-2.38 -198.89,-63.25 -209.57,-147.9 -10.68,-84.66 63.61,-162.07 173.21,-180.5 109.59,-18.431 220.15,27.893 257.77,108.01 37.62,80.13 -9.48,168.92 -109.83,207.06"
           id="path925-7" />
        <path
           inkscape:connector-curvature="0"
           d="m 183.72,344.39 c 2.8832,-14.342 9.6039,61.985 -42.294,60.759 -51.07,-1.2071 -100.08,-15.625 -100.08,-15.625 0,0 46.875,77.083 138.54,69.792 91.667,-7.2917 94.496,-101.59 94.496,-101.59 m -88.67,-13.34 C 80.692,310.686 26.342,222.296 59.862,139.726 93.385,57.154 203.922,7.166 315.782,23.996 c 111.86,16.826 188.8,95.01 178.13,181.02 -10.68,86.01 -105.5,151.96 -219.54,152.7"
           id="path925" />
      </g>
      <g
         style="fill:#336699"
         transform="matrix(11.372,2.5474,-3.8611,7.9878,-1756.6,741.84)"
         aria-label="!"
         id="flowRoot917">
        <path
           style="fill:#336699"
           inkscape:connector-curvature="0"
           d="m 170.58,-130.71 q 0,0.91797 -0.0977,1.7773 -0.0976,0.83985 -0.2539,1.8945 l -1.3672,9.9219 h -1.8945 l -1.2695,-9.1602 q -0.0977,-0.68359 -0.17579,-1.2695 -0.0781,-0.58594 -0.15625,-1.1133 -0.0781,-0.52734 -0.11718,-1.0352 -0.0391,-0.50781 -0.0391,-1.0547 0,-2.3242 0.70313,-3.3984 0.72266,-1.0742 2.0312,-1.0742 0.64453,0 1.1328,0.23438 0.48828,0.21484 0.82031,0.74218 0.35157,0.52735 0.50782,1.4062 0.17578,0.85938 0.17578,2.1289 z m 0.42969,18.516 q 0,0.64453 -0.23438,1.2109 -0.23437,0.56641 -0.64453,0.97656 -0.41016,0.41016 -0.97656,0.66407 -0.54688,0.23437 -1.1719,0.23437 -0.64453,0 -1.2109,-0.23437 -0.5664,-0.25391 -0.97656,-0.66407 -0.41015,-0.41015 -0.66406,-0.97656 -0.23438,-0.56641 -0.23438,-1.2109 0,-0.625 0.23438,-1.1719 0.25391,-0.56641 0.66406,-0.97656 0.41016,-0.41016 0.97656,-0.64454 0.56641,-0.23437 1.2109,-0.23437 0.625,0 1.1719,0.23437 0.5664,0.23438 0.97656,0.64454 0.41016,0.41015 0.64453,0.97656 0.23438,0.54687 0.23438,1.1719 z"
           id="path1035" />
      </g>
      <g
         transform="matrix(10.971,-2.6437,2.6412,8.1097,3103.3,57.856)"
         style="fill:#336699;image-rendering:auto"
         aria-label="?"
         id="flowRoot909">
        <path
           style="fill:#336699"
           inkscape:connector-curvature="0"
           d="m -236.89,-69.73 q 0,1.25 -0.41016,2.2852 -0.39062,1.0156 -0.99609,1.9336 -0.60547,0.89844 -1.3086,1.7188 -0.70313,0.82031 -1.3086,1.6406 -0.60547,0.80078 -1.0156,1.6406 -0.39063,0.83984 -0.39063,1.7773 0,0.11719 0.0195,0.29297 0.0195,0.15625 0.0586,0.3125 l 0.0781,0.39062 -2.4414,-0.03906 q -0.35157,-0.72266 -0.58594,-1.5039 -0.21485,-0.80078 -0.21485,-1.9727 0,-0.78125 0.23438,-1.543 0.23437,-0.78125 0.58594,-1.5039 0.35156,-0.74219 0.76172,-1.4258 0.41015,-0.68359 0.76171,-1.2891 0.35157,-0.625 0.58594,-1.1719 0.23438,-0.54688 0.23438,-1.0156 0,-1.0352 -0.6836,-1.7188 -0.68359,-0.68359 -1.9141,-0.68359 -0.58594,0 -1.0156,0.15625 -0.41016,0.13672 -0.70313,0.37109 -0.27344,0.23438 -0.44922,0.52734 -0.17578,0.27344 -0.27344,0.54688 h -1.4453 q -0.44922,-0.39062 -0.70312,-0.97656 -0.25391,-0.58594 -0.25391,-1.0352 0,-0.58594 0.33203,-1.25 0.35156,-0.68359 1.0742,-1.25 0.74219,-0.56641 1.8945,-0.9375 1.1524,-0.39062 2.7734,-0.39062 1.6211,0 2.8711,0.52734 1.2695,0.50781 2.1094,1.3672 0.85937,0.85938 1.2891,1.9727 0.44922,1.0938 0.44922,2.2461 z m -3.5547,16.914 q 0,0.64453 -0.23437,1.2109 -0.23438,0.56641 -0.64453,0.97656 -0.41016,0.41016 -0.97657,0.66406 -0.54687,0.23438 -1.1719,0.23438 -0.64453,0 -1.2109,-0.23438 -0.56641,-0.25391 -0.97656,-0.66406 -0.41016,-0.41016 -0.66406,-0.97656 -0.23438,-0.56641 -0.23438,-1.2109 0,-0.625 0.23438,-1.1719 0.2539,-0.56641 0.66406,-0.97656 0.41015,-0.41016 0.97656,-0.64453 0.56641,-0.23438 1.2109,-0.23438 0.625,0 1.1719,0.23438 0.56641,0.23438 0.97657,0.64453 0.41015,0.41016 0.64453,0.97656 0.23437,0.54688 0.23437,1.1719 z"
           id="path1032" />
      </g>
    </g>
  </g>
</svg>
