<?xml version="1.0" encoding="UTF-8" standalone="no"?>
<!-- Generator: Adobe Illustrator 18.1.1, SVG Export Plug-In . SVG Version: 6.00 Build 0)  -->
<svg id="Capa_1" xmlns:rdf="http://www.w3.org/1999/02/22-rdf-syntax-ns#" style="enable-background:new 0 0 26 26" xmlns="http://www.w3.org/2000/svg" xml:space="preserve" viewBox="0 0 26 26" version="1.1" y="0px" x="0px" xmlns:cc="http://creativecommons.org/ns#" xmlns:dc="http://purl.org/dc/elements/1.1/"><metadata id="metadata1088"><rdf:RDF><cc:Work rdf:about=""><dc:format>image/svg+xml</dc:format><dc:type rdf:resource="http://purl.org/dc/dcmitype/StillImage"/></cc:Work></rdf:RDF></metadata>
<g id="g1051" fill="#369">
	<path id="path1049" fill="#369" d="m19 24.968v1h-12v-1c0-0.551 0.449-1 1-1h2.013c0.053-1.248 0.863-2.29 1.987-2.689v-11.725c-0.527-0.333-0.88-0.917-0.88-1.587h3.76c0 0.67-0.353 1.254-0.88 1.587v11.724c1.124 0.399 1.934 1.441 1.987 2.689h2.013c0.551 0.001 1 0.45 1 1.001zm7-9.001c-0.733 2.064-2.685 3.553-5 3.553s-4.267-1.49-5-3.553h1.154l3.378-8.953c0.146-0.39 0.789-0.39 0.936 0l3.378 8.953h1.154zm-2.223 0l-2.777-7.359-2.777 7.36h5.554zm-18.777-9.989c0.453 0 0.822-0.303 0.95-0.714 0.331-0.126 0.67-0.296 1.018-0.472 0.765-0.386 1.632-0.825 2.532-0.825 0.864 0 1.404 0.399 1.713 0.739-0.012 0.086-0.026 0.172-0.026 0.261 0 1.001 0.812 1.813 1.813 1.813s1.813-0.812 1.813-1.813c0-0.089-0.014-0.174-0.026-0.26 0.308-0.339 0.848-0.74 1.713-0.74 0.9 0 1.767 0.438 2.531 0.824 0.349 0.176 0.688 0.346 1.019 0.472 0.128 0.411 0.497 0.714 0.95 0.714 0.558 0 1.01-0.452 1.01-1.01s-0.452-1.01-1.01-1.01c-0.288 0-0.545 0.124-0.729 0.318-0.247-0.104-0.514-0.237-0.789-0.376-0.864-0.437-1.843-0.932-2.982-0.932-0.996 0-1.69 0.379-2.161 0.787-0.211-0.233-0.481-0.407-0.788-0.506 0.373-0.2 0.635-0.581 0.635-1.032 0-0.655-1.186-2.184-1.186-2.184s-1.186 1.529-1.186 2.184c0 0.452 0.262 0.832 0.635 1.032-0.307 0.098-0.577 0.273-0.788 0.506-0.471-0.408-1.165-0.787-2.161-0.787-1.139 0-2.119 0.495-2.983 0.932-0.275 0.14-0.541 0.273-0.788 0.376-0.184-0.193-0.441-0.318-0.729-0.318-0.558 0-1.01 0.452-1.01 1.01s0.452 1.011 1.01 1.011zm0 13.543c-2.315 0-4.267-1.49-5-3.553h1.154l3.378-8.953c0.146-0.39 0.789-0.39 0.936 0l3.378 8.953h1.154c-0.733 2.063-2.685 3.553-5 3.553zm2.777-3.554l-2.777-7.359-2.777 7.36h5.554z"/>
</g>
</svg>
