<?xml version="1.0" encoding="UTF-8" standalone="no"?>
<!-- Generator: Adobe Illustrator 18.1.1, SVG Export Plug-In . SVG Version: 6.00 Build 0)  -->
<svg id="Capa_1" xmlns:rdf="http://www.w3.org/1999/02/22-rdf-syntax-ns#" style="enable-background:new 0 0 250.313 250.313" xmlns="http://www.w3.org/2000/svg" xml:space="preserve" viewBox="0 0 250.313 250.313" version="1.1" y="0px" x="0px" xmlns:cc="http://creativecommons.org/ns#" xmlns:dc="http://purl.org/dc/elements/1.1/"><metadata id="metadata40"><rdf:RDF><cc:Work rdf:about=""><dc:format>image/svg+xml</dc:format><dc:type rdf:resource="http://purl.org/dc/dcmitype/StillImage"/><dc:title/></cc:Work></rdf:RDF></metadata>
<g id="Search">
	<path id="path2" d="m244.19 214.6-54.379-54.378c-0.289-0.289-0.628-0.491-0.93-0.76 10.7-16.231 16.945-35.66 16.945-56.554 0-56.835-46.07-102.91-102.91-102.91-56.835 0-102.91 46.075-102.91 102.91s46.074 102.91 102.91 102.91c20.895 0 40.323-6.245 56.554-16.945 0.269 0.301 0.47 0.64 0.759 0.929l54.38 54.38c8.169 8.168 21.413 8.168 29.583 0 8.168-8.169 8.168-21.413 0-29.582zm-141.28-46.45c-37.134 0-65.236-28.102-65.236-65.235 0-37.134 28.103-65.236 65.236-65.236 37.132 0 65.235 28.103 65.235 65.236s-28.103 65.235-65.235 65.235z" fill-rule="evenodd" clip-rule="evenodd" fill="#369"/>
<path id="path1402" stroke-linejoin="round" d="m60.119 106.82c0.000002-25.82 21.771-46.752 48.627-46.752" stroke="#369" stroke-linecap="round" stroke-width="20" fill="none"/></g>
</svg>
