<?xml version="1.0" encoding="UTF-8" standalone="no"?>
<!-- Generator: Adobe Illustrator 16.0.0, SVG Export Plug-In . SVG Version: 6.00 Build 0)  -->

<svg
   xmlns:dc="http://purl.org/dc/elements/1.1/"
   xmlns:cc="http://creativecommons.org/ns#"
   xmlns:rdf="http://www.w3.org/1999/02/22-rdf-syntax-ns#"
   xmlns:svg="http://www.w3.org/2000/svg"
   xmlns="http://www.w3.org/2000/svg"
   xmlns:sodipodi="http://sodipodi.sourceforge.net/DTD/sodipodi-0.dtd"
   xmlns:inkscape="http://www.inkscape.org/namespaces/inkscape"
   version="1.1"
   id="Capa_1"
   x="0px"
   y="0px"
   width="438.536px"
   height="438.536px"
   viewBox="0 0 438.536 438.536"
   style="enable-background:new 0 0 438.536 438.536;"
   xml:space="preserve"
   sodipodi:docname="rss.svg"
   inkscape:version="0.92.3 (2405546, 2018-03-11)"><metadata
   id="metadata949"><rdf:RDF><cc:Work
       rdf:about=""><dc:format>image/svg+xml</dc:format><dc:type
         rdf:resource="http://purl.org/dc/dcmitype/StillImage" /></cc:Work></rdf:RDF></metadata><defs
   id="defs947" /><sodipodi:namedview
   pagecolor="#ffffff"
   bordercolor="#666666"
   borderopacity="1"
   objecttolerance="10"
   gridtolerance="10"
   guidetolerance="10"
   inkscape:pageopacity="0"
   inkscape:pageshadow="2"
   inkscape:window-width="1549"
   inkscape:window-height="845"
   id="namedview945"
   showgrid="false"
   inkscape:zoom="1.5141288"
   inkscape:cx="219.26801"
   inkscape:cy="219.26801"
   inkscape:window-x="51"
   inkscape:window-y="27"
   inkscape:window-maximized="1"
   inkscape:current-layer="g912" />
<g
   id="g912"
   style="fill:#ec7942;fill-opacity:1">
	<rect
   style="fill:#ffffff;fill-opacity:1;stroke:none;stroke-width:37.79527664;stroke-linecap:round;stroke-linejoin:miter;stroke-miterlimit:4;stroke-dasharray:none;stroke-opacity:1;paint-order:markers fill stroke"
   id="rect951"
   width="352.67807"
   height="319.65576"
   x="32.361843"
   y="64.06324"
   ry="40" /><path
   d="M414.41,24.123C398.333,8.042,378.963,0,356.315,0H82.228C59.58,0,40.21,8.042,24.126,24.123   C8.045,40.207,0.003,59.576,0.003,82.225v274.084c0,22.647,8.042,42.018,24.123,58.102c16.084,16.084,35.454,24.126,58.102,24.126   h274.084c22.648,0,42.018-8.042,58.095-24.126c16.084-16.084,24.126-35.454,24.126-58.102V82.225   C438.532,59.576,430.49,40.204,414.41,24.123z M135.475,354.741c-7.142,7.132-15.752,10.704-25.841,10.704   c-10.085,0-18.699-3.572-25.837-10.704c-7.137-7.139-10.708-15.756-10.708-25.844c0-10.082,3.571-18.699,10.708-25.838   c7.139-7.139,15.752-10.704,25.837-10.704c10.089,0,18.702,3.565,25.841,10.704c7.135,7.139,10.706,15.756,10.706,25.838   C146.181,338.985,142.613,347.603,135.475,354.741z M243.818,362.585c-1.902,1.902-4.093,2.847-6.57,2.847h-36.54   c-2.475,0-4.567-0.801-6.28-2.423c-1.714-1.615-2.667-3.661-2.856-6.139c-2.093-29.308-13.608-54.434-34.546-75.377   c-20.937-20.93-46.059-32.448-75.374-34.543c-2.474-0.185-4.521-1.137-6.136-2.848c-1.619-1.711-2.428-3.806-2.428-6.283v-36.543   c0-2.475,0.953-4.665,2.855-6.567c1.903-1.903,4.187-2.758,6.854-2.57c44.158,2.474,81.843,19.323,113.058,50.537   c31.217,31.221,48.064,68.898,50.535,113.062C246.584,358.403,245.722,360.682,243.818,362.585z M353.451,362.585   c-1.903,1.902-4.087,2.854-6.563,2.854h-36.546c-2.474,0-4.568-0.856-6.279-2.567s-2.663-3.806-2.854-6.283   c-1.334-38.827-11.946-74.802-31.833-107.921c-19.89-33.12-46.394-59.623-79.514-79.509c-33.12-19.892-69.09-30.502-107.921-31.833   c-2.474-0.19-4.567-1.143-6.28-2.854c-1.711-1.713-2.568-3.809-2.568-6.283V91.644c0-2.474,0.953-4.661,2.855-6.567   c1.713-1.903,3.9-2.758,6.567-2.565c29.309,0.95,57.624,6.276,84.936,15.987c27.312,9.704,52.056,22.98,74.235,39.825   c22.176,16.842,41.686,36.354,58.525,58.529c16.841,22.175,30.122,46.921,39.831,74.23c9.702,27.315,15.037,55.631,15.984,84.938   C356.407,358.69,355.556,360.874,353.451,362.585z"
   id="path910"
   style="fill:#ec7942;fill-opacity:1" />
</g>
<g
   id="g914">
</g>
<g
   id="g916">
</g>
<g
   id="g918">
</g>
<g
   id="g920">
</g>
<g
   id="g922">
</g>
<g
   id="g924">
</g>
<g
   id="g926">
</g>
<g
   id="g928">
</g>
<g
   id="g930">
</g>
<g
   id="g932">
</g>
<g
   id="g934">
</g>
<g
   id="g936">
</g>
<g
   id="g938">
</g>
<g
   id="g940">
</g>
<g
   id="g942">
</g>
</svg>