<?xml version="1.0" encoding="UTF-8" standalone="no"?>
<!-- Generator: Adobe Illustrator 16.0.0, SVG Export Plug-In . SVG Version: 6.00 Build 0)  -->

<svg
   xmlns:dc="http://purl.org/dc/elements/1.1/"
   xmlns:cc="http://creativecommons.org/ns#"
   xmlns:rdf="http://www.w3.org/1999/02/22-rdf-syntax-ns#"
   xmlns:svg="http://www.w3.org/2000/svg"
   xmlns="http://www.w3.org/2000/svg"
   xmlns:sodipodi="http://sodipodi.sourceforge.net/DTD/sodipodi-0.dtd"
   xmlns:inkscape="http://www.inkscape.org/namespaces/inkscape"
   version="1.1"
   id="Capa_1"
   x="0px"
   y="0px"
   width="560.79999"
   height="479.71899"
   viewBox="0 0 560.8 479.719"
   xml:space="preserve"
   sodipodi:docname="rubexpose.svg"
   inkscape:version="0.92.3 (2405546, 2018-03-11)"
   inkscape:export-filename="/home/jean-christophe/html/EscalV4/plugins/auto/escal/images/rubexpose.png"
   inkscape:export-xdpi="2.7389445"
   inkscape:export-ydpi="2.7389445"><metadata
   id="metadata4752"><rdf:RDF><cc:Work
       rdf:about=""><dc:format>image/svg+xml</dc:format><dc:type
         rdf:resource="http://purl.org/dc/dcmitype/StillImage" /><dc:title></dc:title></cc:Work></rdf:RDF></metadata><defs
   id="defs4750" /><sodipodi:namedview
   pagecolor="#ffffff"
   bordercolor="#666666"
   borderopacity="1"
   objecttolerance="10"
   gridtolerance="10"
   guidetolerance="10"
   inkscape:pageopacity="0"
   inkscape:pageshadow="2"
   inkscape:window-width="1549"
   inkscape:window-height="845"
   id="namedview4748"
   showgrid="false"
   inkscape:zoom="0.32"
   inkscape:cx="-147.15002"
   inkscape:cy="239.859"
   inkscape:window-x="51"
   inkscape:window-y="27"
   inkscape:window-maximized="1"
   inkscape:current-layer="g4713"
   fit-margin-top="0"
   fit-margin-left="0"
   fit-margin-right="0"
   fit-margin-bottom="0"
   inkscape:pagecheckerboard="false"
   showborder="true" />
<g
   id="g4715"
   transform="translate(0,-40.54)">
	<g
   id="g4713">
		<path
   d="m 412.154,222.968 c -82.087,0 -148.646,66.594 -148.646,148.645 0,82.055 66.555,148.646 148.646,148.646 82.128,0 148.646,-66.592 148.646,-148.646 0,-82.053 -66.518,-148.645 -148.646,-148.645 z m 99.99,175.342 h -74.652 v 74.651 H 386.818 V 398.31 h -74.651 v -50.677 h 74.651 V 272.98 h 50.674 v 74.652 h 74.652 z"
   id="path4709"
   inkscape:export-xdpi="2.7389445"
   inkscape:export-ydpi="2.7389445"
   style="fill:#336699;fill-opacity:1"
   inkscape:connector-curvature="0" />
		<path
   d="M 543.909,108.105 H 314.183 c -9.33,0 -22.24,-1.971 -28.834,-8.565 L 234.913,52.483 C 228.316,45.885 215.406,40.54 206.079,40.54 H 16.891 C 7.562,40.54 0,48.102 0,57.431 v 371.616 c 0,9.33 7.562,16.892 16.891,16.892 h 225.207 c -10.016,-22.791 -15.75,-47.868 -15.75,-74.325 0,-102.448 83.361,-185.806 185.806,-185.806 61.005,0 114.75,29.939 148.646,75.484 V 124.996 c 0,-9.33 -7.561,-16.891 -16.891,-16.891 z"
   id="path4711"
   style="fill:#336699;fill-opacity:1"
   inkscape:export-xdpi="2.7389445"
   inkscape:export-ydpi="2.7389445"
   inkscape:connector-curvature="0" />
	<path
   style="fill:#336699;fill-opacity:1;stroke-width:2.37627125"
   d="M 5.5960891,439.54187 C 2.004791,435.57352 1.6633898,418.48373 1.6633898,242.67965 1.6633898,59.190518 1.8671629,49.978612 6.0089735,46.230325 9.9097797,42.700144 20.740665,42.297626 111.82936,42.297626 c 83.21111,0 102.95719,0.619378 109.71105,3.441323 4.52994,1.892728 21.9925,16.165528 38.80569,31.717334 21.55028,19.933507 32.85665,28.733457 38.32174,29.826477 4.26379,0.85275 62.20267,1.55046 128.75312,1.55046 h 121.00082 l 5.83265,5.83266 5.83268,5.83267 v 68.36633 68.36634 l -17.22797,-16.95155 c -36.49337,-35.90787 -82.12866,-55.44041 -129.40659,-55.38783 -131.63212,0.1464 -222.38744,132.11625 -175.25083,254.83713 1.50765,3.92522 -4.86107,4.15848 -113.53784,4.15848 -108.52316,0 -115.3609372,-0.24956 -119.0677909,-4.34558 z"
   id="path5328"
   inkscape:connector-curvature="0"
   inkscape:export-xdpi="2.7389445"
   inkscape:export-ydpi="2.7389445" /><path
   style="fill:#336699;fill-opacity:1;stroke-width:2.37627125"
   d="M 26.228219,442.12725 C 14.238171,441.55248 8.2689968,440.17966 6.029913,437.48188 3.4344166,434.3547 2.8515254,398.65389 2.8515254,242.81267 2.8515254,62.754228 3.091317,51.733191 7.0960755,47.729345 11.040215,43.786103 18.622816,43.485762 114.23203,43.485762 h 102.89141 l 9.30133,6.450203 c 5.11573,3.547611 21.41078,17.23819 36.21122,30.42351 14.80046,13.185318 29.57324,24.985905 32.82842,26.223525 3.44785,1.31087 57.25062,2.25022 128.88536,2.25022 H 547.3166 l 6.38525,6.66477 6.38526,6.66477 v 67.53423 67.53423 l -17.22797,-16.84463 c -9.47538,-9.26454 -22.32911,-20.26474 -28.56382,-24.44488 -59.3416,-39.78624 -135.40459,-41.54307 -198.43849,-4.58335 -19.28491,11.30764 -52.36638,44.89926 -64.52923,65.52434 -5.56449,9.43594 -13.40436,27.07976 -17.42194,39.20846 -6.6448,20.0601 -7.32083,24.9502 -7.4834,54.13188 -0.17297,31.04698 0.1945,33.60561 9.41728,65.57287 1.36291,4.72401 0.31728,5.05737 -20.49606,6.53475 -21.5972,1.533 -155.905753,1.38855 -189.115261,-0.20341 z"
   id="path5330"
   inkscape:connector-curvature="0"
   inkscape:export-xdpi="2.7389445"
   inkscape:export-ydpi="2.7389445" /><path
   style="fill:#336699;fill-opacity:1;stroke-width:2.37627125"
   d="M 37.807812,441.82705 C 15.644904,440.68561 8.0632811,439.46376 6.3586064,436.75863 4.9970038,434.59794 4.0981058,358.16285 4.0760483,242.6682 4.043568,72.599615 4.4406084,51.74123 7.7738014,48.408038 11.054616,45.127223 24.122773,44.673897 115.41911,44.673897 H 219.33028 L 234.657,57.000929 c 8.42969,6.779868 24.16505,20.179098 34.96744,29.776068 10.80238,9.59697 22.36719,18.485653 25.69961,19.752633 3.62844,1.37954 55.38515,2.30359 129.02572,2.30359 H 547.3166 l 6.38525,6.66477 6.38526,6.66477 v 67.2697 67.2697 l -21.41496,-20.37911 c -16.82809,-16.01409 -26.11686,-22.69582 -43.36695,-31.19525 -32.98081,-16.25024 -55.60983,-21.14035 -90.79031,-19.61971 -47.54697,2.05517 -83.46552,16.8488 -117.3584,48.33594 -29.25757,27.18087 -46.23634,55.40009 -57.7501,95.9824 -5.02465,17.71028 -3.69533,73.88305 2.20314,93.09755 4.47633,14.5818 4.55171,15.99711 0.92957,17.45172 -5.39878,2.16809 -158.638791,3.31019 -194.731288,1.45135 z"
   id="path5332"
   inkscape:connector-curvature="0"
   inkscape:export-xdpi="2.7389445"
   inkscape:export-ydpi="2.7389445" /><path
   style="fill:#336699;fill-opacity:1;stroke-width:2.37627125"
   d="M 45.221604,441.82406 C 25.395827,440.9985 8.2866746,439.43194 7.2012661,438.34282 4.6183112,435.75102 4.6231553,50.42769 7.2061755,47.842259 8.2942839,46.753135 56.459299,45.563146 114.23954,45.197841 L 219.29453,44.533649 242.7787,64.20801 c 12.91632,10.820898 29.88803,25.020971 37.71494,31.555717 l 14.23075,11.881353 126.08091,0.65569 126.08091,0.65569 6.60045,6.32364 6.60045,6.32363 v 67.54922 67.54921 l -21.02687,-20.00979 c -44.89006,-42.71872 -102.68789,-59.89385 -162.83084,-48.3866 -36.55743,6.99459 -64.70216,22.10598 -93.18794,50.03422 -27.81663,27.27219 -44.19373,55.2931 -53.47089,91.48773 -4.96142,19.35682 -4.32946,68.15918 1.16386,89.87908 2.5104,9.92575 3.50747,18.27768 2.32046,19.43721 -2.70707,2.64436 -141.226475,4.6208 -187.833286,2.68005 z"
   id="path5334"
   inkscape:connector-curvature="0"
   inkscape:export-xdpi="2.7389445"
   inkscape:export-ydpi="2.7389445" /><path
   style="fill:#336699;fill-opacity:1;stroke-width:2.37627125"
   d="M 40.467888,441.85726 C 23.255363,441.00472 8.2848553,439.41973 7.2000925,438.33508 4.6181252,435.75335 4.6238002,50.427625 7.2058436,47.842466 8.2937694,46.753228 56.461352,45.553295 114.24492,45.175949 l 105.06102,-0.686085 27.22024,22.818332 c 14.97115,12.550081 31.93314,26.760007 37.69334,31.577609 l 10.47308,8.759275 126.0968,0.65569 126.09681,0.65569 6.60045,6.32364 6.60045,6.32363 v 67.53783 67.53782 L 540.24327,238.0046 c -29.44114,-27.7067 -56.39768,-42.24999 -92.60583,-49.96168 -22.69187,-4.83297 -62.84767,-3.01709 -87.1183,3.93956 -57.7726,16.55927 -107.42369,65.19743 -127.03195,124.44041 -9.45191,28.55729 -10.31278,68.69921 -2.23495,104.21472 2.07471,9.12179 2.86075,17.47148 1.74676,18.55492 -2.65842,2.58548 -152.312562,4.65676 -192.531112,2.66473 z"
   id="path5336"
   inkscape:connector-curvature="0"
   inkscape:export-xdpi="2.7389445"
   inkscape:export-ydpi="2.7389445" /><path
   style="fill:#336699;fill-opacity:1;stroke-width:2.37627125"
   d="M 38.053307,441.83392 C 22.126662,440.95206 8.2254754,439.36037 7.1617827,438.29677 4.6050989,435.74033 4.6485823,50.402813 7.2058436,47.842466 8.2937694,46.753228 56.576858,45.55298 114.5016,45.175249 l 105.3177,-0.686784 35.93211,30.390174 c 19.76266,16.714594 38.31221,31.085571 41.2212,31.935511 2.90901,0.84993 60.42643,1.65192 127.81653,1.7822 l 122.52746,0.23687 6.38525,6.66477 6.38526,6.66477 v 67.30173 67.30173 l -18.01516,-17.11264 c -31.57007,-29.98847 -63.3347,-46.42114 -101.5062,-52.5118 -94.82954,-15.13102 -183.72675,44.9929 -210.96873,142.68465 -4.54665,16.30462 -3.90025,66.55183 1.142,88.77229 2.33041,10.26974 3.33652,19.55422 2.23582,20.63214 -2.63904,2.58446 -157.828167,4.6569 -194.921533,2.60306 z"
   id="path5338"
   inkscape:connector-curvature="0"
   inkscape:export-xdpi="2.7389445"
   inkscape:export-ydpi="2.7389445" /><path
   style="fill:#336699;fill-opacity:1;stroke-width:2.37627125"
   d="M 33.345386,441.88877 C 20.057181,441.02763 8.2946391,439.43222 7.2064046,438.34344 4.6204019,435.75616 4.6196498,50.433369 7.2056423,47.843128 8.2934574,46.753526 56.602013,45.543315 114.55799,45.153771 l 105.3745,-0.708262 28.92348,24.470973 c 15.9079,13.459036 33.19943,27.67894 38.42563,31.599788 l 9.50217,7.12881 125.07227,0.67587 125.07227,0.67586 6.5794,6.30346 6.5794,6.30346 v 67.58125 67.58124 l -17.23177,-16.34193 c -30.95229,-29.35391 -59.12607,-44.53479 -96.74085,-52.12684 -23.45983,-4.73505 -56.17816,-3.66723 -80.88162,2.63972 -35.25262,9.00022 -71.89669,32.72614 -96.5635,62.52195 -15.15104,18.30138 -32.40398,51.82174 -38.08321,73.99104 -5.34193,20.85257 -5.23908,63.90599 0.21493,89.96903 2.2868,10.92794 3.25816,20.76868 2.15857,21.86825 -2.53975,2.53976 -167.410523,4.68831 -199.614265,2.60133 z"
   id="path5340"
   inkscape:connector-curvature="0"
   inkscape:export-xdpi="2.7389445"
   inkscape:export-ydpi="2.7389445" /><path
   style="fill:#336699;fill-opacity:1;stroke-width:2.37627125"
   d="M 30.945716,441.88005 C 18.951588,440.99617 8.2583679,439.39344 7.1830038,438.31842 4.6124452,435.7487 4.6347852,50.418208 7.2056423,47.843128 8.2934574,46.753526 56.602013,45.543315 114.55799,45.153771 l 105.3745,-0.708262 28.92348,24.470973 c 15.9079,13.459036 33.19931,27.67894 38.42532,31.599788 l 9.50188,7.12881 125.0925,0.69496 125.0925,0.69495 6.55948,6.28437 6.55946,6.28437 v 67.56698 67.56698 l -16.93733,-15.97781 c -46.53404,-43.89785 -99.42123,-62.00354 -156.66465,-53.63345 -73.90204,10.80591 -136.33155,66.79612 -155.56863,139.52248 -5.18328,19.59554 -5.07113,66.69615 0.21709,91.17151 2.50659,11.60119 3.28009,20.013 1.96152,21.33157 -2.67247,2.67247 -171.911145,4.9564 -202.149387,2.72806 z"
   id="path5342"
   inkscape:connector-curvature="0"
   inkscape:export-xdpi="2.7389445"
   inkscape:export-ydpi="2.7389445" /><path
   style="fill:#336699;fill-opacity:1;stroke-width:2.37627125"
   d="M 28.513978,441.84485 C 17.796292,440.91932 8.1723935,439.30747 7.1275366,438.26296 4.5935833,435.72985 4.6706743,50.38226 7.2056423,47.843128 8.2934574,46.753526 56.683306,45.543041 114.73864,45.153162 l 105.55514,-0.708871 35.70091,30.148887 c 28.86369,24.374967 37.62286,30.512492 45.7365,32.047472 5.51957,1.04423 62.92857,1.98395 127.57553,2.08827 l 117.53997,0.18968 6.6202,6.34256 6.62022,6.34256 v 67.50165 67.50165 L 542.85914,240.5715 c -42.69824,-39.74285 -88.7687,-57.80321 -139.60593,-54.72774 -54.91477,3.32215 -102.31482,27.85928 -136.35659,70.5864 -15.27384,19.17079 -30.26381,48.5814 -35.76666,70.17486 -4.98686,19.56869 -4.90887,66.14058 0.15284,91.26121 2.37366,11.7802 3.02231,20.07576 1.6751,21.42297 -2.71053,2.71054 -177.367577,4.89383 -204.443915,2.55565 z"
   id="path5344"
   inkscape:connector-curvature="0"
   inkscape:export-xdpi="2.7389445"
   inkscape:export-ydpi="2.7389445" /><path
   style="fill:#336699;fill-opacity:1;stroke-width:2.37627125"
   d="M 26.21033,441.90942 C 16.839537,441.03692 8.2849606,439.43218 7.2001605,438.34332 4.6182806,435.75181 4.6236897,50.4288 7.2056423,47.842901 8.2934574,46.753424 56.716792,45.542928 114.81305,45.152911 l 105.62956,-0.709122 36.63443,30.640521 36.63442,30.64052 23.2853,1.5419 c 12.80689,0.84805 69.86805,1.54743 126.80255,1.55419 l 103.51729,0.0123 6.38525,6.66477 6.38526,6.66477 v 67.36135 67.36135 L 546.42355,243.9224 c -29.03604,-27.54742 -58.43954,-44.86933 -90.89237,-53.54563 -22.22757,-5.94257 -66.49883,-5.38688 -90.62065,1.13746 -64.28086,17.38635 -118.98835,73.16165 -133.93359,136.54782 -4.73153,20.06749 -4.57655,65.57339 0.30585,89.80418 2.39924,11.90714 3.02909,20.06899 1.65477,21.44331 -2.64952,2.64952 -181.972782,4.90476 -206.72723,2.59988 z"
   id="path5346"
   inkscape:connector-curvature="0"
   inkscape:export-xdpi="2.7389445"
   inkscape:export-ydpi="2.7389445" /><path
   style="fill:#336699;fill-opacity:1;stroke-width:2.37627125"
   d="M 25.024307,441.91868 C 16.308151,441.04108 8.2882362,439.43222 7.2022737,438.34344 4.6189984,435.75347 4.6223224,50.430692 7.2056423,47.843128 8.2934574,46.753526 56.716792,45.542928 114.81305,45.152911 l 105.62956,-0.709122 36.6316,30.638155 36.6316,30.638156 25.43997,1.55656 c 13.99199,0.85611 71.05441,1.55656 126.80539,1.55656 H 547.3166 l 6.38525,6.66477 6.38526,6.66477 v 67.50437 67.50438 l -11.28729,-10.88397 c -44.24624,-42.66523 -83.59175,-59.97996 -136.04152,-59.86765 -40.20955,0.0861 -73.51171,10.02546 -104.27701,31.12247 -30.37891,20.83206 -59.42113,58.63716 -72.3804,94.21966 -9.29455,25.52023 -11.41723,67.82724 -5.14962,102.63685 2.57095,14.27873 3.26682,23.63014 1.86289,25.03407 -2.66091,2.66092 -184.451251,4.83561 -207.789853,2.48574 z"
   id="path5348"
   inkscape:connector-curvature="0"
   inkscape:export-xdpi="2.7389445"
   inkscape:export-ydpi="2.7389445" /><path
   style="fill:#336699;fill-opacity:1;stroke-width:2.37627125"
   d="M 23.839289,441.93007 C 15.778324,441.04619 8.2930701,439.43222 7.2053923,438.34344 4.620058,435.75549 4.6203047,50.432713 7.2056423,47.843128 8.2934574,46.753526 56.729778,45.542884 114.84191,45.152814 l 105.65842,-0.70922 36.66363,30.63835 36.66363,30.638346 28.9469,1.55647 c 15.92081,0.85605 72.95583,1.55646 126.74451,1.55646 h 97.7976 l 6.38525,6.66477 6.38526,6.66477 v 67.21015 67.21015 l -16.03983,-14.7452 C 500.8466,202.12403 463.49679,186.38733 412.7583,186.52147 c -54.99024,0.14538 -96.25999,18.00378 -134.38819,58.15297 -20.09807,21.16336 -32.12966,40.31017 -41.92015,66.71092 -9.64279,26.00244 -11.87749,67.58635 -5.52735,102.85433 2.60147,14.4483 3.29871,23.78609 1.88186,25.20294 -2.66839,2.66839 -187.273559,4.86585 -208.965181,2.48744 z"
   id="path5350"
   inkscape:connector-curvature="0"
   inkscape:export-xdpi="2.7389445"
   inkscape:export-ydpi="2.7389445" /><path
   style="fill:#336699;fill-opacity:1;stroke-width:2.37627125"
   d="M 22.640466,441.92567 C 15.227096,441.02958 8.2765025,439.41157 7.1947036,438.33013 4.6164014,435.75266 4.6272289,50.425767 7.205676,47.843128 8.2935097,46.753526 56.947661,45.562752 115.32601,45.196964 l 106.14246,-0.665069 29.70339,25.332653 c 16.33686,13.932959 33.27205,28.064221 37.63374,31.402802 l 7.93033,6.07015 125.14086,0.99881 125.14083,0.9988 6.53474,6.13431 6.53475,6.13431 v 67.47187 67.47186 l -18.4161,-16.44936 c -38.34972,-34.25416 -65.29392,-47.34275 -108.8206,-52.8614 -35.64051,-4.51878 -81.74174,4.95425 -112.5216,23.1213 -17.51153,10.33573 -46.22277,36.25731 -58.13804,52.48917 -30.91123,42.10952 -41.22314,92.80161 -30.99291,152.35724 2.4335,14.16664 2.9687,22.87614 1.49624,24.3486 -2.70772,2.70771 -189.798611,4.821 -210.053634,2.37266 z"
   id="path5352"
   inkscape:connector-curvature="0"
   inkscape:export-xdpi="2.7389445"
   inkscape:export-ydpi="2.7389445" /><path
   style="fill:#336699;fill-opacity:1;stroke-width:2.37627125"
   d="M 21.413428,441.90119 C 14.632137,440.97578 8.2162046,439.35129 7.1558017,438.29123 4.6031737,435.73943 4.6523953,50.40056 7.205676,47.843128 8.2935097,46.753526 56.947661,45.578217 115.32601,45.231332 l 106.14246,-0.630701 36.21903,30.551776 36.21903,30.551773 44.57419,1.5578 c 24.5158,0.8568 81.53307,1.56083 126.70503,1.56452 l 82.13085,0.007 6.38525,6.66477 6.38526,6.66477 v 67.23808 67.23807 L 546.42355,244.1108 c -45.72504,-41.92525 -82.19489,-57.38557 -134.85339,-57.16715 -55.35333,0.22962 -96.88922,18.83347 -136.32313,61.05892 -20.13068,21.55573 -38.77079,56.49077 -44.29231,83.012 -4.5588,21.89705 -4.45794,56.82237 0.24314,84.18984 2.44389,14.22714 2.97175,22.87308 1.4871,24.35773 -2.74148,2.74148 -192.895861,4.84676 -211.271532,2.33905 z"
   id="path5354"
   inkscape:connector-curvature="0"
   inkscape:export-xdpi="2.7389445"
   inkscape:export-ydpi="2.7389445" /><path
   style="fill:#336699;fill-opacity:1;stroke-width:2.37627125"
   d="M 20.179365,441.87206 C 14.026287,440.91214 8.1450158,439.2801 7.1098736,438.2453 4.5875544,435.72382 4.6821179,50.370789 7.205676,47.843128 8.2935097,46.753526 56.947661,45.550615 115.32601,45.169994 l 106.14246,-0.69204 36.20613,30.611879 36.20615,30.611877 46.7514,1.56576 c 25.71327,0.86116 82.73634,1.56575 126.71793,1.56575 h 79.96652 l 6.38525,6.66477 6.38526,6.66477 v 67.13055 67.13054 l -18.48799,-16.29138 c -32.8534,-28.94999 -55.06721,-41.44578 -87.68105,-49.32264 -26.27992,-6.34709 -73.93228,-4.19592 -99.37842,4.48626 -56.26413,19.19723 -103.83078,68.3208 -121.06276,125.02526 -6.24534,20.55123 -7.40258,60.7983 -2.62165,91.1765 2.59236,16.47196 3.23994,26.65409 1.78756,28.10646 -2.74985,2.74985 -196.141802,4.81402 -212.463435,2.26775 z"
   id="path5356"
   inkscape:connector-curvature="0"
   inkscape:export-xdpi="2.7389445"
   inkscape:export-ydpi="2.7389445" /><path
   style="fill:#336699;fill-opacity:1;stroke-width:2.37627125"
   d="M 20.179365,441.86916 C 14.026287,440.91084 8.1450158,439.27998 7.1098736,438.24502 4.5875544,435.7232 4.6821179,50.369771 7.205676,47.842681 8.2935097,46.753324 56.991456,45.54428 115.42334,45.155916 l 106.23977,-0.706117 28.00885,23.82159 c 15.40486,13.101875 32.15914,27.108696 37.23175,31.126272 l 9.22292,7.304679 125.44549,1.3635 125.4455,1.36351 6.53474,6.08719 6.53475,6.08719 v 67.36612 67.36613 l -20.71339,-18.1089 C 514.25117,216.26344 492.65481,203.108 468.07325,194.7944 c -16.92546,-5.72428 -21.68618,-6.24944 -56.50309,-6.23291 -35.37329,0.0169 -39.32569,0.47472 -56.76947,6.57718 -52.34372,18.31171 -93.59816,57.46936 -115.19003,109.33535 -12.70672,30.52289 -15.43156,66.3515 -8.30119,109.15159 2.68521,16.11799 3.135,24.17702 1.44375,25.86828 -2.91577,2.91575 -195.301112,5.06545 -212.573855,2.37527 z"
   id="path5358"
   inkscape:connector-curvature="0"
   inkscape:export-xdpi="2.7389445"
   inkscape:export-ydpi="2.7389445" /><path
   style="fill:#336699;fill-opacity:1;stroke-width:2.37627125"
   d="M 18.935489,441.83326 C 13.405229,440.83335 8.0586186,439.19358 7.0541334,438.18929 4.5685954,435.70424 4.7182063,50.333632 7.205676,47.842681 8.2935097,46.753324 56.947661,45.546997 115.32601,45.161953 l 106.14246,-0.700081 36.4525,30.621535 36.45247,30.621533 62.16278,1.55928 c 34.1895,0.8576 91.10172,1.56146 126.47157,1.56413 l 64.30881,0.005 6.38525,6.66477 6.38526,6.66477 v 67.11346 67.11345 l -20.79238,-18.0852 c -41.60836,-36.19037 -71.59519,-48.86622 -119.40762,-50.47515 -37.54397,-1.26338 -57.85179,2.72593 -86.7339,17.03822 -25.76134,12.76582 -44.98041,27.89465 -63.70015,50.14339 -15.19533,18.0599 -32.53049,51.43203 -37.62852,72.4391 -4.16574,17.16545 -4.11062,67.55468 0.0995,91.01116 2.31559,12.90099 2.57122,19.29048 0.84102,21.02069 -2.98313,2.98312 -198.447304,5.13241 -213.829611,2.35125 z"
   id="path5360"
   inkscape:connector-curvature="0"
   inkscape:export-xdpi="2.7389445"
   inkscape:export-ydpi="2.7389445" /><path
   style="fill:#336699;fill-opacity:1;stroke-width:2.37627125"
   d="m 394.93626,518.35643 c -62.56283,-9.76015 -111.408,-53.24235 -126.18144,-112.32731 -5.74044,-22.95836 -3.72871,-60.18289 4.50061,-83.27787 14.73915,-41.36433 49.24747,-75.93865 90.25992,-90.43254 20.75819,-7.33598 63.40721,-9.10831 84.88701,-3.52757 21.99848,5.7155 46.20594,19.17042 63.35831,35.21562 53.18874,49.75546 62.98311,126.86547 23.82219,187.54942 -17.70551,27.43654 -46.95247,49.95157 -77.72478,59.83443 -17.62215,5.65954 -49.01663,9.1351 -62.92182,6.96582 z m 43.96102,-81.5978 V 398.7383 h 36.8322 36.8322 v -26.13899 -26.13898 h -36.8322 -36.8322 v -36.8322 -36.8322 H 412.7583 386.61931 v 36.8322 36.8322 h -38.02033 -38.02034 v 26.13898 26.13899 h 38.02034 38.02033 v 38.02033 38.02034 h 26.13899 26.13898 z"
   id="path5362"
   inkscape:connector-curvature="0"
   inkscape:export-xdpi="2.7389445"
   inkscape:export-ydpi="2.7389445" /><path
   style="fill:#336699;fill-opacity:1;stroke-width:2.37627125"
   d="M 369.94717,511.73313 C 282.30939,482.72686 241.17399,387.48467 281.14649,306.12984 c 16.48284,-33.54702 57.66606,-67.68988 91.2152,-75.62173 18.51699,-4.37788 47.99365,-5.74665 65.34745,-3.03445 23.76521,3.71423 55.99654,20.02635 74.16701,37.53559 29.05714,27.9997 43.3996,58.88083 45.27434,97.4813 1.48626,30.60253 -1.88306,48.58802 -13.69046,73.07995 -11.38113,23.60771 -28.11096,42.53981 -51.29257,58.04463 -24.24131,16.21358 -42.90713,21.79542 -77.03289,23.03595 -24.33734,0.88473 -29.28116,0.34667 -45.1874,-4.91795 z m 68.95011,-74.9745 V 398.7383 h 36.8322 36.8322 v -26.13899 -26.13898 h -36.8322 -36.8322 v -36.8322 -36.8322 H 412.7583 386.61931 v 36.8322 36.8322 h -38.02033 -38.02034 v 26.13898 26.13899 h 38.02034 38.02033 v 38.02033 38.02034 h 26.13899 26.13898 z"
   id="path5364"
   inkscape:connector-curvature="0"
   inkscape:export-xdpi="2.7389445"
   inkscape:export-ydpi="2.7389445" /><path
   style="fill:#336699;fill-opacity:1;stroke-width:2.37627125"
   d="m 378.30236,514.18434 c -51.04897,-14.56007 -90.41276,-51.4308 -105.93092,-99.22187 -6.58762,-20.28781 -7.68756,-56.03515 -2.40028,-78.00722 11.81567,-49.10176 54.991,-93.70438 102.64046,-106.03355 22.51071,-5.82459 63.06906,-5.27432 82.91956,1.125 47.43469,15.29179 87.59406,58.62474 98.8917,106.70666 5.14121,21.88058 3.43455,58.08353 -3.72395,78.99511 -15.25421,44.561 -54.56105,82.18015 -98.46485,94.23716 -18.41754,5.05789 -59.61184,6.283 -73.93172,2.19871 z m 60.59492,-77.42571 V 398.7383 h 36.8322 36.8322 v -26.13899 -26.13898 h -36.8322 -36.8322 v -36.8322 -36.8322 H 412.7583 386.61931 v 36.8322 36.8322 h -38.02033 -38.02034 v 26.13898 26.13899 h 38.02034 38.02033 v 38.02033 38.02034 h 26.13899 26.13898 z"
   id="path5366"
   inkscape:connector-curvature="0"
   inkscape:export-xdpi="2.7389445"
   inkscape:export-ydpi="2.7389445" /><path
   style="fill:#336699;fill-opacity:1;stroke-width:2.37627125"
   d="m 378.30236,514.18434 c -36.58437,-10.43451 -67.23547,-32.07911 -87.3292,-61.66844 -37.62229,-55.40127 -31.83483,-129.03509 14.14276,-179.93839 12.19778,-13.50456 38.74549,-31.82444 54.84799,-37.84916 25.8606,-9.67569 74.83395,-10.25753 100.31981,-1.19187 28.44879,10.11961 62.06452,37.94859 77.21893,63.92616 24.57672,42.12917 26.79245,95.36807 5.7232,137.51383 -18.88984,37.78612 -50.29685,64.45938 -90.07094,76.49515 -18.28099,5.53188 -59.70484,7.03314 -74.85255,2.71272 z m 60.59492,-77.42571 V 398.7383 h 36.8322 36.8322 v -26.13899 -26.13898 h -36.8322 -36.8322 v -36.8322 -36.8322 H 412.7583 386.61931 v 36.8322 36.8322 h -38.02033 -38.02034 v 26.13898 26.13899 h 38.02034 38.02033 v 38.02033 38.02034 h 26.13899 26.13898 z"
   id="path5368"
   inkscape:connector-curvature="0"
   inkscape:export-xdpi="2.7389445"
   inkscape:export-ydpi="2.7389445" /><path
   style="fill:#336699;fill-opacity:1;stroke-width:2.37627125"
   d="m 378.30236,514.18434 c -36.58437,-10.43451 -67.23547,-32.07911 -87.3292,-61.66844 -44.27376,-65.196 -27.73237,-153.80247 37.30637,-199.83725 18.58853,-13.15706 26.53718,-17.1011 43.36799,-21.51873 18.93504,-4.96994 64.332,-4.86864 81.50739,0.18187 30.39956,8.93914 66.61973,36.82916 82.87763,63.81688 25.99707,43.1545 28.75155,96.69392 7.19331,139.8178 -18.88984,37.78612 -50.29685,64.45938 -90.07094,76.49515 -18.28099,5.53188 -59.70484,7.03314 -74.85255,2.71272 z m 60.59492,-77.42571 V 398.7383 h 36.8322 36.8322 v -26.13899 -26.13898 h -36.8322 -36.8322 v -36.8322 -36.8322 H 412.7583 386.61931 v 36.8322 36.8322 h -38.02033 -38.02034 v 26.13898 26.13899 h 38.02034 38.02033 v 38.02033 38.02034 h 26.13899 26.13898 z"
   id="path5370"
   inkscape:connector-curvature="0"
   inkscape:export-xdpi="2.7389445"
   inkscape:export-ydpi="2.7389445" /><path
   style="fill:#336699;fill-opacity:1;stroke-width:2.37627125"
   d="m 378.30236,514.18434 c -51.14948,-14.58873 -88.97138,-49.86125 -105.95403,-98.81215 -4.34915,-12.53602 -5.36155,-20.59375 -5.37411,-42.77288 -0.0133,-23.52529 0.87624,-29.91494 6.394,-45.92817 14.32043,-41.55959 47.67986,-77.00219 86.79532,-92.21535 18.78504,-7.30606 71.56325,-9.20721 92.07971,-3.31686 31.00846,8.90266 67.28162,36.61739 83.78929,64.01974 25.96055,43.09387 28.73618,96.63162 7.25502,139.9386 -18.75501,37.81096 -52.45014,66.20051 -91.32079,76.94154 -18.13354,5.01079 -59.40411,6.21283 -73.66441,2.14553 z m 60.59492,-77.42571 V 398.7383 h 36.8322 36.8322 v -26.13899 -26.13898 h -36.8322 -36.8322 v -36.8322 -36.8322 H 412.7583 386.61931 v 36.8322 36.8322 h -38.02033 -38.02034 v 26.13898 26.13899 h 38.02034 38.02033 v 38.02033 38.02034 h 26.13899 26.13898 z"
   id="path5372"
   inkscape:connector-curvature="0"
   inkscape:export-xdpi="2.7389445"
   inkscape:export-ydpi="2.7389445" /><path
   style="fill:#336699;fill-opacity:1;stroke-width:2.37627125"
   d="m 377.11423,513.99251 c -24.75717,-6.79635 -47.48392,-20.1489 -66.72233,-39.20111 -27.63306,-27.36561 -40.92962,-55.14711 -43.99686,-91.92598 -2.80266,-33.60631 6.46282,-66.8622 26.4211,-94.83121 20.0767,-28.13498 49.04488,-49.08824 78.45615,-56.74891 19.02782,-4.95611 64.94352,-4.87076 82.04539,0.15253 34.31005,10.07779 72.59266,41.89124 88.37108,73.43776 22.94273,45.87042 21.12277,99.60758 -4.82353,142.42051 -17.15534,28.30737 -47.36778,52.5354 -78.5822,63.0168 -20.30297,6.8175 -62.73185,8.7409 -81.1688,3.67961 z m 61.78305,-77.23388 V 398.7383 h 36.8322 36.8322 v -26.13899 -26.13898 h -36.8322 -36.8322 v -36.8322 -36.8322 H 412.7583 386.61931 v 36.8322 36.8322 h -38.02033 -38.02034 v 26.13898 26.13899 h 38.02034 38.02033 v 38.02033 38.02034 h 26.13899 26.13898 z"
   id="path5374"
   inkscape:connector-curvature="0"
   inkscape:export-xdpi="2.7389445"
   inkscape:export-ydpi="2.7389445" /><path
   style="fill:#336699;fill-opacity:1;stroke-width:2.37627125"
   d="m 375.92609,514.03877 c -38.40941,-11.05517 -77.34279,-42.8771 -94.5504,-77.28014 -23.17317,-46.32989 -20.15391,-100.83376 7.97756,-144.0116 20.04426,-30.76511 56.06656,-56.75307 87.04322,-62.79653 8.83002,-1.72271 26.9105,-2.48771 45.14916,-1.91031 30.21935,0.95669 30.563,1.0317 51.80758,11.30798 39.92661,19.313 71.25674,57.72342 81.0816,99.40519 5.88767,24.97822 3.4964,60.77967 -5.62399,84.20148 -16.16387,41.50998 -49.50055,73.60232 -90.90337,87.51033 -20.03534,6.73024 -64.30894,8.66015 -81.98136,3.5736 z m 62.97119,-77.28014 V 398.7383 h 36.8322 36.8322 v -26.13899 -26.13898 h -36.8322 -36.8322 v -36.8322 -36.8322 H 412.7583 386.61931 v 36.8322 36.8322 h -38.02033 -38.02034 v 26.13898 26.13899 h 38.02034 38.02033 v 38.02033 38.02034 h 26.13899 26.13898 z"
   id="path5376"
   inkscape:connector-curvature="0"
   inkscape:export-xdpi="2.7389445"
   inkscape:export-ydpi="2.7389445" /><path
   style="fill:#336699;fill-opacity:1;stroke-width:2.37627125"
   d="m 378.30236,515.034 c -5.22779,-1.30276 -18.59432,-6.84012 -29.70338,-12.30523 -27.28021,-13.42049 -54.68227,-40.26905 -67.33204,-65.97196 -20.78281,-42.22836 -20.76087,-87.9663 0.0626,-130.3863 17.16459,-34.96649 58.38153,-68.65115 93.41766,-76.34586 7.9706,-1.75052 25.67729,-2.54378 45.33609,-2.03105 l 32.2574,0.84131 21.19951,10.46222 c 39.98297,19.73209 71.16241,58.07245 80.88055,99.45623 5.15463,21.95057 3.35142,60.43729 -3.78162,80.71263 -14.42112,40.9913 -49.34076,75.82572 -90.2851,90.06474 -14.01585,4.87423 -23.28991,6.31465 -45.09552,7.00406 -15.09806,0.47734 -31.7283,-0.19802 -36.9561,-1.50079 z m 60.59492,-78.27537 V 398.7383 h 36.8322 36.8322 v -26.13899 -26.13898 h -36.8322 -36.8322 v -36.8322 -36.8322 H 412.7583 386.61931 v 36.8322 36.8322 h -38.02033 -38.02034 v 26.13898 26.13899 h 38.02034 38.02033 v 38.02033 38.02034 h 26.13899 26.13898 z"
   id="path5378"
   inkscape:connector-curvature="0"
   inkscape:export-xdpi="2.7389445"
   inkscape:export-ydpi="2.7389445" /><path
   style="fill:#336699;fill-opacity:1;stroke-width:2.37627125"
   d="m 375.03202,513.96889 c -37.18237,-10.48347 -77.10303,-43.35666 -93.76508,-77.21208 -20.78281,-42.22836 -20.76087,-87.9663 0.0626,-130.3863 17.16459,-34.96649 58.38153,-68.65115 93.41766,-76.34586 7.9706,-1.75052 25.67729,-2.54378 45.33609,-2.03105 l 32.2574,0.84131 20.90983,10.36509 c 40.68299,20.16672 71.34109,57.68307 81.09728,99.23885 5.22924,22.27359 3.4746,60.60902 -3.70867,81.02714 -5.81997,16.54292 -18.96479,38.04405 -32.24536,52.74407 -12.78726,14.15395 -41.5992,32.56183 -59.99685,38.33182 -21.40627,6.71358 -65.30733,8.51829 -83.36485,3.42701 z m 63.86526,-77.21026 V 398.7383 h 36.8322 36.8322 v -26.13899 -26.13898 h -36.8322 -36.8322 v -36.8322 -36.8322 H 412.7583 386.61931 v 36.8322 36.8322 h -38.02033 -38.02034 v 26.13898 26.13899 h 38.02034 38.02033 v 38.02033 38.02034 h 26.13899 26.13898 z"
   id="path5380"
   inkscape:connector-curvature="0"
   inkscape:export-xdpi="2.7389445"
   inkscape:export-ydpi="2.7389445" /><path
   style="fill:#336699;fill-opacity:1;stroke-width:2.37627125"
   d="m 372.29449,513.25876 c -35.79171,-11.91084 -73.64996,-42.87021 -89.72909,-73.37782 -21.88779,-41.52865 -22.36788,-91.00469 -1.29846,-133.81539 12.86498,-26.14019 40.10298,-52.72884 68.36645,-66.73661 l 21.1738,-10.49403 h 40.75277 40.75277 l 21.21346,10.45623 c 17.28237,8.51858 24.97643,14.24313 41.51962,30.89153 22.11613,22.25673 32.01051,39.12571 39.16504,66.77258 5.4957,21.23679 3.87586,62.04681 -3.2476,81.82013 -15.22686,42.26669 -52.4372,79.16081 -92.56638,91.77976 -23.13048,7.27355 -68.12438,8.68636 -86.10238,2.70362 z m 66.60279,-76.50013 V 398.7383 h 36.8322 36.8322 v -26.13899 -26.13898 h -36.8322 -36.8322 v -36.8322 -36.8322 H 412.7583 386.61931 v 36.8322 36.8322 h -38.02033 -38.02034 v 26.13898 26.13899 h 38.02034 38.02033 v 38.02033 38.02034 h 26.13899 26.13898 z"
   id="path5382"
   inkscape:connector-curvature="0"
   inkscape:export-xdpi="2.7389445"
   inkscape:export-ydpi="2.7389445" /><path
   style="fill:#336699;fill-opacity:1;stroke-width:2.37627125"
   d="m 372.29449,513.25876 c -33.23009,-11.05838 -68.95409,-38.55305 -85.18672,-65.56323 -26.51226,-44.11494 -28.57384,-96.27852 -5.62129,-142.23438 12.78698,-25.60224 40.36119,-52.36123 68.14696,-66.13221 l 21.17385,-10.49403 h 41.76788 41.76787 l 20.19831,10.55611 c 15.29834,7.99528 25.12443,15.48933 40.50446,30.89153 30.4061,30.44987 42.66503,59.27558 42.66503,100.32278 0,27.50613 -3.24552,42.08077 -14.46662,64.96517 -11.77151,24.00692 -28.35015,42.84414 -51.09695,58.05812 -24.35737,16.29122 -42.72204,21.6854 -78.20084,22.96961 -23.31594,0.84398 -30.91052,0.23501 -41.65194,-3.33947 z m 66.60279,-76.50013 V 398.7383 h 36.8322 36.8322 v -26.13899 -26.13898 h -36.8322 -36.8322 v -36.8322 -36.8322 H 412.7583 386.61931 v 36.8322 36.8322 h -38.02033 -38.02034 v 26.13898 26.13899 h 38.02034 38.02033 v 38.02033 38.02034 h 26.13899 26.13898 z"
   id="path5384"
   inkscape:connector-curvature="0"
   inkscape:export-xdpi="2.7389445"
   inkscape:export-ydpi="2.7389445" /><path
   style="fill:#336699;fill-opacity:1;stroke-width:2.37627125"
   d="m 372.29449,513.24726 c -33.18954,-11.01582 -68.94886,-38.53285 -85.18672,-65.55173 -26.51226,-44.11494 -28.57384,-96.27852 -5.62129,-142.23438 12.78298,-25.59425 40.36024,-52.35947 68.13861,-66.13221 l 21.16551,-10.49403 39.39995,-0.77847 39.39995,-0.77846 22.57457,11.24792 c 18.5603,9.24778 26.20493,14.87944 42.99012,31.66999 22.00351,22.01055 32.23533,39.21509 38.93986,65.47641 4.21468,16.5086 4.73004,50.24921 1.04319,68.29564 -3.77039,18.45523 -19.52765,48.98693 -33.19732,64.32396 -15.41135,17.29115 -43.34688,35.89656 -63.54405,42.32117 -22.92109,7.29104 -67.92359,8.66783 -86.10238,2.63419 z m 66.60279,-76.48863 V 398.7383 h 36.8322 36.8322 v -26.13899 -26.13898 h -36.8322 -36.8322 v -36.8322 -36.8322 H 412.7583 386.61931 v 36.8322 36.8322 h -38.02033 -38.02034 v 26.13898 26.13899 h 38.02034 38.02033 v 38.02033 38.02034 h 26.13899 26.13898 z"
   id="path5386"
   inkscape:connector-curvature="0"
   inkscape:export-xdpi="2.7389445"
   inkscape:export-ydpi="2.7389445" /><path
   style="fill:#336699;fill-opacity:1;stroke-width:2.37627125"
   d="m 372.29449,513.24726 c -34.99909,-11.61642 -75.05336,-43.85529 -89.06009,-71.68267 -22.90051,-45.49678 -23.52711,-92.26261 -1.82361,-136.10344 12.00139,-24.24268 39.90003,-51.62788 67.18819,-65.95167 l 20.1983,-10.60227 40.76033,-0.86106 40.76033,-0.86106 22.21086,11.36504 c 17.72427,9.0693 26.33477,15.476 42.62639,31.71643 30.68016,30.58377 42.58946,58.88617 42.52052,101.0498 -0.0437,26.72378 -4.7504,47.21849 -15.57434,67.81649 -16.93461,32.22664 -50.62189,60.9512 -83.90094,71.54089 -22.7198,7.22963 -67.80792,8.58035 -85.90594,2.57352 z m 66.60279,-76.48863 V 398.7383 h 36.8322 36.8322 v -26.13899 -26.13898 h -36.8322 -36.8322 v -36.8322 -36.8322 H 412.7583 386.61931 v 36.8322 36.8322 h -38.02033 -38.02034 v 26.13898 26.13899 h 38.02034 38.02033 v 38.02033 38.02034 h 26.13899 26.13898 z"
   id="path5388"
   inkscape:connector-curvature="0"
   inkscape:export-xdpi="2.7389445"
   inkscape:export-ydpi="2.7389445" /><path
   style="fill:#336699;fill-opacity:1;stroke-width:2.37627125"
   d="m 379.4905,515.88267 c -3.26737,-0.56211 -15.97007,-5.85416 -28.22822,-11.76012 C 333.00037,495.324 325.38862,489.84643 309.12056,473.79657 292.744,457.63969 287.63001,450.7034 279.9241,434.19639 c -15.27544,-32.72187 -18.43926,-64.42361 -9.80042,-98.20113 9.12199,-35.66663 31.76834,-66.76901 63.89269,-87.74985 29.05441,-18.97583 35.26284,-20.59864 78.80498,-20.59864 h 38.3905 l 21.7639,11.1342 c 17.23913,8.81936 26.00835,15.3653 42.17944,31.48559 22.01138,21.94222 32.22217,39.09289 38.93986,65.40574 4.60446,18.03536 4.58642,52.70953 -0.0375,72.32606 -11.87672,50.3845 -58.1862,95.32635 -109.21955,105.99396 -15.41672,3.22258 -51.53066,4.26726 -65.34746,1.89035 z m 59.40678,-79.12404 V 398.7383 h 36.8322 36.8322 v -26.13899 -26.13898 h -36.8322 -36.8322 v -36.8322 -36.8322 H 412.7583 386.61931 v 36.8322 36.8322 h -38.02033 -38.02034 v 26.13898 26.13899 h 38.02034 38.02033 v 38.02033 38.02034 h 26.13899 26.13898 z"
   id="path5390"
   inkscape:connector-curvature="0"
   inkscape:export-xdpi="2.7389445"
   inkscape:export-ydpi="2.7389445" /><path
   style="fill:#336699;fill-opacity:1;stroke-width:2.37627125"
   d="m 376.25404,514.91873 c -20.05169,-4.7102 -47.20298,-21.41101 -67.47826,-41.50604 -31.98168,-31.69736 -45.40091,-66.60206 -42.70062,-111.0684 2.84613,-46.86792 27.37139,-87.93229 68.54193,-114.76458 27.73935,-18.07871 35.02131,-19.93294 78.2812,-19.93294 h 37.98439 l 20.74035,10.09916 c 16.84708,8.20339 24.80873,14.1137 42.41356,31.48559 32.37268,31.94432 43.71421,58.68497 43.63912,102.89069 -0.0713,41.90757 -12.99259,72.94602 -42.87258,102.98412 -21.1468,21.25867 -47.99023,35.83685 -73.52958,39.93259 -18.41044,2.95247 -52.20483,2.89 -65.01951,-0.12024 z m 62.64324,-78.1601 V 398.7383 h 36.8322 36.8322 v -26.13899 -26.13898 h -36.8322 -36.8322 v -36.8322 -36.8322 H 412.7583 386.61931 v 36.8322 36.8322 h -38.02033 -38.02034 v 26.13898 26.13899 h 38.02034 38.02033 v 38.02033 38.02034 h 26.13899 26.13898 z"
   id="path5392"
   inkscape:connector-curvature="0"
   inkscape:export-xdpi="2.7389445"
   inkscape:export-ydpi="2.7389445" /><path
   style="fill:#336699;fill-opacity:1;stroke-width:2.37627125"
   d="m 373.48188,514.23453 c -35.99933,-11.27923 -76.15869,-44.72587 -92.33108,-76.89774 -22.3614,-44.48374 -20.67991,-96.78182 4.49725,-139.87415 14.80017,-25.33143 46.77959,-52.66202 75.07078,-64.15776 12.69262,-5.15747 17.3452,-5.65811 52.58259,-5.65811 h 38.6579 l 20.20203,10.09916 c 16.03216,8.0146 24.6415,14.51349 41.71023,31.48559 33.0843,32.89703 43.73377,58.0504 43.80413,103.46261 0.0644,41.5666 -12.68508,72.06459 -42.76969,102.30928 -21.27462,21.38782 -48.48832,36.21416 -73.63247,40.11581 -20.90495,3.24384 -56.07993,2.7848 -67.79167,-0.88469 z m 65.4154,-77.4759 V 398.7383 h 36.8322 36.8322 v -26.13899 -26.13898 h -36.8322 -36.8322 v -36.8322 -36.8322 H 412.7583 386.61931 v 36.8322 36.8322 h -38.02033 -38.02034 v 26.13898 26.13899 h 38.02034 38.02033 v 38.02033 38.02034 h 26.13899 26.13898 z"
   id="path5394"
   inkscape:connector-curvature="0"
   inkscape:export-xdpi="2.7389445"
   inkscape:export-ydpi="2.7389445" /><path
   style="fill:#336699;fill-opacity:1;stroke-width:2.37627125"
   d="m 373.48188,514.23453 c -35.98616,-11.2751 -76.15931,-44.72705 -92.3188,-76.87335 -27.55964,-54.82478 -18.49245,-119.40584 22.99074,-163.75149 16.63468,-17.78253 37.29666,-32.62648 56.32651,-40.46601 11.76428,-4.84641 17.02599,-5.38973 52.68722,-5.4405 l 39.61772,-0.0564 19.78906,10.06879 c 15.37635,7.82358 24.5851,14.84446 41.29725,31.4856 33.08988,32.94928 43.7338,58.09691 43.80413,103.49297 0.0644,41.5666 -12.68508,72.06459 -42.76969,102.30928 -21.27462,21.38782 -48.48832,36.21416 -73.63247,40.11581 -20.90495,3.24384 -56.07993,2.7848 -67.79167,-0.88469 z m 65.4154,-77.4759 V 398.7383 h 36.8322 36.8322 v -26.13899 -26.13898 h -36.8322 -36.8322 v -36.8322 -36.8322 H 412.7583 386.61931 v 36.8322 36.8322 h -38.02033 -38.02034 v 26.13898 26.13899 h 38.02034 38.02033 v 38.02033 38.02034 h 26.13899 26.13898 z"
   id="path5396"
   inkscape:connector-curvature="0"
   inkscape:export-xdpi="2.7389445"
   inkscape:export-ydpi="2.7389445" /><path
   style="fill:#336699;fill-opacity:1;stroke-width:2.37627125"
   d="m 373.48188,514.23453 c -35.80139,-11.21721 -74.63803,-43.12321 -91.17036,-74.90043 -28.88626,-55.52304 -20.29932,-120.6749 21.8423,-165.72441 16.63468,-17.78253 37.29666,-32.62648 56.32651,-40.46601 11.76428,-4.84641 17.02599,-5.38973 52.68722,-5.4405 l 39.61772,-0.0564 19.78906,10.06879 c 15.37635,7.82358 24.5851,14.84446 41.29725,31.4856 33.2672,33.12586 43.83926,57.77429 43.83926,102.21002 0,13.82247 -1.53598,29.84939 -3.63187,37.89606 -12.84489,49.3148 -59.23127,94.54322 -107.44153,104.75943 -19.61384,4.15636 -60.12896,4.24932 -73.15556,0.16777 z m 65.4154,-77.4759 V 398.7383 h 36.8322 36.8322 v -26.13899 -26.13898 h -36.8322 -36.8322 v -36.8322 -36.8322 H 412.7583 386.61931 v 36.8322 36.8322 h -38.02033 -38.02034 v 26.13898 26.13899 h 38.02034 38.02033 v 38.02033 38.02034 h 26.13899 26.13898 z"
   id="path5398"
   inkscape:connector-curvature="0"
   inkscape:export-xdpi="2.7389445"
   inkscape:export-ydpi="2.7389445" /><path
   style="fill:#336699;fill-opacity:1;stroke-width:2.37627125"
   d="m 367.60914,511.98698 c -22.31185,-7.89378 -44.67044,-22.94986 -63.31591,-42.63638 -26.03908,-27.49292 -38.75589,-59.33632 -38.82862,-97.22839 -0.047,-24.49332 3.39898,-39.56605 14.52335,-63.52487 12.45873,-26.83267 41.40396,-56.07843 69.56583,-70.28815 l 18.77685,-9.47428 42.35624,-0.74344 42.35623,-0.74345 19.66014,10.17689 c 15.04271,7.78672 24.71159,15.21658 41.16833,31.63497 33.27516,33.19764 43.83926,57.83747 43.83926,102.2513 0,13.82247 -1.53598,29.84939 -3.63187,37.89606 -12.84489,49.3148 -59.23127,94.54322 -107.44153,104.75943 -25.48629,5.40079 -60.48821,4.4797 -79.0283,-2.07969 z m 71.28814,-75.22835 V 398.7383 h 36.8322 36.8322 v -26.13899 -26.13898 h -36.8322 -36.8322 v -36.8322 -36.8322 H 412.7583 386.61931 v 36.8322 36.8322 h -38.02033 -38.02034 v 26.13898 26.13899 h 38.02034 38.02033 v 38.02033 38.02034 h 26.13899 26.13898 z"
   id="path5400"
   inkscape:connector-curvature="0"
   inkscape:export-xdpi="2.7389445"
   inkscape:export-ydpi="2.7389445" /><path
   style="fill:#336699;fill-opacity:1;stroke-width:2.37627125"
   d="m 367.60914,511.98698 c -34.52518,-12.21479 -72.25278,-44.79986 -87.24627,-75.35402 -20.30349,-41.375 -20.0199,-89.66992 0.77023,-131.17178 12.61912,-25.19066 42.69115,-54.34476 69.93087,-67.79627 l 20.28702,-10.01814 h 41.13318 41.13318 l 19.37302,10.02752 c 26.69335,13.81653 59.0449,45.7248 71.11617,70.14174 11.56308,23.38903 14.37834,38.89941 13.03765,71.82948 -1.29984,31.92619 -5.95553,46.83472 -22.44657,71.87888 -20.3535,30.90991 -55.03996,55.54499 -88.06018,62.54228 -25.48629,5.40079 -60.48821,4.4797 -79.0283,-2.07969 z m 71.28814,-75.22835 V 398.7383 h 36.8322 36.8322 v -26.13899 -26.13898 h -36.8322 -36.8322 v -36.8322 -36.8322 H 412.7583 386.61931 v 36.8322 36.8322 h -38.02033 -38.02034 v 26.13898 26.13899 h 38.02034 38.02033 v 38.02033 38.02034 h 26.13899 26.13898 z"
   id="path5402"
   inkscape:connector-curvature="0"
   inkscape:export-xdpi="2.7389445"
   inkscape:export-ydpi="2.7389445" /><path
   style="fill:#336699;fill-opacity:1;stroke-width:2.37627125"
   d="M 18.935489,441.83326 C 13.405229,440.83335 8.0586186,439.1935 7.0541334,438.18913 4.5685954,435.70383 4.7182063,50.333148 7.205676,47.842466 8.2935097,46.753228 56.969278,45.544353 115.37405,45.156079 l 106.19049,-0.705955 34.13647,28.7162 c 18.77504,15.79391 36.05575,29.743386 38.40159,30.998826 2.46276,1.31805 56.80186,2.91468 128.59005,3.77834 l 124.32497,1.49572 6.53474,6.08226 6.53475,6.08226 v 67.52387 67.52387 l -16.03983,-14.01725 c -46.27841,-40.44281 -73.62938,-52.74003 -121.92282,-54.81744 -35.82335,-1.541 -59.98433,3.13047 -88.97125,17.20239 -46.40494,22.52763 -81.763,62.89701 -97.86706,111.73777 -5.45696,16.54999 -6.29537,23.16173 -6.47851,51.08983 -0.11862,18.08868 1.24057,40.16333 3.11644,50.61455 2.31559,12.90099 2.57122,19.29048 0.84102,21.02069 -2.98312,2.98312 -198.447301,5.13241 -213.829611,2.35125 z"
   id="path5404"
   inkscape:connector-curvature="0"
   inkscape:export-xdpi="2.7389445"
   inkscape:export-ydpi="2.7389445" /><path
   style="fill:#336699;fill-opacity:1;stroke-width:2.37627125"
   d="m 367.60914,511.98698 c -34.52518,-12.21479 -72.25278,-44.79986 -87.24627,-75.35402 -20.30349,-41.375 -20.0199,-89.66992 0.77023,-131.17178 12.47849,-24.90993 42.77637,-54.47722 69.56039,-67.88304 l 19.84225,-9.93137 h 41.5408 41.54081 l 19.37302,10.02752 c 26.69335,13.81653 59.0449,45.7248 71.11617,70.14174 11.56308,23.38903 14.37834,38.89941 13.03765,71.82948 -0.85118,20.9063 -2.41332,30.7926 -6.58382,41.66736 -17.54372,45.74584 -59.71644,83.38604 -103.92293,92.7538 -25.48629,5.40079 -60.48821,4.4797 -79.0283,-2.07969 z m 71.28814,-75.22835 V 398.7383 h 36.8322 36.8322 v -26.13899 -26.13898 h -36.8322 -36.8322 v -36.8322 -36.8322 H 412.7583 386.61931 v 36.8322 36.8322 h -38.02033 -38.02034 v 26.13898 26.13899 h 38.02034 38.02033 v 38.02033 38.02034 h 26.13899 26.13898 z"
   id="path5406"
   inkscape:connector-curvature="0"
   inkscape:export-xdpi="2.7389445"
   inkscape:export-ydpi="2.7389445" /><path
   style="fill:#336699;fill-opacity:1;stroke-width:2.37627125"
   d="m 369.42702,512.9397 c -20.48116,-6.54741 -46.64924,-24.0793 -65.39266,-43.81124 -26.23049,-27.61388 -38.63714,-58.77455 -38.56975,-96.87215 0.0752,-42.48773 13.18303,-73.00048 44.84056,-104.38072 15.89449,-15.75527 25.03829,-22.61453 40.38832,-30.29745 l 19.84225,-9.93137 h 41.5408 41.54081 l 19.37302,9.95661 c 14.82506,7.61922 24.44303,15.01069 40.96989,31.48559 23.79793,23.72312 36.32309,44.72289 41.47427,69.53597 4.12302,19.86047 1.73955,64.94638 -4.32312,81.77664 -15.85562,44.01597 -58.90904,83.11457 -102.95407,93.4969 -21.47901,5.06305 -61.41463,4.57672 -78.73032,-0.95878 z m 69.47026,-76.18107 V 398.7383 h 36.8322 36.8322 v -26.13899 -26.13898 h -36.8322 -36.8322 v -36.8322 -36.8322 H 412.7583 386.61931 v 36.8322 36.8322 h -38.02033 -38.02034 v 26.13898 26.13899 h 38.02034 38.02033 v 38.02033 38.02034 h 26.13899 26.13898 z"
   id="path5408"
   inkscape:connector-curvature="0"
   inkscape:export-xdpi="2.7389445"
   inkscape:export-ydpi="2.7389445" /><path
   style="fill:#336699;fill-opacity:1;stroke-width:2.37627125"
   d="m 367.44057,512.10615 c -21.55106,-7.34683 -44.12906,-22.68386 -63.65667,-43.24136 -26.13654,-27.51497 -38.38492,-58.25496 -38.31929,-96.17066 0.0752,-43.42036 12.01461,-71.63243 43.85935,-103.63645 17.1297,-17.21538 25.45915,-23.56047 41.33238,-31.4856 l 19.8794,-9.92531 h 41.5408 41.54081 l 19.37302,9.95661 c 14.82506,7.61922 24.44303,15.01069 40.96989,31.48559 23.79793,23.72312 36.32309,44.72289 41.47427,69.53597 4.24571,20.45143 1.85219,65.0459 -4.42397,82.42468 -15.66044,43.36399 -59.03565,82.52016 -102.85322,92.84886 -23.58208,5.55879 -61.63163,4.71388 -80.71677,-1.79233 z m 71.45671,-75.34752 V 398.7383 h 36.8322 36.8322 v -26.13899 -26.13898 h -36.8322 -36.8322 v -36.8322 -36.8322 H 412.7583 386.61931 v 36.8322 36.8322 h -38.02033 -38.02034 v 26.13898 26.13899 h 38.02034 38.02033 v 38.02033 38.02034 h 26.13899 26.13898 z"
   id="path5410"
   inkscape:connector-curvature="0"
   inkscape:export-xdpi="2.7389445"
   inkscape:export-ydpi="2.7389445" /><path
   style="fill:#336699;fill-opacity:1;stroke-width:2.37627125"
   d="m 367.44057,512.10615 c -33.20202,-11.3187 -72.76044,-45.55022 -87.40031,-75.63106 -19.79961,-40.68265 -19.70415,-89.25291 0.25607,-130.28569 11.4724,-23.58415 44.31578,-55.61405 70.36001,-68.61732 l 19.8794,-9.92531 h 41.5408 41.54081 l 19.37302,9.95661 c 26.52929,13.63452 58.88676,45.59147 71.09267,70.21265 11.57073,23.33998 14.39923,38.87367 13.07926,71.82948 -1.27677,31.87736 -5.85704,47.18909 -21.12657,70.62568 -20.11861,30.87923 -60.01575,58.99686 -92.11618,64.9192 -23.32584,4.30345 -59.03205,2.8635 -76.47898,-3.08424 z m 71.45671,-75.34752 V 398.7383 h 36.8322 36.8322 v -26.13899 -26.13898 h -36.8322 -36.8322 v -36.8322 -36.8322 H 412.7583 386.61931 v 36.8322 36.8322 h -38.02033 -38.02034 v 26.13898 26.13899 h 38.02034 38.02033 v 38.02033 38.02034 h 26.13899 26.13898 z"
   id="path5412"
   inkscape:connector-curvature="0"
   inkscape:export-xdpi="2.7389445"
   inkscape:export-ydpi="2.7389445" /><path
   style="fill:#336699;fill-opacity:1;stroke-width:2.37627125"
   d="m 375.92609,515.33177 c -22.67823,-5.51492 -50.62044,-23.60345 -72.83035,-47.14714 -25.8236,-27.37437 -37.66625,-57.66328 -37.66625,-96.33563 0,-42.50823 12.14004,-70.91582 43.89447,-102.71269 16.41077,-16.43269 26.00633,-23.83292 40.826,-31.48559 l 19.37301,-10.00395 h 42.04719 42.04719 l 19.37302,9.95661 c 14.77034,7.5911 24.52268,15.07149 41.0484,31.48559 22.74907,22.59543 34.09862,40.64454 40.4339,64.30187 3.85084,14.37981 4.21579,55.61242 0.6457,72.95338 -7.76926,37.73777 -40.33922,77.94316 -78.23021,96.56992 -11.09287,5.45312 -25.92874,10.97742 -32.96861,12.27625 -14.48989,2.67328 -57.21654,2.76213 -67.99346,0.14138 z m 62.97119,-78.57314 V 398.7383 h 36.8322 36.8322 v -26.13899 -26.13898 h -36.8322 -36.8322 v -36.8322 -36.8322 H 412.7583 386.61931 v 36.8322 36.8322 h -38.02033 -38.02034 v 26.13898 26.13899 h 38.02034 38.02033 v 38.02033 38.02034 h 26.13899 26.13898 z"
   id="path5414"
   inkscape:connector-curvature="0"
   inkscape:export-xdpi="2.7389445"
   inkscape:export-ydpi="2.7389445" /></g>
</g>
<g
   id="g4717"
   transform="translate(0,-40.54)">
</g>
<g
   id="g4719"
   transform="translate(0,-40.54)">
</g>
<g
   id="g4721"
   transform="translate(0,-40.54)">
</g>
<g
   id="g4723"
   transform="translate(0,-40.54)">
</g>
<g
   id="g4725"
   transform="translate(0,-40.54)">
</g>
<g
   id="g4727"
   transform="translate(0,-40.54)">
</g>
<g
   id="g4729"
   transform="translate(0,-40.54)">
</g>
<g
   id="g4731"
   transform="translate(0,-40.54)">
</g>
<g
   id="g4733"
   transform="translate(0,-40.54)">
</g>
<g
   id="g4735"
   transform="translate(0,-40.54)">
</g>
<g
   id="g4737"
   transform="translate(0,-40.54)">
</g>
<g
   id="g4739"
   transform="translate(0,-40.54)">
</g>
<g
   id="g4741"
   transform="translate(0,-40.54)">
</g>
<g
   id="g4743"
   transform="translate(0,-40.54)">
</g>
<g
   id="g4745"
   transform="translate(0,-40.54)">
</g>
</svg>