<?xml version="1.0" encoding="UTF-8" standalone="no"?>
<svg
   xmlns:dc="http://purl.org/dc/elements/1.1/"
   xmlns:cc="http://creativecommons.org/ns#"
   xmlns:rdf="http://www.w3.org/1999/02/22-rdf-syntax-ns#"
   xmlns:svg="http://www.w3.org/2000/svg"
   xmlns="http://www.w3.org/2000/svg"
   xmlns:sodipodi="http://sodipodi.sourceforge.net/DTD/sodipodi-0.dtd"
   xmlns:inkscape="http://www.inkscape.org/namespaces/inkscape"
   viewBox="0 0 23.643376 31.999998"
   x="0px"
   y="0px"
   version="1.1"
   id="svg14"
   sodipodi:docname="aide.svg"
   width="23.643375"
   height="31.999998"
   inkscape:version="0.92.3 (2405546, 2018-03-11)">
  <metadata
     id="metadata20">
    <rdf:RDF>
      <cc:Work
         rdf:about="">
        <dc:format>image/svg+xml</dc:format>
        <dc:type
           rdf:resource="http://purl.org/dc/dcmitype/StillImage" />
        <dc:title>Cool-Emoji-Emotion-Face-Expression-Feeling</dc:title>
      </cc:Work>
    </rdf:RDF>
  </metadata>
  <defs
     id="defs18" />
  <sodipodi:namedview
     pagecolor="#ffffff"
     bordercolor="#666666"
     borderopacity="1"
     objecttolerance="10"
     gridtolerance="10"
     guidetolerance="10"
     inkscape:pageopacity="0"
     inkscape:pageshadow="2"
     inkscape:window-width="1549"
     inkscape:window-height="845"
     id="namedview16"
     showgrid="false"
     inkscape:zoom="7.9932051"
     inkscape:cx="10.776873"
     inkscape:cy="13.78951"
     inkscape:window-x="51"
     inkscape:window-y="27"
     inkscape:window-maximized="1"
     inkscape:current-layer="svg14"
     showguides="false" />
  <title
     id="title2">Cool-Emoji-Emotion-Face-Expression-Feeling</title>
  <g
     id="g853">
    <g
       id="g843">
      <g
         id="g987">
        <g
           id="g963">
          <g
             id="g849">
            <path
               style="fill:#336699;stroke-width:0.07629056"
               inkscape:connector-curvature="0"
               id="path4"
               d="m 14.936173,16.451094 a 0.92760821,0.62744697 0 0 0 -0.886794,0.44361 c -0.06307,0.11294 -0.533374,0.84203 -2.226259,0.84203 -1.692887,0 -2.1622553,-0.72909 -2.2262614,-0.84203 a 0.92760821,0.62744697 0 1 0 -1.7624549,0.38588 v 0 c 0.032467,0.0697 0.8469064,1.71105 3.9887163,1.71105 3.141807,0 3.958103,-1.6414 3.988714,-1.71105 v 0 a 0.92760821,0.62744697 0 0 0 -0.877517,-0.82949 z" />
            <path
               style="fill:#336699;stroke-width:0.0627447"
               d="M 11.822266 0 C 8.7038545 0 5.7561674 1.2216325 3.5136719 3.4453125 C 1.2479609 5.6921925 2.9605947e-16 8.6668356 0 11.822266 A 11.840552 11.840552 0 0 0 5.0449219 21.507812 A 2.8555111 2.8555111 0 0 1 6.2597656 23.845703 L 6.2597656 27.464844 A 2.1822606 2.1822606 0 0 0 8.1894531 29.628906 A 3.9679746 3.9679746 0 0 0 15.455078 29.628906 A 2.1822606 2.1822606 0 0 0 17.384766 27.464844 L 17.384766 23.845703 A 2.8919031 2.8919031 0 0 1 18.623047 21.490234 A 11.822356 11.822356 0 0 0 20.214844 3.4960938 L 20.212891 3.4960938 A 11.746435 11.746435 0 0 0 11.921875 0 L 11.822266 0 z M 11.822266 1.2558594 L 11.910156 1.2558594 A 10.566207 10.566207 0 0 1 17.898438 20.464844 A 4.164993 4.164993 0 0 0 16.179688 23.21875 L 7.4667969 23.21875 A 4.1110325 4.1110325 0 0 0 5.765625 20.480469 A 10.58503 10.58503 0 0 1 1.2558594 11.820312 C 1.2558594 9.0018225 2.3704582 6.3450275 4.3964844 4.3359375 C 6.4024324 2.3475575 9.0370288 1.2558594 11.822266 1.2558594 z M 7.5136719 24.472656 L 16.128906 24.472656 L 16.128906 25.734375 L 7.5136719 25.734375 L 7.5136719 24.472656 z M 7.5136719 26.988281 L 16.128906 26.988281 L 16.128906 27.464844 A 0.92548428 0.92548428 0 0 1 15.205078 28.388672 L 8.4394531 28.388672 A 0.92548428 0.92548428 0 0 1 7.5136719 27.464844 L 7.5136719 26.988281 z M 9.6367188 29.644531 L 14.005859 29.644531 A 2.698022 2.698022 0 0 1 11.822266 30.744141 A 2.698022 2.698022 0 0 1 9.6367188 29.644531 z "
               id="path6" />
            <path
               style="fill:#336699;stroke-width:0.09042598"
               inkscape:connector-curvature="0"
               id="path8"
               d="M 22.061728,6.108825 12.420512,6.4752646 H 11.026143 L 1.3849264,6.108825 C 0.86364337,6.0107549 0.37028741,6.3803516 0.31790002,6.9081859 0.22085715,8.1577655 0.30338069,7.9727294 0.56295435,9.1988977 1.1715211,11.905349 2.686156,13.468805 4.942284,13.720188 c 0.3002356,0.03388 0.6021182,0.0511 0.9042596,0.0516 1.4694221,0 2.7127791,-0.434052 3.7174114,-1.294907 0.795748,-0.684515 1.313889,-1.544464 1.652083,-2.361017 h 1.016388 c 0.338191,0.81383 0.856333,1.676502 1.652082,2.361017 1.003728,0.859961 2.247084,1.293999 3.716507,1.293999 0.30214,-5.43e-4 0.604018,-0.01778 0.904261,-0.0516 2.255222,-0.25049 3.769857,-1.813947 4.378425,-4.5213065 0.259487,-1.2258725 0.342011,-1.0405241 0.245053,-2.2898031 0,0 0.008,-0.8108016 -1.067026,-0.7993454 z"
               sodipodi:nodetypes="ccccccccccccccccc" />
          </g>
          <path
             style="fill:#336699;fill-opacity:1;stroke:#336699;stroke-width:0.38491148;stroke-linecap:round;stroke-linejoin:miter;stroke-miterlimit:4;stroke-dasharray:none;stroke-opacity:1;paint-order:markers stroke fill"
             d="m 11.415826,30.683476 c -0.563245,-0.142602 -0.93749,-0.312244 -1.271785,-0.576489 -0.2108339,-0.166655 -0.3833346,-0.336845 -0.3833346,-0.378201 0,-0.04709 0.7826066,-0.07519 2.0941456,-0.07519 h 2.094145 l -0.294598,0.301696 c -0.503638,0.515772 -1.630168,0.882221 -2.238573,0.728186 z"
             id="path955"
             inkscape:connector-curvature="0" />
        </g>
      </g>
    </g>
  </g>
</svg>
